<svg width="1229" height="459" viewBox="0 0 1229 459" fill="none" xmlns="http://www.w3.org/2000/svg">
<path d="M47.2641 44.3376C50.1432 19.0778 71.5191 0 96.9424 0H1174.39C1203.69 0 1226.71 25.0779 1224.21 54.2697L1193.44 413.27C1191.22 439.134 1169.58 459 1143.62 459H56.0228C26.1656 459 2.96322 433.003 6.34452 403.338L47.2641 44.3376Z" fill="black"/>
<path d="M96.9424 3H1174.39C1201.93 3 1223.57 26.5733 1221.22 54.0137L1190.45 413.014C1188.37 437.326 1168.02 456 1143.62 456H56.0225C27.957 456 6.14706 431.563 9.3252 403.678L50.2451 44.6777C52.9515 20.9336 73.0445 3.00002 96.9424 3Z" stroke="black" stroke-opacity="0.2" stroke-width="6"/>
<path d="M196.797 304.173L171.797 304.139L155.243 265.716C154.844 264.649 154.046 262.714 152.849 259.913C151.786 256.978 150.523 253.71 149.061 250.108C147.732 246.372 146.337 242.571 144.874 238.702C143.412 234.833 142.083 231.298 140.887 228.096C140.883 231.563 140.878 235.563 140.873 240.096C140.867 244.63 140.862 249.23 140.857 253.896C140.851 258.563 140.779 262.963 140.641 267.096C140.636 271.229 140.566 274.496 140.429 276.896L139.397 304.094L108.997 304.053L117.157 168.664L145.557 168.703L176.665 246.745C177.595 249.146 178.791 252.548 180.253 256.95C181.848 261.219 183.376 265.888 184.836 270.956C186.309 266.025 187.781 261.427 189.253 257.162C190.858 252.764 192.195 249.3 193.265 246.768L224.557 168.81L252.357 168.848L260.197 304.259L229.197 304.217L228.029 277.015C227.899 274.482 227.77 271.148 227.641 267.014C227.646 262.881 227.651 258.548 227.656 254.014C227.662 249.348 227.667 244.748 227.673 240.214C227.812 235.548 227.883 231.548 227.887 228.215C226.817 231.013 225.613 234.212 224.276 237.81C223.071 241.275 221.801 244.673 220.464 248.005C219.126 251.336 217.856 254.468 216.652 257.4C215.449 260.198 214.513 262.397 213.845 263.996L196.797 304.173ZM311.162 252.328L269.46 168.871L304.26 168.919L328.199 220.751L352.86 168.985L387.26 169.032L343.959 254.173L343.9 304.373L311.1 304.328L311.162 252.328ZM387.584 270.632C393.184 270.64 397.449 272.312 400.378 275.65C403.441 278.987 404.969 283.189 404.963 288.256C404.957 293.322 403.419 297.654 400.348 301.249C397.41 304.712 393.008 306.44 387.142 306.432C381.542 306.424 377.21 304.685 374.148 301.214C371.085 297.743 369.557 293.674 369.562 289.008C369.568 283.808 371.107 279.476 374.178 276.014C377.248 272.418 381.717 270.624 387.584 270.632ZM508.149 169.196L541.149 169.241L540.989 304.641L512.789 304.602L474.258 246.15C473.459 244.949 472.328 243.214 470.864 240.945C469.534 238.677 468.07 236.342 466.472 233.939C465.009 231.404 463.545 229.002 462.081 226.733C460.75 224.332 459.619 222.397 458.688 220.929C458.819 222.929 458.949 225.396 459.079 228.329C459.342 231.13 459.539 233.997 459.669 236.93C459.932 239.864 460.129 242.731 460.259 245.531C460.389 248.331 460.453 250.665 460.451 252.531L460.989 304.532L427.989 304.487L428.149 169.087L455.149 169.124L494.08 227.177C495.278 229.045 496.609 231.18 498.073 233.582C499.537 235.851 501.001 238.186 502.465 240.588C504.062 242.991 505.526 245.326 506.856 247.594C508.187 249.729 509.318 251.598 510.25 253.199C510.119 251.065 509.989 248.599 509.859 245.798C509.728 242.998 509.532 240.131 509.269 237.198C509.139 234.131 509.009 231.197 508.879 228.397C508.749 225.597 508.685 223.13 508.688 220.997L508.149 169.196ZM624.241 167.554C634.775 167.568 643.839 169.181 651.436 172.391C659.032 175.601 665.293 180.143 670.22 186.017C675.146 191.89 678.738 199.095 680.994 207.631C683.384 216.035 684.573 225.503 684.561 236.036C684.549 246.436 683.204 255.968 680.527 264.631C677.984 273.161 674.108 280.489 668.901 286.615C663.694 292.741 657.155 297.532 649.284 300.988C641.414 304.311 632.145 305.965 621.478 305.95C610.945 305.936 601.813 304.457 594.084 301.513C586.487 298.436 580.226 294.028 575.299 288.288C570.373 282.414 566.714 275.342 564.324 267.073C562.067 258.803 560.945 249.335 560.958 238.668C560.97 228.268 562.248 218.736 564.791 210.073C567.468 201.277 571.41 193.749 576.618 187.489C581.825 181.096 588.364 176.172 596.235 172.716C604.239 169.26 613.575 167.539 624.241 167.554ZM621.414 190.95C612.747 190.938 606.409 194.996 602.399 203.124C598.523 211.119 596.577 222.25 596.56 236.516C596.552 243.316 596.945 249.517 597.738 255.118C598.665 260.719 600.126 265.588 602.121 269.724C604.25 273.727 607.113 276.864 610.71 279.136C614.307 281.407 618.839 282.547 624.306 282.554C632.973 282.566 639.244 278.708 643.12 270.98C646.995 263.252 648.942 252.254 648.958 237.988C648.966 231.188 648.507 224.92 647.581 219.186C646.787 213.451 645.326 208.516 643.198 204.38C641.203 200.11 638.407 196.84 634.81 194.568C631.212 192.163 626.747 190.957 621.414 190.95ZM787.256 169.576L783.028 193.77L751.828 193.728L751.697 304.928L718.697 304.883L718.828 193.683L686.628 193.639L686.656 169.439L787.256 169.576ZM826.909 169.63L856.309 169.67L905.75 305.137L872.35 305.092L862.388 272.478L818.588 272.419L808.15 305.004L775.35 304.96L826.909 169.63ZM855.017 248.068C853.688 244.2 852.293 240.198 850.831 236.062C849.503 231.794 848.174 227.659 846.846 223.657C845.65 219.655 844.522 215.92 843.459 212.452C842.397 208.851 841.467 205.85 840.67 203.448C839.867 205.981 838.93 209.046 837.859 212.645C836.788 216.11 835.584 219.842 834.246 223.84C833.041 227.838 831.703 231.903 830.231 236.034C828.893 240.166 827.555 244.164 826.217 248.029L855.017 248.068ZM917.992 169.754C919.192 169.755 921.592 169.759 925.192 169.763C928.792 169.635 932.792 169.574 937.192 169.58C941.592 169.586 945.859 169.592 949.992 169.597C954.126 169.469 957.326 169.407 959.593 169.41C976.659 169.433 989.455 172.718 997.981 179.262C1006.51 185.807 1010.76 195.48 1010.75 208.28C1010.74 216.813 1008.66 223.877 1004.52 229.471C1000.38 234.932 994.777 239.192 987.707 242.249C991.704 244.521 995.234 247.525 998.296 251.263C1001.36 255 1004.29 259.538 1007.08 264.875C1009.87 270.079 1012.67 276.083 1015.46 282.886C1018.38 289.69 1021.58 297.161 1025.03 305.299L989.633 305.251C985.377 295.912 981.787 287.707 978.862 280.637C975.937 273.433 973.21 267.429 970.683 262.625C968.155 257.689 965.626 254.019 963.096 251.615C960.699 249.079 957.767 247.808 954.3 247.803L950.9 247.799L950.833 305.198L917.833 305.154L917.992 169.754ZM950.924 227.199L959.324 227.21C963.991 227.216 967.926 225.822 971.129 223.026C974.466 220.097 976.138 215.566 976.145 209.433C976.148 206.899 975.818 204.566 975.154 202.431C974.623 200.164 973.692 198.229 972.36 196.628C971.029 194.893 969.164 193.557 966.765 192.62C964.5 191.55 961.7 191.013 958.367 191.009L950.967 190.999L950.924 227.199ZM1055.11 253.34L1013.4 169.883L1048.2 169.931L1072.14 221.763L1096.8 169.997L1131.2 170.044L1087.9 255.185L1087.85 305.385L1055.05 305.34L1055.11 253.34Z" fill="white"/>
</svg>
