<svg width="38" height="38" viewBox="0 0 38 38" fill="none" xmlns="http://www.w3.org/2000/svg">
<path d="M32.5759 8.36743L30.7309 9.47221C30.0578 9.97707 29.239 10.25 28.3976 10.25H21.8682C21.2354 10.2502 20.6182 10.4461 20.1011 10.8107C19.584 11.1754 19.1923 11.691 18.9796 12.2869C18.7669 12.8828 18.7436 13.5299 18.913 14.1396C19.0824 14.7493 19.4361 15.2917 19.9257 15.6925L23.8145 18.8736C25.3208 20.1059 26.4948 21.6954 27.2297 23.4974C27.9646 25.2994 28.2371 27.2566 28.0223 29.1908L27.9329 30.0016C27.8116 31.0903 27.5757 32.1631 27.229 33.2022L26.7779 34.5555M3.14404 14.1396L6.82399 15.0333C7.43472 14.9314 8.06096 14.9767 8.65062 15.1656C9.24029 15.3545 9.77632 15.6814 10.2141 16.1193C10.652 16.5571 10.9789 17.0931 11.1678 17.6828C11.3567 18.2725 11.402 18.8987 11.3001 19.5094L11.0376 21.0786C10.8107 22.4473 11.0281 23.8528 11.6579 25.089C12.2877 26.3252 13.2969 27.3273 14.5376 27.9483C15.5285 28.443 16.3208 29.2612 16.7833 30.2676C17.2458 31.2739 17.3508 32.408 17.0809 33.4822V36.8182" stroke="black" stroke-width="4"/>
<path d="M19 36.5C28.665 36.5 36.5 28.665 36.5 19C36.5 9.33501 28.665 1.5 19 1.5C9.33502 1.5 1.5 9.33501 1.5 19C1.5 28.665 9.33502 36.5 19 36.5Z" stroke="black" stroke-width="3"/>
</svg>
