<svg width="826" height="785" viewBox="0 0 826 785" fill="none" xmlns="http://www.w3.org/2000/svg">
<rect width="825" height="784" rx="45" fill="#1B1B1B"/>
<path d="M825.5 34.5V739C825.5 764.129 805.129 784.5 780 784.5H36.5V80L36.5146 78.8252C37.1378 54.2392 57.2638 34.5 82 34.5H825.5Z" fill="white" stroke="#EDEDEE"/>
<path d="M347.14 413H343.196V401.873H347.173C348.292 401.873 349.256 402.095 350.063 402.541C350.871 402.983 351.492 403.619 351.927 404.448C352.365 405.278 352.585 406.27 352.585 407.425C352.585 408.585 352.365 409.581 351.927 410.414C351.492 411.247 350.868 411.886 350.053 412.332C349.241 412.777 348.271 413 347.14 413ZM345.548 410.984H347.043C347.738 410.984 348.323 410.861 348.798 410.615C349.276 410.365 349.634 409.979 349.873 409.458C350.116 408.932 350.237 408.255 350.237 407.425C350.237 406.603 350.116 405.931 349.873 405.41C349.634 404.888 349.277 404.504 348.803 404.258C348.328 404.012 347.743 403.888 347.048 403.888H345.548V410.984ZM354.284 413V404.655H356.528V406.111H356.615C356.767 405.593 357.022 405.201 357.381 404.937C357.739 404.669 358.152 404.535 358.619 404.535C358.735 404.535 358.86 404.542 358.994 404.557C359.128 404.571 359.246 404.591 359.348 404.617V406.67C359.239 406.638 359.089 406.609 358.897 406.583C358.705 406.558 358.529 406.545 358.37 406.545C358.029 406.545 357.725 406.62 357.457 406.768C357.192 406.913 356.982 407.116 356.827 407.377C356.674 407.637 356.598 407.938 356.598 408.279V413H354.284ZM362.685 413.158C362.152 413.158 361.678 413.065 361.261 412.88C360.845 412.692 360.515 412.415 360.273 412.049C360.033 411.68 359.914 411.22 359.914 410.669C359.914 410.206 359.999 409.816 360.169 409.501C360.34 409.186 360.571 408.932 360.865 408.74C361.158 408.548 361.491 408.403 361.864 408.306C362.241 408.208 362.636 408.139 363.049 408.099C363.534 408.049 363.925 408.001 364.223 407.958C364.52 407.911 364.735 407.842 364.869 407.751C365.003 407.661 365.07 407.527 365.07 407.349V407.317C365.07 406.973 364.961 406.706 364.744 406.518C364.53 406.33 364.226 406.236 363.831 406.236C363.415 406.236 363.083 406.328 362.837 406.513C362.591 406.694 362.428 406.922 362.348 407.197L360.207 407.023C360.316 406.516 360.53 406.078 360.848 405.709C361.167 405.336 361.578 405.049 362.082 404.85C362.589 404.647 363.176 404.546 363.842 404.546C364.306 404.546 364.75 404.6 365.173 404.709C365.601 404.818 365.979 404.986 366.309 405.214C366.642 405.442 366.905 405.736 367.097 406.094C367.289 406.449 367.385 406.875 367.385 407.371V413H365.19V411.843H365.124C364.99 412.104 364.811 412.334 364.587 412.533C364.362 412.728 364.092 412.882 363.777 412.995C363.462 413.103 363.098 413.158 362.685 413.158ZM363.348 411.56C363.688 411.56 363.989 411.493 364.25 411.359C364.51 411.222 364.715 411.037 364.864 410.805C365.012 410.573 365.086 410.311 365.086 410.017V409.132C365.014 409.179 364.914 409.222 364.788 409.262C364.664 409.298 364.525 409.333 364.369 409.365C364.213 409.394 364.058 409.421 363.902 409.447C363.746 409.468 363.605 409.488 363.478 409.506C363.206 409.546 362.969 409.61 362.766 409.697C362.564 409.784 362.406 409.901 362.294 410.05C362.181 410.195 362.125 410.376 362.125 410.593C362.125 410.908 362.239 411.149 362.468 411.316C362.699 411.479 362.993 411.56 363.348 411.56ZM372.94 416.303C372.19 416.303 371.547 416.2 371.011 415.994C370.479 415.791 370.055 415.514 369.74 415.162C369.425 414.811 369.22 414.416 369.126 413.978L371.267 413.69C371.332 413.857 371.435 414.012 371.576 414.157C371.718 414.302 371.904 414.418 372.136 414.505C372.371 414.596 372.658 414.641 372.994 414.641C373.498 414.641 373.913 414.518 374.239 414.271C374.568 414.029 374.733 413.621 374.733 413.049V411.522H374.635C374.534 411.754 374.382 411.973 374.179 412.18C373.976 412.386 373.715 412.554 373.397 412.685C373.078 412.815 372.697 412.88 372.256 412.88C371.629 412.88 371.058 412.736 370.544 412.446C370.033 412.152 369.626 411.705 369.322 411.104C369.021 410.499 368.871 409.735 368.871 408.811C368.871 407.866 369.025 407.076 369.332 406.442C369.64 405.808 370.05 405.334 370.56 405.019C371.075 404.703 371.638 404.546 372.25 404.546C372.717 404.546 373.109 404.626 373.424 404.785C373.739 404.941 373.992 405.136 374.184 405.372C374.38 405.604 374.53 405.832 374.635 406.056H374.722V404.655H377.02V413.081C377.02 413.791 376.847 414.385 376.499 414.864C376.151 415.342 375.669 415.7 375.054 415.939C374.442 416.182 373.737 416.303 372.94 416.303ZM372.989 411.142C373.362 411.142 373.677 411.049 373.934 410.865C374.195 410.676 374.394 410.408 374.532 410.061C374.673 409.709 374.744 409.289 374.744 408.8C374.744 408.311 374.675 407.887 374.538 407.529C374.4 407.167 374.201 406.886 373.94 406.687C373.679 406.487 373.362 406.388 372.989 406.388C372.609 406.388 372.288 406.491 372.027 406.697C371.767 406.9 371.569 407.183 371.435 407.545C371.301 407.907 371.234 408.326 371.234 408.8C371.234 409.282 371.301 409.698 371.435 410.05C371.573 410.397 371.77 410.667 372.027 410.859C372.288 411.048 372.609 411.142 372.989 411.142ZM385.816 413.163C385.048 413.163 384.385 413.025 383.827 412.75C383.269 412.475 382.84 412.102 382.539 411.631C382.242 411.156 382.094 410.627 382.094 410.044C382.094 409.61 382.181 409.224 382.355 408.887C382.528 408.55 382.771 408.24 383.083 407.958C383.394 407.672 383.756 407.387 384.169 407.105L386.326 405.687C386.605 405.509 386.81 405.323 386.94 405.127C387.071 404.928 387.136 404.712 387.136 404.481C387.136 404.26 387.047 404.055 386.87 403.867C386.692 403.678 386.44 403.586 386.114 403.59C385.897 403.59 385.709 403.639 385.549 403.736C385.39 403.831 385.265 403.955 385.174 404.111C385.087 404.263 385.044 404.434 385.044 404.622C385.044 404.854 385.109 405.089 385.24 405.328C385.37 405.567 385.544 405.821 385.761 406.089C385.979 406.353 386.216 406.639 386.473 406.947L391.749 413H389.336L384.935 408.099C384.646 407.77 384.356 407.425 384.066 407.067C383.78 406.705 383.541 406.321 383.349 405.915C383.157 405.506 383.061 405.062 383.061 404.584C383.061 404.044 383.186 403.559 383.436 403.128C383.689 402.697 384.044 402.356 384.501 402.106C384.957 401.853 385.49 401.726 386.098 401.726C386.692 401.726 387.205 401.847 387.636 402.09C388.07 402.329 388.404 402.648 388.635 403.046C388.871 403.441 388.989 403.876 388.989 404.35C388.989 404.875 388.858 405.352 388.597 405.779C388.34 406.203 387.978 406.583 387.511 406.92L385.24 408.556C384.932 408.78 384.704 409.01 384.555 409.246C384.41 409.477 384.338 409.7 384.338 409.914C384.338 410.178 384.403 410.416 384.533 410.626C384.664 410.836 384.848 411.002 385.087 411.126C385.327 411.245 385.607 411.305 385.93 411.305C386.321 411.305 386.707 411.216 387.087 411.039C387.471 410.857 387.819 410.602 388.13 410.273C388.445 409.939 388.697 409.544 388.885 409.088C389.074 408.632 389.168 408.126 389.168 407.572H391.086C391.086 408.253 391.012 408.867 390.863 409.414C390.715 409.957 390.508 410.432 390.244 410.838C389.979 411.24 389.677 411.569 389.336 411.826C389.228 411.895 389.123 411.96 389.021 412.022C388.92 412.084 388.815 412.149 388.706 412.218C388.293 412.551 387.831 412.792 387.321 412.94C386.813 413.089 386.312 413.163 385.816 413.163ZM399.329 413.136C398.695 413.136 398.121 412.973 397.607 412.647C397.096 412.317 396.691 411.834 396.39 411.196C396.093 410.555 395.944 409.769 395.944 408.838C395.944 407.882 396.098 407.087 396.406 406.453C396.714 405.815 397.123 405.339 397.634 405.024C398.149 404.705 398.712 404.546 399.324 404.546C399.791 404.546 400.181 404.626 400.492 404.785C400.807 404.941 401.061 405.136 401.253 405.372C401.448 405.604 401.597 405.832 401.698 406.056H401.769V401.873H404.078V413H401.796V411.663H401.698C401.59 411.895 401.436 412.125 401.236 412.353C401.041 412.578 400.785 412.765 400.47 412.913C400.159 413.062 399.779 413.136 399.329 413.136ZM400.063 411.294C400.436 411.294 400.751 411.193 401.008 410.99C401.269 410.783 401.468 410.495 401.606 410.126C401.747 409.756 401.818 409.324 401.818 408.827C401.818 408.331 401.749 407.9 401.611 407.534C401.474 407.168 401.274 406.886 401.014 406.687C400.753 406.487 400.436 406.388 400.063 406.388C399.683 406.388 399.362 406.491 399.101 406.697C398.84 406.904 398.643 407.19 398.509 407.556C398.375 407.922 398.308 408.346 398.308 408.827C398.308 409.313 398.375 409.742 398.509 410.115C398.647 410.484 398.844 410.774 399.101 410.984C399.362 411.191 399.683 411.294 400.063 411.294ZM405.981 413V404.655H408.225V406.111H408.312C408.464 405.593 408.719 405.201 409.078 404.937C409.437 404.669 409.849 404.535 410.317 404.535C410.433 404.535 410.558 404.542 410.692 404.557C410.826 404.571 410.943 404.591 411.045 404.617V406.67C410.936 406.638 410.786 406.609 410.594 406.583C410.402 406.558 410.226 406.545 410.067 406.545C409.726 406.545 409.422 406.62 409.154 406.768C408.89 406.913 408.68 407.116 408.524 407.377C408.372 407.637 408.296 407.938 408.296 408.279V413H405.981ZM415.624 413.163C414.78 413.163 414.05 412.984 413.434 412.625C412.822 412.263 412.349 411.759 412.016 411.115C411.683 410.466 411.516 409.715 411.516 408.86C411.516 407.998 411.683 407.244 412.016 406.6C412.349 405.951 412.822 405.448 413.434 405.089C414.05 404.727 414.78 404.546 415.624 404.546C416.468 404.546 417.196 404.727 417.808 405.089C418.424 405.448 418.898 405.951 419.231 406.6C419.565 407.244 419.731 407.998 419.731 408.86C419.731 409.715 419.565 410.466 419.231 411.115C418.898 411.759 418.424 412.263 417.808 412.625C417.196 412.984 416.468 413.163 415.624 413.163ZM415.635 411.37C416.018 411.37 416.339 411.261 416.596 411.044C416.853 410.823 417.047 410.522 417.178 410.142C417.312 409.762 417.379 409.329 417.379 408.844C417.379 408.358 417.312 407.925 417.178 407.545C417.047 407.165 416.853 406.864 416.596 406.643C416.339 406.422 416.018 406.312 415.635 406.312C415.247 406.312 414.921 406.422 414.657 406.643C414.396 406.864 414.198 407.165 414.064 407.545C413.934 407.925 413.869 408.358 413.869 408.844C413.869 409.329 413.934 409.762 414.064 410.142C414.198 410.522 414.396 410.823 414.657 411.044C414.921 411.261 415.247 411.37 415.635 411.37ZM421.236 416.13V404.655H423.518V406.056H423.621C423.723 405.832 423.869 405.604 424.061 405.372C424.257 405.136 424.511 404.941 424.822 404.785C425.137 404.626 425.528 404.546 425.996 404.546C426.604 404.546 427.166 404.705 427.68 405.024C428.194 405.339 428.605 405.815 428.913 406.453C429.221 407.087 429.375 407.882 429.375 408.838C429.375 409.769 429.225 410.555 428.924 411.196C428.627 411.834 428.222 412.317 427.707 412.647C427.196 412.973 426.624 413.136 425.99 413.136C425.541 413.136 425.159 413.062 424.844 412.913C424.532 412.765 424.277 412.578 424.078 412.353C423.879 412.125 423.726 411.895 423.621 411.663H423.551V416.13H421.236ZM423.502 408.827C423.502 409.324 423.571 409.756 423.708 410.126C423.846 410.495 424.045 410.783 424.306 410.99C424.567 411.193 424.884 411.294 425.257 411.294C425.633 411.294 425.952 411.191 426.213 410.984C426.474 410.774 426.671 410.484 426.805 410.115C426.943 409.742 427.012 409.313 427.012 408.827C427.012 408.346 426.945 407.922 426.811 407.556C426.677 407.19 426.479 406.904 426.218 406.697C425.958 406.491 425.637 406.388 425.257 406.388C424.88 406.388 424.561 406.487 424.301 406.687C424.043 406.886 423.846 407.168 423.708 407.534C423.571 407.9 423.502 408.331 423.502 408.827ZM435.608 408.382C435.608 407.02 435.788 405.767 436.146 404.622C436.505 403.477 437.028 402.421 437.717 401.454H439.205C438.937 401.813 438.687 402.253 438.455 402.775C438.224 403.296 438.021 403.869 437.847 404.492C437.673 405.111 437.537 405.754 437.439 406.42C437.342 407.083 437.293 407.737 437.293 408.382C437.293 409.244 437.378 410.117 437.548 411.001C437.718 411.884 437.948 412.705 438.238 413.462C438.528 414.219 438.85 414.836 439.205 415.315H437.717C437.028 414.347 436.505 413.292 436.146 412.147C435.788 411.002 435.608 409.747 435.608 408.382ZM444.284 413.168C443.502 413.168 442.819 412.989 442.236 412.631C441.652 412.272 441.2 411.77 440.877 411.126C440.555 410.481 440.394 409.727 440.394 408.865C440.394 408 440.555 407.243 440.877 406.594C441.2 405.946 441.652 405.442 442.236 405.084C442.819 404.725 443.502 404.546 444.284 404.546C445.066 404.546 445.749 404.725 446.332 405.084C446.915 405.442 447.368 405.946 447.691 406.594C448.013 407.243 448.174 408 448.174 408.865C448.174 409.727 448.013 410.481 447.691 411.126C447.368 411.77 446.915 412.272 446.332 412.631C445.749 412.989 445.066 413.168 444.284 413.168ZM444.289 411.805C444.797 411.805 445.217 411.671 445.55 411.403C445.883 411.135 446.129 410.778 446.289 410.332C446.452 409.887 446.533 409.396 446.533 408.86C446.533 408.327 446.452 407.838 446.289 407.393C446.129 406.944 445.883 406.583 445.55 406.312C445.217 406.04 444.797 405.904 444.289 405.904C443.779 405.904 443.355 406.04 443.018 406.312C442.685 406.583 442.437 406.944 442.274 407.393C442.114 407.838 442.035 408.327 442.035 408.86C442.035 409.396 442.114 409.887 442.274 410.332C442.437 410.778 442.685 411.135 443.018 411.403C443.355 411.671 443.779 411.805 444.289 411.805ZM455.274 409.539V404.655H456.904V413H455.307V411.555H455.22C455.028 412 454.72 412.372 454.296 412.669C453.876 412.962 453.353 413.109 452.726 413.109C452.19 413.109 451.715 412.991 451.302 412.756C450.893 412.516 450.571 412.163 450.335 411.696C450.103 411.229 449.988 410.651 449.988 409.963V404.655H451.612V409.767C451.612 410.336 451.77 410.789 452.085 411.126C452.4 411.462 452.809 411.631 453.313 411.631C453.617 411.631 453.919 411.555 454.22 411.403C454.524 411.25 454.776 411.02 454.975 410.713C455.178 410.405 455.278 410.014 455.274 409.539ZM466.651 413.168C465.844 413.168 465.148 412.986 464.565 412.62C463.985 412.25 463.54 411.741 463.228 411.093C462.917 410.445 462.761 409.702 462.761 408.865C462.761 408.018 462.92 407.27 463.239 406.621C463.558 405.969 464.007 405.46 464.587 405.095C465.166 404.729 465.849 404.546 466.635 404.546C467.269 404.546 467.834 404.664 468.33 404.899C468.826 405.131 469.227 405.457 469.531 405.877C469.839 406.297 470.022 406.788 470.08 407.349H468.499C468.412 406.958 468.212 406.621 467.901 406.339C467.593 406.056 467.18 405.915 466.662 405.915C466.209 405.915 465.813 406.035 465.472 406.274C465.135 406.509 464.873 406.846 464.684 407.284C464.496 407.719 464.402 408.233 464.402 408.827C464.402 409.436 464.494 409.961 464.679 410.403C464.864 410.845 465.125 411.187 465.461 411.43C465.802 411.672 466.202 411.794 466.662 411.794C466.97 411.794 467.249 411.738 467.499 411.625C467.752 411.509 467.964 411.345 468.135 411.131C468.308 410.917 468.43 410.66 468.499 410.359H470.08C470.022 410.899 469.846 411.381 469.553 411.805C469.259 412.228 468.866 412.562 468.374 412.804C467.885 413.047 467.311 413.168 466.651 413.168ZM473.441 401.873V413H471.817V401.873H473.441ZM475.627 413V404.655H477.252V413H475.627ZM476.447 403.367C476.165 403.367 475.922 403.273 475.719 403.084C475.52 402.892 475.421 402.664 475.421 402.4C475.421 402.132 475.52 401.904 475.719 401.715C475.922 401.523 476.165 401.427 476.447 401.427C476.73 401.427 476.971 401.523 477.17 401.715C477.373 401.904 477.474 402.132 477.474 402.4C477.474 402.664 477.373 402.892 477.17 403.084C476.971 403.273 476.73 403.367 476.447 403.367ZM485.071 416.13V411.701H484.974C484.876 411.879 484.734 412.082 484.55 412.31C484.369 412.538 484.119 412.737 483.8 412.908C483.481 413.078 483.068 413.163 482.561 413.163C481.887 413.163 481.286 412.991 480.757 412.647C480.232 412.299 479.819 411.805 479.519 411.164C479.222 410.519 479.073 409.745 479.073 408.844C479.073 407.942 479.223 407.17 479.524 406.529C479.828 405.888 480.245 405.397 480.774 405.057C481.302 404.716 481.902 404.546 482.572 404.546C483.09 404.546 483.507 404.633 483.822 404.807C484.14 404.977 484.387 405.176 484.561 405.404C484.738 405.633 484.876 405.834 484.974 406.007H485.109V404.655H486.696V416.13H485.071ZM482.92 411.778C483.387 411.778 483.782 411.654 484.104 411.408C484.43 411.158 484.677 410.812 484.843 410.37C485.013 409.928 485.098 409.414 485.098 408.827C485.098 408.248 485.015 407.741 484.849 407.306C484.682 406.871 484.437 406.533 484.115 406.29C483.793 406.047 483.394 405.926 482.92 405.926C482.431 405.926 482.023 406.053 481.697 406.306C481.371 406.56 481.125 406.906 480.958 407.344C480.795 407.782 480.714 408.277 480.714 408.827C480.714 409.385 480.797 409.887 480.964 410.332C481.13 410.778 481.377 411.131 481.703 411.392C482.032 411.649 482.438 411.778 482.92 411.778ZM494.167 409.539V404.655H495.797V413H494.199V411.555H494.112C493.92 412 493.612 412.372 493.189 412.669C492.768 412.962 492.245 413.109 491.618 413.109C491.082 413.109 490.608 412.991 490.195 412.756C489.786 412.516 489.463 412.163 489.228 411.696C488.996 411.229 488.88 410.651 488.88 409.963V404.655H490.505V409.767C490.505 410.336 490.662 410.789 490.977 411.126C491.292 411.462 491.702 411.631 492.205 411.631C492.509 411.631 492.812 411.555 493.113 411.403C493.417 411.25 493.669 411.02 493.868 410.713C494.071 410.405 494.17 410.014 494.167 409.539ZM501.576 413.168C500.754 413.168 500.046 412.993 499.452 412.641C498.861 412.286 498.405 411.788 498.083 411.147C497.764 410.503 497.604 409.747 497.604 408.882C497.604 408.027 497.764 407.273 498.083 406.621C498.405 405.969 498.854 405.46 499.43 405.095C500.01 404.729 500.687 404.546 501.462 404.546C501.933 404.546 502.389 404.624 502.831 404.78C503.273 404.935 503.67 405.18 504.021 405.513C504.372 405.846 504.65 406.279 504.852 406.812C505.055 407.34 505.157 407.983 505.157 408.74V409.316H498.523V408.099H503.565C503.565 407.672 503.478 407.293 503.304 406.964C503.13 406.63 502.886 406.368 502.57 406.176C502.259 405.984 501.893 405.888 501.473 405.888C501.016 405.888 500.618 406 500.278 406.225C499.941 406.446 499.68 406.735 499.495 407.094C499.314 407.449 499.224 407.835 499.224 408.251V409.202C499.224 409.76 499.321 410.234 499.517 410.626C499.716 411.017 499.993 411.316 500.348 411.522C500.703 411.725 501.118 411.826 501.592 411.826C501.9 411.826 502.181 411.783 502.435 411.696C502.688 411.605 502.907 411.471 503.092 411.294C503.277 411.116 503.418 410.897 503.516 410.637L505.053 410.914C504.93 411.366 504.709 411.763 504.391 412.104C504.075 412.44 503.679 412.703 503.201 412.891C502.726 413.076 502.185 413.168 501.576 413.168ZM506.785 413V411.886L511.306 406.143V406.067H506.932V404.655H513.332V405.839L508.986 411.511V411.587H513.484V413H506.785ZM518.525 408.382C518.525 409.747 518.346 411.002 517.987 412.147C517.629 413.292 517.105 414.347 516.417 415.315H514.928C515.196 414.956 515.446 414.516 515.678 413.994C515.91 413.473 516.113 412.902 516.287 412.283C516.46 411.66 516.596 411.015 516.694 410.349C516.792 409.682 516.841 409.026 516.841 408.382C516.841 407.523 516.756 406.652 516.585 405.768C516.415 404.885 516.185 404.064 515.895 403.307C515.606 402.55 515.283 401.932 514.928 401.454H516.417C517.105 402.421 517.629 403.477 517.987 404.622C518.346 405.767 518.525 407.02 518.525 408.382ZM307.383 435V423.873H311.349C312.215 423.873 312.932 424.03 313.501 424.345C314.069 424.661 314.495 425.092 314.777 425.639C315.06 426.182 315.201 426.794 315.201 427.475C315.201 428.16 315.058 428.775 314.772 429.322C314.489 429.866 314.062 430.297 313.49 430.615C312.921 430.931 312.206 431.088 311.344 431.088H308.616V429.665H311.191C311.738 429.665 312.182 429.57 312.523 429.382C312.863 429.19 313.113 428.929 313.272 428.6C313.432 428.27 313.511 427.895 313.511 427.475C313.511 427.055 313.432 426.682 313.272 426.356C313.113 426.03 312.861 425.774 312.517 425.59C312.177 425.405 311.727 425.313 311.17 425.313H309.062V435H307.383ZM320.772 435H317.169V423.873H320.886C321.976 423.873 322.912 424.095 323.695 424.541C324.477 424.983 325.076 425.619 325.493 426.448C325.913 427.274 326.123 428.265 326.123 429.42C326.123 430.579 325.911 431.575 325.488 432.408C325.067 433.241 324.459 433.883 323.662 434.332C322.865 434.777 321.902 435 320.772 435ZM318.848 433.533H320.679C321.527 433.533 322.231 433.374 322.793 433.055C323.354 432.733 323.774 432.267 324.053 431.659C324.332 431.046 324.472 430.3 324.472 429.42C324.472 428.547 324.332 427.806 324.053 427.198C323.778 426.589 323.367 426.128 322.82 425.812C322.273 425.497 321.594 425.34 320.782 425.34H318.848V433.533ZM328.211 435V423.873H335.111V425.318H329.89V428.708H334.617V430.148H329.89V435H328.211ZM338.546 433.479L338.465 434.071C338.411 434.506 338.318 434.958 338.188 435.429C338.061 435.904 337.929 436.344 337.791 436.75C337.657 437.155 337.547 437.478 337.46 437.717H336.308C336.355 437.492 336.42 437.188 336.503 436.804C336.587 436.424 336.668 435.998 336.748 435.527C336.828 435.056 336.887 434.576 336.927 434.087L336.982 433.479H338.546ZM344.841 435V423.873H348.807C349.673 423.873 350.39 424.03 350.959 424.345C351.527 424.661 351.953 425.092 352.235 425.639C352.518 426.182 352.659 426.794 352.659 427.475C352.659 428.16 352.516 428.775 352.23 429.322C351.947 429.866 351.52 430.297 350.948 430.615C350.379 430.931 349.664 431.088 348.802 431.088H346.074V429.665H348.649C349.196 429.665 349.64 429.57 349.981 429.382C350.321 429.19 350.571 428.929 350.73 428.6C350.89 428.27 350.969 427.895 350.969 427.475C350.969 427.055 350.89 426.682 350.73 426.356C350.571 426.03 350.319 425.774 349.975 425.59C349.635 425.405 349.186 425.313 348.628 425.313H346.52V435H344.841ZM363.609 423.873V435H362.066L356.41 426.839H356.306V435H354.627V423.873H356.181L361.843 432.044H361.946V423.873H363.609ZM373.588 427.388C373.483 427.058 373.342 426.763 373.164 426.502C372.99 426.238 372.782 426.013 372.539 425.829C372.297 425.64 372.02 425.497 371.708 425.399C371.4 425.302 371.062 425.253 370.692 425.253C370.065 425.253 369.5 425.414 368.997 425.736C368.493 426.059 368.095 426.531 367.802 427.154C367.512 427.774 367.367 428.533 367.367 429.431C367.367 430.333 367.514 431.095 367.807 431.718C368.1 432.341 368.503 432.814 369.013 433.136C369.524 433.459 370.105 433.62 370.757 433.62C371.362 433.62 371.889 433.497 372.338 433.25C372.791 433.004 373.141 432.656 373.387 432.207C373.637 431.755 373.762 431.222 373.762 430.61L374.197 430.691H371.013V429.306H375.386V430.572C375.386 431.506 375.187 432.318 374.789 433.006C374.394 433.691 373.847 434.219 373.148 434.593C372.452 434.966 371.656 435.152 370.757 435.152C369.75 435.152 368.867 434.92 368.106 434.457C367.349 433.993 366.758 433.336 366.335 432.484C365.911 431.63 365.699 430.615 365.699 429.442C365.699 428.554 365.822 427.757 366.068 427.051C366.315 426.345 366.661 425.745 367.106 425.253C367.555 424.757 368.082 424.378 368.687 424.117C369.296 423.853 369.96 423.721 370.681 423.721C371.283 423.721 371.842 423.809 372.36 423.987C372.882 424.164 373.345 424.416 373.751 424.742C374.16 425.068 374.499 425.456 374.767 425.905C375.035 426.35 375.216 426.845 375.31 427.388H373.588ZM379.501 433.479L379.419 434.071C379.365 434.506 379.273 434.958 379.142 435.429C379.015 435.904 378.883 436.344 378.746 436.75C378.612 437.155 378.501 437.478 378.414 437.717H377.262C377.309 437.492 377.375 437.188 377.458 436.804C377.541 436.424 377.623 435.998 377.702 435.527C377.782 435.056 377.842 434.576 377.882 434.087L377.936 433.479H379.501ZM390.12 423.873H391.793V431.762C391.793 432.475 391.652 433.086 391.37 433.593C391.091 434.1 390.698 434.487 390.191 434.756C389.684 435.02 389.09 435.152 388.409 435.152C387.782 435.152 387.219 435.038 386.719 434.81C386.223 434.582 385.83 434.25 385.54 433.816C385.254 433.377 385.111 432.845 385.111 432.218H386.779C386.779 432.526 386.849 432.792 386.99 433.017C387.135 433.241 387.333 433.417 387.583 433.544C387.836 433.667 388.126 433.729 388.452 433.729C388.807 433.729 389.108 433.654 389.354 433.506C389.604 433.354 389.794 433.131 389.924 432.838C390.055 432.544 390.12 432.186 390.12 431.762V423.873ZM394.237 435V423.873H398.203C399.069 423.873 399.786 424.03 400.355 424.345C400.924 424.661 401.349 425.092 401.632 425.639C401.914 426.182 402.055 426.794 402.055 427.475C402.055 428.16 401.912 428.775 401.626 429.322C401.344 429.866 400.916 430.297 400.344 430.615C399.775 430.931 399.06 431.088 398.198 431.088H395.47V429.665H398.046C398.593 429.665 399.036 429.57 399.377 429.382C399.717 429.19 399.967 428.929 400.127 428.6C400.286 428.27 400.366 427.895 400.366 427.475C400.366 427.055 400.286 426.682 400.127 426.356C399.967 426.03 399.716 425.774 399.371 425.59C399.031 425.405 398.582 425.313 398.024 425.313H395.916V435H394.237ZM404.024 435V423.873H411V425.318H405.703V428.708H410.636V430.148H405.703V433.555H411.065V435H404.024ZM420.773 427.388C420.668 427.058 420.527 426.763 420.349 426.502C420.175 426.238 419.967 426.013 419.724 425.829C419.482 425.64 419.205 425.497 418.893 425.399C418.585 425.302 418.247 425.253 417.877 425.253C417.25 425.253 416.685 425.414 416.182 425.736C415.678 426.059 415.28 426.531 414.987 427.154C414.697 427.774 414.552 428.533 414.552 429.431C414.552 430.333 414.699 431.095 414.992 431.718C415.285 432.341 415.687 432.814 416.198 433.136C416.709 433.459 417.29 433.62 417.942 433.62C418.547 433.62 419.074 433.497 419.523 433.25C419.976 433.004 420.326 432.656 420.572 432.207C420.822 431.755 420.947 431.222 420.947 430.61L421.382 430.691H418.198V429.306H422.571V430.572C422.571 431.506 422.372 432.318 421.974 433.006C421.579 433.691 421.032 434.219 420.333 434.593C419.637 434.966 418.841 435.152 417.942 435.152C416.935 435.152 416.052 434.92 415.291 434.457C414.534 433.993 413.943 433.336 413.52 432.484C413.096 431.63 412.884 430.615 412.884 429.442C412.884 428.554 413.007 427.757 413.253 427.051C413.5 426.345 413.846 425.745 414.291 425.253C414.74 424.757 415.267 424.378 415.872 424.117C416.481 423.853 417.145 423.721 417.866 423.721C418.468 423.721 419.027 423.809 419.545 423.987C420.067 424.164 420.53 424.416 420.936 424.742C421.345 425.068 421.684 425.456 421.952 425.905C422.22 426.35 422.401 426.845 422.495 427.388H420.773ZM426.686 433.479L426.604 434.071C426.55 434.506 426.458 434.958 426.327 435.429C426.2 435.904 426.068 436.344 425.931 436.75C425.796 437.155 425.686 437.478 425.599 437.717H424.447C424.494 437.492 424.56 437.188 424.643 436.804C424.726 436.424 424.808 435.998 424.887 435.527C424.967 435.056 425.027 434.576 425.067 434.087L425.121 433.479H426.686ZM437.305 423.873H438.978V431.762C438.978 432.475 438.837 433.086 438.555 433.593C438.276 434.1 437.883 434.487 437.376 434.756C436.869 435.02 436.274 435.152 435.594 435.152C434.967 435.152 434.404 435.038 433.904 434.81C433.408 434.582 433.015 434.25 432.725 433.816C432.439 433.377 432.296 432.845 432.296 432.218H433.964C433.964 432.526 434.034 432.792 434.175 433.017C434.32 433.241 434.518 433.417 434.768 433.544C435.021 433.667 435.311 433.729 435.637 433.729C435.992 433.729 436.293 433.654 436.539 433.506C436.789 433.354 436.979 433.131 437.109 432.838C437.24 432.544 437.305 432.186 437.305 431.762V423.873ZM441.422 435V423.873H445.388C446.254 423.873 446.971 424.03 447.54 424.345C448.109 424.661 448.534 425.092 448.817 425.639C449.099 426.182 449.24 426.794 449.24 427.475C449.24 428.16 449.097 428.775 448.811 429.322C448.529 429.866 448.101 430.297 447.529 430.615C446.96 430.931 446.245 431.088 445.383 431.088H442.655V429.665H445.231C445.778 429.665 446.221 429.57 446.562 429.382C446.902 429.19 447.152 428.929 447.312 428.6C447.471 428.27 447.551 427.895 447.551 427.475C447.551 427.055 447.471 426.682 447.312 426.356C447.152 426.03 446.901 425.774 446.556 425.59C446.216 425.405 445.767 425.313 445.209 425.313H443.101V435H441.422ZM458.739 427.388C458.634 427.058 458.493 426.763 458.315 426.502C458.141 426.238 457.933 426.013 457.691 425.829C457.448 425.64 457.171 425.497 456.859 425.399C456.551 425.302 456.213 425.253 455.843 425.253C455.217 425.253 454.652 425.414 454.148 425.736C453.645 426.059 453.246 426.531 452.953 427.154C452.663 427.774 452.518 428.533 452.518 429.431C452.518 430.333 452.665 431.095 452.958 431.718C453.252 432.341 453.654 432.814 454.164 433.136C454.675 433.459 455.256 433.62 455.908 433.62C456.513 433.62 457.04 433.497 457.489 433.25C457.942 433.004 458.292 432.656 458.538 432.207C458.788 431.755 458.913 431.222 458.913 430.61L459.348 430.691H456.164V429.306H460.538V430.572C460.538 431.506 460.338 432.318 459.94 433.006C459.545 433.691 458.998 434.219 458.299 434.593C457.604 434.966 456.807 435.152 455.908 435.152C454.901 435.152 454.018 434.92 453.257 434.457C452.5 433.993 451.91 433.336 451.486 432.484C451.062 431.63 450.85 430.615 450.85 429.442C450.85 428.554 450.973 427.757 451.22 427.051C451.466 426.345 451.812 425.745 452.257 425.253C452.706 424.757 453.233 424.378 453.838 424.117C454.447 423.853 455.112 423.721 455.832 423.721C456.434 423.721 456.993 423.809 457.511 423.987C458.033 424.164 458.496 424.416 458.902 424.742C459.311 425.068 459.65 425.456 459.918 425.905C460.186 426.35 460.367 426.845 460.461 427.388H458.739ZM464.652 433.479L464.57 434.071C464.516 434.506 464.424 434.958 464.293 435.429C464.166 435.904 464.034 436.344 463.897 436.75C463.763 437.155 463.652 437.478 463.565 437.717H462.413C462.46 437.492 462.526 437.188 462.609 436.804C462.692 436.424 462.774 435.998 462.853 435.527C462.933 435.056 462.993 434.576 463.033 434.087L463.087 433.479H464.652ZM474.549 435H470.946V423.873H474.663C475.753 423.873 476.689 424.095 477.472 424.541C478.254 424.983 478.853 425.619 479.27 426.448C479.69 427.274 479.9 428.265 479.9 429.42C479.9 430.579 479.688 431.575 479.265 432.408C478.844 433.241 478.236 433.883 477.439 434.332C476.642 434.777 475.679 435 474.549 435ZM472.625 433.533H474.456C475.304 433.533 476.008 433.374 476.57 433.055C477.131 432.733 477.551 432.267 477.83 431.659C478.109 431.046 478.249 430.3 478.249 429.42C478.249 428.547 478.109 427.806 477.83 427.198C477.555 426.589 477.144 426.128 476.597 425.812C476.05 425.497 475.371 425.34 474.559 425.34H472.625V433.533ZM491.654 429.436C491.654 430.624 491.436 431.646 491.002 432.501C490.567 433.352 489.971 434.008 489.214 434.468C488.461 434.924 487.604 435.152 486.644 435.152C485.681 435.152 484.82 434.924 484.063 434.468C483.31 434.008 482.716 433.35 482.281 432.495C481.847 431.64 481.629 430.621 481.629 429.436C481.629 428.248 481.847 427.229 482.281 426.377C482.716 425.523 483.31 424.867 484.063 424.411C484.82 423.951 485.681 423.721 486.644 423.721C487.604 423.721 488.461 423.951 489.214 424.411C489.971 424.867 490.567 425.523 491.002 426.377C491.436 427.229 491.654 428.248 491.654 429.436ZM489.991 429.436C489.991 428.531 489.844 427.768 489.551 427.149C489.261 426.526 488.863 426.055 488.356 425.736C487.852 425.414 487.282 425.253 486.644 425.253C486.003 425.253 485.431 425.414 484.927 425.736C484.424 426.055 484.025 426.526 483.732 427.149C483.442 427.768 483.297 428.531 483.297 429.436C483.297 430.342 483.442 431.106 483.732 431.729C484.025 432.349 484.424 432.819 484.927 433.142C485.431 433.461 486.003 433.62 486.644 433.62C487.282 433.62 487.852 433.461 488.356 433.142C488.863 432.819 489.261 432.349 489.551 431.729C489.844 431.106 489.991 430.342 489.991 429.436ZM502.989 427.491H501.294C501.228 427.129 501.107 426.81 500.93 426.535C500.752 426.26 500.535 426.026 500.278 425.834C500.02 425.642 499.732 425.497 499.414 425.399C499.099 425.302 498.764 425.253 498.409 425.253C497.767 425.253 497.193 425.414 496.686 425.736C496.183 426.059 495.784 426.531 495.491 427.154C495.201 427.777 495.056 428.538 495.056 429.436C495.056 430.342 495.201 431.106 495.491 431.729C495.784 432.352 496.185 432.823 496.692 433.142C497.199 433.461 497.769 433.62 498.403 433.62C498.754 433.62 499.088 433.573 499.403 433.479C499.722 433.381 500.01 433.238 500.267 433.049C500.524 432.861 500.741 432.631 500.919 432.359C501.1 432.084 501.225 431.769 501.294 431.414L502.989 431.419C502.898 431.966 502.723 432.47 502.462 432.93C502.205 433.386 501.873 433.781 501.467 434.114C501.065 434.444 500.605 434.699 500.087 434.88C499.569 435.062 499.004 435.152 498.392 435.152C497.429 435.152 496.57 434.924 495.817 434.468C495.063 434.008 494.469 433.35 494.035 432.495C493.604 431.64 493.388 430.621 493.388 429.436C493.388 428.248 493.606 427.229 494.04 426.377C494.475 425.523 495.069 424.867 495.822 424.411C496.576 423.951 497.432 423.721 498.392 423.721C498.983 423.721 499.533 423.806 500.044 423.976C500.558 424.143 501.02 424.389 501.429 424.715C501.839 425.037 502.177 425.432 502.445 425.899C502.713 426.363 502.895 426.894 502.989 427.491ZM506.031 423.873L508.694 428.225H508.781L511.443 423.873H513.388L509.922 429.436L513.41 435H511.454L508.781 430.708H508.694L506.021 435H504.065L507.612 429.436L504.086 423.873H506.031ZM517.036 433.479L516.955 434.071C516.901 434.506 516.808 434.958 516.678 435.429C516.551 435.904 516.419 436.344 516.281 436.75C516.147 437.155 516.037 437.478 515.95 437.717H514.798C514.845 437.492 514.91 437.188 514.994 436.804C515.077 436.424 515.158 435.998 515.238 435.527C515.318 435.056 515.377 434.576 515.417 434.087L515.472 433.479H517.036ZM526.933 435H523.331V423.873H527.047C528.137 423.873 529.074 424.095 529.856 424.541C530.639 424.983 531.238 425.619 531.655 426.448C532.075 427.274 532.285 428.265 532.285 429.42C532.285 430.579 532.073 431.575 531.649 432.408C531.229 433.241 530.62 433.883 529.824 434.332C529.027 434.777 528.063 435 526.933 435ZM525.01 433.533H526.841C527.688 433.533 528.393 433.374 528.954 433.055C529.516 432.733 529.936 432.267 530.215 431.659C530.494 431.046 530.633 430.3 530.633 429.42C530.633 428.547 530.494 427.806 530.215 427.198C529.939 426.589 529.528 426.128 528.981 425.812C528.434 425.497 527.755 425.34 526.944 425.34H525.01V433.533ZM544.038 429.436C544.038 430.624 543.821 431.646 543.386 432.501C542.952 433.352 542.356 434.008 541.599 434.468C540.845 434.924 539.989 435.152 539.029 435.152C538.065 435.152 537.205 434.924 536.448 434.468C535.695 434.008 535.101 433.35 534.666 432.495C534.231 431.64 534.014 430.621 534.014 429.436C534.014 428.248 534.231 427.229 534.666 426.377C535.101 425.523 535.695 424.867 536.448 424.411C537.205 423.951 538.065 423.721 539.029 423.721C539.989 423.721 540.845 423.951 541.599 424.411C542.356 424.867 542.952 425.523 543.386 426.377C543.821 427.229 544.038 428.248 544.038 429.436ZM542.376 429.436C542.376 428.531 542.229 427.768 541.936 427.149C541.646 426.526 541.247 426.055 540.74 425.736C540.237 425.414 539.666 425.253 539.029 425.253C538.388 425.253 537.815 425.414 537.312 425.736C536.808 426.055 536.41 426.526 536.117 427.149C535.827 427.768 535.682 428.531 535.682 429.436C535.682 430.342 535.827 431.106 536.117 431.729C536.41 432.349 536.808 432.819 537.312 433.142C537.815 433.461 538.388 433.62 539.029 433.62C539.666 433.62 540.237 433.461 540.74 433.142C541.247 432.819 541.646 432.349 541.936 431.729C542.229 431.106 542.376 430.342 542.376 429.436ZM555.373 427.491H553.678C553.613 427.129 553.492 426.81 553.314 426.535C553.137 426.26 552.919 426.026 552.662 425.834C552.405 425.642 552.117 425.497 551.798 425.399C551.483 425.302 551.148 425.253 550.793 425.253C550.152 425.253 549.578 425.414 549.071 425.736C548.567 426.059 548.169 426.531 547.875 427.154C547.586 427.777 547.441 428.538 547.441 429.436C547.441 430.342 547.586 431.106 547.875 431.729C548.169 432.352 548.569 432.823 549.076 433.142C549.583 433.461 550.154 433.62 550.788 433.62C551.139 433.62 551.472 433.573 551.787 433.479C552.106 433.381 552.394 433.238 552.651 433.049C552.908 432.861 553.126 432.631 553.303 432.359C553.484 432.084 553.609 431.769 553.678 431.414L555.373 431.419C555.283 431.966 555.107 432.47 554.846 432.93C554.589 433.386 554.258 433.781 553.852 434.114C553.45 434.444 552.99 434.699 552.472 434.88C551.954 435.062 551.389 435.152 550.777 435.152C549.813 435.152 548.955 434.924 548.201 434.468C547.448 434.008 546.854 433.35 546.419 432.495C545.988 431.64 545.773 430.621 545.773 429.436C545.773 428.248 545.99 427.229 546.425 426.377C546.859 425.523 547.454 424.867 548.207 424.411C548.96 423.951 549.817 423.721 550.777 423.721C551.367 423.721 551.918 423.806 552.429 423.976C552.943 424.143 553.405 424.389 553.814 424.715C554.223 425.037 554.562 425.432 554.83 425.899C555.098 426.363 555.279 426.894 555.373 427.491Z" fill="black" fill-opacity="0.5"/>
<rect x="397" y="304" width="68" height="68" rx="34" stroke="black" stroke-opacity="0.1" stroke-width="2"/>
<path d="M434.25 343.677H438.109C440.902 343.677 443.188 342.193 443.188 339.431C443.188 336.669 440.496 335.294 438.312 335.186C437.861 330.867 434.707 328.239 431 328.239C427.496 328.239 425.239 330.565 424.5 332.871C421.453 333.16 418.812 335.099 418.812 338.274C418.812 341.448 421.555 343.677 424.906 343.677H427.75" stroke="black" stroke-width="1.625" stroke-linecap="round" stroke-linejoin="round"/>
<path d="M434.25 337.989L431 334.739L427.75 337.989M431 347.761V335.552" stroke="black" stroke-width="1.625" stroke-linecap="round" stroke-linejoin="round"/>
<path d="M102.245 112.57V127.69C102.245 129.347 102.677 130.618 103.54 131.505C104.403 132.368 105.617 132.8 107.18 132.8C108.767 132.8 109.992 132.368 110.855 131.505C111.718 130.618 112.15 129.347 112.15 127.69V112.57H117.085V127.655C117.085 129.732 116.63 131.493 115.72 132.94C114.833 134.363 113.632 135.437 112.115 136.16C110.622 136.883 108.953 137.245 107.11 137.245C105.29 137.245 103.633 136.883 102.14 136.16C100.67 135.437 99.5033 134.363 98.64 132.94C97.7767 131.493 97.345 129.732 97.345 127.655V112.57H102.245ZM127.719 120.41C128.349 119.523 129.213 118.788 130.309 118.205C131.429 117.598 132.701 117.295 134.124 117.295C135.781 117.295 137.274 117.703 138.604 118.52C139.958 119.337 141.019 120.503 141.789 122.02C142.583 123.513 142.979 125.252 142.979 127.235C142.979 129.218 142.583 130.98 141.789 132.52C141.019 134.037 139.958 135.215 138.604 136.055C137.274 136.895 135.781 137.315 134.124 137.315C132.701 137.315 131.441 137.023 130.344 136.44C129.271 135.857 128.396 135.122 127.719 134.235V146.24H122.819V117.61H127.719V120.41ZM137.974 127.235C137.974 126.068 137.729 125.065 137.239 124.225C136.773 123.362 136.143 122.708 135.349 122.265C134.579 121.822 133.739 121.6 132.829 121.6C131.943 121.6 131.103 121.833 130.309 122.3C129.539 122.743 128.909 123.397 128.419 124.26C127.953 125.123 127.719 126.138 127.719 127.305C127.719 128.472 127.953 129.487 128.419 130.35C128.909 131.213 129.539 131.878 130.309 132.345C131.103 132.788 131.943 133.01 132.829 133.01C133.739 133.01 134.579 132.777 135.349 132.31C136.143 131.843 136.773 131.178 137.239 130.315C137.729 129.452 137.974 128.425 137.974 127.235ZM152.44 111.1V137H147.54V111.1H152.44ZM166.891 137.315C165.025 137.315 163.345 136.907 161.851 136.09C160.358 135.25 159.18 134.072 158.316 132.555C157.476 131.038 157.056 129.288 157.056 127.305C157.056 125.322 157.488 123.572 158.351 122.055C159.238 120.538 160.44 119.372 161.956 118.555C163.473 117.715 165.165 117.295 167.031 117.295C168.898 117.295 170.59 117.715 172.106 118.555C173.623 119.372 174.813 120.538 175.676 122.055C176.563 123.572 177.006 125.322 177.006 127.305C177.006 129.288 176.551 131.038 175.641 132.555C174.755 134.072 173.541 135.25 172.001 136.09C170.485 136.907 168.781 137.315 166.891 137.315ZM166.891 133.045C167.778 133.045 168.606 132.835 169.376 132.415C170.17 131.972 170.8 131.318 171.266 130.455C171.733 129.592 171.966 128.542 171.966 127.305C171.966 125.462 171.476 124.05 170.496 123.07C169.54 122.067 168.361 121.565 166.961 121.565C165.561 121.565 164.383 122.067 163.426 123.07C162.493 124.05 162.026 125.462 162.026 127.305C162.026 129.148 162.481 130.572 163.391 131.575C164.325 132.555 165.491 133.045 166.891 133.045ZM180.341 127.235C180.341 125.275 180.726 123.537 181.496 122.02C182.289 120.503 183.351 119.337 184.681 118.52C186.034 117.703 187.539 117.295 189.196 117.295C190.642 117.295 191.902 117.587 192.976 118.17C194.072 118.753 194.947 119.488 195.601 120.375V117.61H200.536V137H195.601V134.165C194.971 135.075 194.096 135.833 192.976 136.44C191.879 137.023 190.607 137.315 189.161 137.315C187.527 137.315 186.034 136.895 184.681 136.055C183.351 135.215 182.289 134.037 181.496 132.52C180.726 130.98 180.341 129.218 180.341 127.235ZM195.601 127.305C195.601 126.115 195.367 125.1 194.901 124.26C194.434 123.397 193.804 122.743 193.011 122.3C192.217 121.833 191.366 121.6 190.456 121.6C189.546 121.6 188.706 121.822 187.936 122.265C187.166 122.708 186.536 123.362 186.046 124.225C185.579 125.065 185.346 126.068 185.346 127.235C185.346 128.402 185.579 129.428 186.046 130.315C186.536 131.178 187.166 131.843 187.936 132.31C188.729 132.777 189.569 133.01 190.456 133.01C191.366 133.01 192.217 132.788 193.011 132.345C193.804 131.878 194.434 131.225 194.901 130.385C195.367 129.522 195.601 128.495 195.601 127.305ZM205.061 127.235C205.061 125.275 205.446 123.537 206.216 122.02C207.01 120.503 208.083 119.337 209.436 118.52C210.79 117.703 212.295 117.295 213.951 117.295C215.211 117.295 216.413 117.575 217.556 118.135C218.7 118.672 219.61 119.395 220.286 120.305V111.1H225.256V137H220.286V134.13C219.68 135.087 218.828 135.857 217.731 136.44C216.635 137.023 215.363 137.315 213.916 137.315C212.283 137.315 210.79 136.895 209.436 136.055C208.083 135.215 207.01 134.037 206.216 132.52C205.446 130.98 205.061 129.218 205.061 127.235ZM220.321 127.305C220.321 126.115 220.088 125.1 219.621 124.26C219.155 123.397 218.525 122.743 217.731 122.3C216.938 121.833 216.086 121.6 215.176 121.6C214.266 121.6 213.426 121.822 212.656 122.265C211.886 122.708 211.256 123.362 210.766 124.225C210.3 125.065 210.066 126.068 210.066 127.235C210.066 128.402 210.3 129.428 210.766 130.315C211.256 131.178 211.886 131.843 212.656 132.31C213.45 132.777 214.29 133.01 215.176 133.01C216.086 133.01 216.938 132.788 217.731 132.345C218.525 131.878 219.155 131.225 219.621 130.385C220.088 129.522 220.321 128.495 220.321 127.305ZM258.932 117.61L246.927 146.17H241.712L245.912 136.51L238.142 117.61H243.637L248.642 131.155L253.717 117.61H258.932ZM271.183 137.315C269.317 137.315 267.637 136.907 266.143 136.09C264.65 135.25 263.472 134.072 262.608 132.555C261.768 131.038 261.348 129.288 261.348 127.305C261.348 125.322 261.78 123.572 262.643 122.055C263.53 120.538 264.732 119.372 266.248 118.555C267.765 117.715 269.457 117.295 271.323 117.295C273.19 117.295 274.882 117.715 276.398 118.555C277.915 119.372 279.105 120.538 279.968 122.055C280.855 123.572 281.298 125.322 281.298 127.305C281.298 129.288 280.843 131.038 279.933 132.555C279.047 134.072 277.833 135.25 276.293 136.09C274.777 136.907 273.073 137.315 271.183 137.315ZM271.183 133.045C272.07 133.045 272.898 132.835 273.668 132.415C274.462 131.972 275.092 131.318 275.558 130.455C276.025 129.592 276.258 128.542 276.258 127.305C276.258 125.462 275.768 124.05 274.788 123.07C273.832 122.067 272.653 121.565 271.253 121.565C269.853 121.565 268.675 122.067 267.718 123.07C266.785 124.05 266.318 125.462 266.318 127.305C266.318 129.148 266.773 130.572 267.683 131.575C268.617 132.555 269.783 133.045 271.183 133.045ZM304.198 117.61V137H299.263V134.55C298.633 135.39 297.804 136.055 296.778 136.545C295.774 137.012 294.678 137.245 293.488 137.245C291.971 137.245 290.629 136.93 289.463 136.3C288.296 135.647 287.374 134.702 286.698 133.465C286.044 132.205 285.718 130.712 285.718 128.985V117.61H290.618V128.285C290.618 129.825 291.003 131.015 291.773 131.855C292.543 132.672 293.593 133.08 294.923 133.08C296.276 133.08 297.338 132.672 298.108 131.855C298.878 131.015 299.263 129.825 299.263 128.285V117.61H304.198ZM314.932 120.62C315.562 119.593 316.379 118.788 317.382 118.205C318.409 117.622 319.576 117.33 320.882 117.33V122.475H319.587C318.047 122.475 316.881 122.837 316.087 123.56C315.317 124.283 314.932 125.543 314.932 127.34V137H310.032V117.61H314.932V120.62ZM333.262 127.235C333.262 125.275 333.647 123.537 334.417 122.02C335.211 120.503 336.284 119.337 337.637 118.52C338.991 117.703 340.496 117.295 342.152 117.295C343.412 117.295 344.614 117.575 345.757 118.135C346.901 118.672 347.811 119.395 348.487 120.305V111.1H353.457V137H348.487V134.13C347.881 135.087 347.029 135.857 345.932 136.44C344.836 137.023 343.564 137.315 342.117 137.315C340.484 137.315 338.991 136.895 337.637 136.055C336.284 135.215 335.211 134.037 334.417 132.52C333.647 130.98 333.262 129.218 333.262 127.235ZM348.522 127.305C348.522 126.115 348.289 125.1 347.822 124.26C347.356 123.397 346.726 122.743 345.932 122.3C345.139 121.833 344.287 121.6 343.377 121.6C342.467 121.6 341.627 121.822 340.857 122.265C340.087 122.708 339.457 123.362 338.967 124.225C338.501 125.065 338.267 126.068 338.267 127.235C338.267 128.402 338.501 129.428 338.967 130.315C339.457 131.178 340.087 131.843 340.857 132.31C341.651 132.777 342.491 133.01 343.377 133.01C344.287 133.01 345.139 132.788 345.932 132.345C346.726 131.878 347.356 131.225 347.822 130.385C348.289 129.522 348.522 128.495 348.522 127.305ZM367.853 137.315C365.986 137.315 364.306 136.907 362.813 136.09C361.32 135.25 360.141 134.072 359.278 132.555C358.438 131.038 358.018 129.288 358.018 127.305C358.018 125.322 358.45 123.572 359.313 122.055C360.2 120.538 361.401 119.372 362.918 118.555C364.435 117.715 366.126 117.295 367.993 117.295C369.86 117.295 371.551 117.715 373.068 118.555C374.585 119.372 375.775 120.538 376.638 122.055C377.525 123.572 377.968 125.322 377.968 127.305C377.968 129.288 377.513 131.038 376.603 132.555C375.716 134.072 374.503 135.25 372.963 136.09C371.446 136.907 369.743 137.315 367.853 137.315ZM367.853 133.045C368.74 133.045 369.568 132.835 370.338 132.415C371.131 131.972 371.761 131.318 372.228 130.455C372.695 129.592 372.928 128.542 372.928 127.305C372.928 125.462 372.438 124.05 371.458 123.07C370.501 122.067 369.323 121.565 367.923 121.565C366.523 121.565 365.345 122.067 364.388 123.07C363.455 124.05 362.988 125.462 362.988 127.305C362.988 129.148 363.443 130.572 364.353 131.575C365.286 132.555 366.453 133.045 367.853 133.045ZM381.302 127.305C381.302 125.298 381.711 123.548 382.527 122.055C383.344 120.538 384.476 119.372 385.922 118.555C387.369 117.715 389.026 117.295 390.892 117.295C393.296 117.295 395.279 117.902 396.842 119.115C398.429 120.305 399.491 121.985 400.027 124.155H394.742C394.462 123.315 393.984 122.662 393.307 122.195C392.654 121.705 391.837 121.46 390.857 121.46C389.457 121.46 388.349 121.973 387.532 123C386.716 124.003 386.307 125.438 386.307 127.305C386.307 129.148 386.716 130.583 387.532 131.61C388.349 132.613 389.457 133.115 390.857 133.115C392.841 133.115 394.136 132.228 394.742 130.455H400.027C399.491 132.555 398.429 134.223 396.842 135.46C395.256 136.697 393.272 137.315 390.892 137.315C389.026 137.315 387.369 136.907 385.922 136.09C384.476 135.25 383.344 134.083 382.527 132.59C381.711 131.073 381.302 129.312 381.302 127.305ZM422.922 117.61V137H417.987V134.55C417.357 135.39 416.529 136.055 415.502 136.545C414.499 137.012 413.402 137.245 412.212 137.245C410.695 137.245 409.354 136.93 408.187 136.3C407.02 135.647 406.099 134.702 405.422 133.465C404.769 132.205 404.442 130.712 404.442 128.985V117.61H409.342V128.285C409.342 129.825 409.727 131.015 410.497 131.855C411.267 132.672 412.317 133.08 413.647 133.08C415 133.08 416.062 132.672 416.832 131.855C417.602 131.015 417.987 129.825 417.987 128.285V117.61H422.922ZM452.837 117.33C455.217 117.33 457.13 118.065 458.577 119.535C460.047 120.982 460.782 123.012 460.782 125.625V137H455.882V126.29C455.882 124.773 455.497 123.618 454.727 122.825C453.957 122.008 452.907 121.6 451.577 121.6C450.247 121.6 449.185 122.008 448.392 122.825C447.622 123.618 447.237 124.773 447.237 126.29V137H442.337V126.29C442.337 124.773 441.952 123.618 441.182 122.825C440.412 122.008 439.362 121.6 438.032 121.6C436.678 121.6 435.605 122.008 434.812 122.825C434.042 123.618 433.657 124.773 433.657 126.29V137H428.757V117.61H433.657V119.955C434.287 119.138 435.092 118.497 436.072 118.03C437.075 117.563 438.172 117.33 439.362 117.33C440.878 117.33 442.232 117.657 443.422 118.31C444.612 118.94 445.533 119.85 446.187 121.04C446.817 119.92 447.727 119.022 448.917 118.345C450.13 117.668 451.437 117.33 452.837 117.33ZM484.457 126.885C484.457 127.585 484.41 128.215 484.317 128.775H470.142C470.258 130.175 470.748 131.272 471.612 132.065C472.475 132.858 473.537 133.255 474.797 133.255C476.617 133.255 477.912 132.473 478.682 130.91H483.967C483.407 132.777 482.333 134.317 480.747 135.53C479.16 136.72 477.212 137.315 474.902 137.315C473.035 137.315 471.355 136.907 469.862 136.09C468.392 135.25 467.237 134.072 466.397 132.555C465.58 131.038 465.172 129.288 465.172 127.305C465.172 125.298 465.58 123.537 466.397 122.02C467.213 120.503 468.357 119.337 469.827 118.52C471.297 117.703 472.988 117.295 474.902 117.295C476.745 117.295 478.39 117.692 479.837 118.485C481.307 119.278 482.438 120.41 483.232 121.88C484.048 123.327 484.457 124.995 484.457 126.885ZM479.382 125.485C479.358 124.225 478.903 123.222 478.017 122.475C477.13 121.705 476.045 121.32 474.762 121.32C473.548 121.32 472.522 121.693 471.682 122.44C470.865 123.163 470.363 124.178 470.177 125.485H479.382ZM499.778 117.33C502.088 117.33 503.955 118.065 505.378 119.535C506.801 120.982 507.513 123.012 507.513 125.625V137H502.613V126.29C502.613 124.75 502.228 123.572 501.458 122.755C500.688 121.915 499.638 121.495 498.308 121.495C496.955 121.495 495.881 121.915 495.088 122.755C494.318 123.572 493.933 124.75 493.933 126.29V137H489.033V117.61H493.933V120.025C494.586 119.185 495.415 118.532 496.418 118.065C497.445 117.575 498.565 117.33 499.778 117.33ZM518.878 121.635V131.015C518.878 131.668 519.029 132.147 519.333 132.45C519.659 132.73 520.196 132.87 520.943 132.87H523.218V137H520.138C516.008 137 513.943 134.993 513.943 130.98V121.635H511.633V117.61H513.943V112.815H518.878V117.61H523.218V121.635H518.878ZM535.162 137.315C533.575 137.315 532.152 137.035 530.892 136.475C529.632 135.892 528.629 135.11 527.882 134.13C527.159 133.15 526.762 132.065 526.692 130.875H531.627C531.72 131.622 532.082 132.24 532.712 132.73C533.365 133.22 534.17 133.465 535.127 133.465C536.06 133.465 536.784 133.278 537.297 132.905C537.834 132.532 538.102 132.053 538.102 131.47C538.102 130.84 537.775 130.373 537.122 130.07C536.492 129.743 535.477 129.393 534.077 129.02C532.63 128.67 531.44 128.308 530.507 127.935C529.597 127.562 528.804 126.99 528.127 126.22C527.474 125.45 527.147 124.412 527.147 123.105C527.147 122.032 527.45 121.052 528.057 120.165C528.687 119.278 529.574 118.578 530.717 118.065C531.884 117.552 533.249 117.295 534.812 117.295C537.122 117.295 538.965 117.878 540.342 119.045C541.719 120.188 542.477 121.74 542.617 123.7H537.927C537.857 122.93 537.53 122.323 536.947 121.88C536.387 121.413 535.629 121.18 534.672 121.18C533.785 121.18 533.097 121.343 532.607 121.67C532.14 121.997 531.907 122.452 531.907 123.035C531.907 123.688 532.234 124.19 532.887 124.54C533.54 124.867 534.555 125.205 535.932 125.555C537.332 125.905 538.487 126.267 539.397 126.64C540.307 127.013 541.089 127.597 541.742 128.39C542.419 129.16 542.769 130.187 542.792 131.47C542.792 132.59 542.477 133.593 541.847 134.48C541.24 135.367 540.354 136.067 539.187 136.58C538.044 137.07 536.702 137.315 535.162 137.315Z" fill="black"/>
<rect x="605" y="688" width="172" height="56" rx="28" fill="black"/>
<path d="M645.617 716.02C645.617 714.66 645.93 713.44 646.557 712.36C647.197 711.28 648.057 710.44 649.137 709.84C650.23 709.227 651.424 708.92 652.717 708.92C654.197 708.92 655.51 709.287 656.657 710.02C657.817 710.74 658.657 711.767 659.177 713.1H656.437C656.077 712.367 655.577 711.82 654.937 711.46C654.297 711.1 653.557 710.92 652.717 710.92C651.797 710.92 650.977 711.127 650.257 711.54C649.537 711.953 648.97 712.547 648.557 713.32C648.157 714.093 647.957 714.993 647.957 716.02C647.957 717.047 648.157 717.947 648.557 718.72C648.97 719.493 649.537 720.093 650.257 720.52C650.977 720.933 651.797 721.14 652.717 721.14C653.557 721.14 654.297 720.96 654.937 720.6C655.577 720.24 656.077 719.693 656.437 718.96H659.177C658.657 720.293 657.817 721.32 656.657 722.04C655.51 722.76 654.197 723.12 652.717 723.12C651.41 723.12 650.217 722.82 649.137 722.22C648.057 721.607 647.197 720.76 646.557 719.68C645.93 718.6 645.617 717.38 645.617 716.02ZM666.626 723.18C665.586 723.18 664.646 722.947 663.806 722.48C662.966 722 662.306 721.333 661.826 720.48C661.346 719.613 661.106 718.613 661.106 717.48C661.106 716.36 661.352 715.367 661.846 714.5C662.339 713.633 663.012 712.967 663.866 712.5C664.719 712.033 665.672 711.8 666.726 711.8C667.779 711.8 668.732 712.033 669.586 712.5C670.439 712.967 671.112 713.633 671.606 714.5C672.099 715.367 672.346 716.36 672.346 717.48C672.346 718.6 672.092 719.593 671.586 720.46C671.079 721.327 670.386 722 669.506 722.48C668.639 722.947 667.679 723.18 666.626 723.18ZM666.626 721.2C667.212 721.2 667.759 721.06 668.266 720.78C668.786 720.5 669.206 720.08 669.526 719.52C669.846 718.96 670.006 718.28 670.006 717.48C670.006 716.68 669.852 716.007 669.546 715.46C669.239 714.9 668.832 714.48 668.326 714.2C667.819 713.92 667.272 713.78 666.686 713.78C666.099 713.78 665.552 713.92 665.046 714.2C664.552 714.48 664.159 714.9 663.866 715.46C663.572 716.007 663.426 716.68 663.426 717.48C663.426 718.667 663.726 719.587 664.326 720.24C664.939 720.88 665.706 721.2 666.626 721.2ZM680.16 711.8C681.026 711.8 681.8 711.98 682.48 712.34C683.173 712.7 683.713 713.233 684.1 713.94C684.486 714.647 684.68 715.5 684.68 716.5V723H682.42V716.84C682.42 715.853 682.173 715.1 681.68 714.58C681.186 714.047 680.513 713.78 679.66 713.78C678.806 713.78 678.126 714.047 677.62 714.58C677.126 715.1 676.88 715.853 676.88 716.84V723H674.6V711.98H676.88V713.24C677.253 712.787 677.726 712.433 678.3 712.18C678.886 711.927 679.506 711.8 680.16 711.8ZM690.248 713.84V719.94C690.248 720.353 690.341 720.653 690.528 720.84C690.728 721.013 691.061 721.1 691.528 721.1H692.928V723H691.128C690.101 723 689.315 722.76 688.768 722.28C688.221 721.8 687.948 721.02 687.948 719.94V713.84H686.648V711.98H687.948V709.24H690.248V711.98H692.928V713.84H690.248ZM696.189 710.52C695.776 710.52 695.429 710.38 695.149 710.1C694.869 709.82 694.729 709.473 694.729 709.06C694.729 708.647 694.869 708.3 695.149 708.02C695.429 707.74 695.776 707.6 696.189 707.6C696.589 707.6 696.929 707.74 697.209 708.02C697.489 708.3 697.629 708.647 697.629 709.06C697.629 709.473 697.489 709.82 697.209 710.1C696.929 710.38 696.589 710.52 696.189 710.52ZM697.309 711.98V723H695.029V711.98H697.309ZM705.863 711.8C706.729 711.8 707.503 711.98 708.183 712.34C708.876 712.7 709.416 713.233 709.803 713.94C710.189 714.647 710.383 715.5 710.383 716.5V723H708.123V716.84C708.123 715.853 707.876 715.1 707.383 714.58C706.889 714.047 706.216 713.78 705.363 713.78C704.509 713.78 703.829 714.047 703.323 714.58C702.829 715.1 702.583 715.853 702.583 716.84V723H700.303V711.98H702.583V713.24C702.956 712.787 703.429 712.433 704.003 712.18C704.589 711.927 705.209 711.8 705.863 711.8ZM723.271 711.98V723H720.991V721.7C720.631 722.153 720.158 722.513 719.571 722.78C718.998 723.033 718.384 723.16 717.731 723.16C716.864 723.16 716.084 722.98 715.391 722.62C714.711 722.26 714.171 721.727 713.771 721.02C713.384 720.313 713.191 719.46 713.191 718.46V711.98H715.451V718.12C715.451 719.107 715.698 719.867 716.191 720.4C716.684 720.92 717.358 721.18 718.211 721.18C719.064 721.18 719.738 720.92 720.231 720.4C720.738 719.867 720.991 719.107 720.991 718.12V711.98H723.271ZM736.379 717.22C736.379 717.633 736.353 718.007 736.299 718.34H727.879C727.946 719.22 728.273 719.927 728.859 720.46C729.446 720.993 730.166 721.26 731.019 721.26C732.246 721.26 733.113 720.747 733.619 719.72H736.079C735.746 720.733 735.139 721.567 734.259 722.22C733.393 722.86 732.313 723.18 731.019 723.18C729.966 723.18 729.019 722.947 728.179 722.48C727.353 722 726.699 721.333 726.219 720.48C725.753 719.613 725.519 718.613 725.519 717.48C725.519 716.347 725.746 715.353 726.199 714.5C726.666 713.633 727.313 712.967 728.139 712.5C728.979 712.033 729.939 711.8 731.019 711.8C732.059 711.8 732.986 712.027 733.799 712.48C734.613 712.933 735.246 713.573 735.699 714.4C736.153 715.213 736.379 716.153 736.379 717.22ZM733.999 716.5C733.986 715.66 733.686 714.987 733.099 714.48C732.513 713.973 731.786 713.72 730.919 713.72C730.133 713.72 729.459 713.973 728.899 714.48C728.339 714.973 728.006 715.647 727.899 716.5H733.999Z" fill="white"/>
<rect x="95" y="503" width="672" height="64" rx="8" fill="#F9F9F9"/>
<rect x="95.5" y="503.5" width="671" height="63" rx="7.5" stroke="#040404" stroke-opacity="0.07"/>
<path d="M145.222 540.369C144.738 540.369 144.3 540.28 143.909 540.101C143.518 539.918 143.208 539.655 142.979 539.31C142.754 538.966 142.641 538.543 142.641 538.043C142.641 537.612 142.724 537.257 142.89 536.979C143.056 536.7 143.279 536.48 143.561 536.317C143.843 536.155 144.158 536.032 144.506 535.949C144.854 535.867 145.208 535.804 145.57 535.761C146.027 535.708 146.398 535.664 146.683 535.631C146.968 535.595 147.175 535.537 147.305 535.457C147.434 535.378 147.499 535.248 147.499 535.07V535.035C147.499 534.601 147.376 534.264 147.131 534.025C146.889 533.787 146.527 533.668 146.047 533.668C145.546 533.668 145.152 533.779 144.864 534.001C144.579 534.219 144.381 534.463 144.272 534.731L142.875 534.413C143.041 533.949 143.283 533.575 143.601 533.29C143.922 533.001 144.292 532.793 144.71 532.663C145.127 532.531 145.566 532.464 146.027 532.464C146.332 532.464 146.655 532.501 146.996 532.574C147.341 532.643 147.663 532.773 147.961 532.962C148.263 533.15 148.509 533.421 148.702 533.772C148.894 534.12 148.99 534.572 148.99 535.129V540.2H147.538V539.156H147.479C147.383 539.348 147.238 539.537 147.046 539.723C146.854 539.909 146.607 540.063 146.305 540.185C146.004 540.308 145.643 540.369 145.222 540.369ZM145.545 539.176C145.956 539.176 146.307 539.095 146.599 538.932C146.894 538.77 147.117 538.558 147.27 538.296C147.426 538.031 147.504 537.748 147.504 537.446V536.462C147.451 536.515 147.348 536.564 147.195 536.611C147.046 536.654 146.875 536.692 146.683 536.725C146.491 536.755 146.304 536.783 146.121 536.81C145.939 536.833 145.787 536.853 145.664 536.869C145.376 536.906 145.112 536.967 144.874 537.053C144.638 537.139 144.449 537.264 144.307 537.426C144.168 537.585 144.098 537.797 144.098 538.062C144.098 538.43 144.234 538.709 144.506 538.898C144.777 539.083 145.124 539.176 145.545 539.176ZM154.604 532.564V533.757H150.289V532.564H154.604ZM151.472 540.2V531.679C151.472 531.202 151.577 530.806 151.785 530.491C151.994 530.172 152.271 529.936 152.616 529.78C152.96 529.621 153.335 529.541 153.739 529.541C154.037 529.541 154.293 529.566 154.505 529.616C154.717 529.662 154.874 529.705 154.977 529.745L154.629 530.948C154.559 530.928 154.47 530.905 154.361 530.878C154.251 530.849 154.119 530.834 153.963 530.834C153.602 530.834 153.343 530.923 153.187 531.102C153.035 531.281 152.959 531.54 152.959 531.878V540.2H151.472ZM159.772 532.564V533.757H155.457V532.564H159.772ZM156.64 540.2V531.679C156.64 531.202 156.744 530.806 156.953 530.491C157.162 530.172 157.439 529.936 157.784 529.78C158.128 529.621 158.503 529.541 158.907 529.541C159.205 529.541 159.461 529.566 159.673 529.616C159.885 529.662 160.042 529.705 160.145 529.745L159.797 530.948C159.727 530.928 159.638 530.905 159.529 530.878C159.419 530.849 159.287 530.834 159.131 530.834C158.77 530.834 158.511 530.923 158.355 531.102C158.203 531.281 158.127 531.54 158.127 531.878V540.2H156.64ZM161.306 540.2V532.564H162.792V540.2H161.306ZM162.057 531.386C161.798 531.386 161.576 531.299 161.39 531.127C161.208 530.951 161.117 530.743 161.117 530.501C161.117 530.255 161.208 530.047 161.39 529.874C161.576 529.699 161.798 529.611 162.057 529.611C162.315 529.611 162.536 529.699 162.718 529.874C162.903 530.047 162.996 530.255 162.996 530.501C162.996 530.743 162.903 530.951 162.718 531.127C162.536 531.299 162.315 531.386 162.057 531.386ZM167.651 540.349C167.034 540.349 166.484 540.192 166 539.877C165.52 539.559 165.142 539.106 164.867 538.52C164.595 537.93 164.459 537.222 164.459 536.397C164.459 535.572 164.597 534.866 164.872 534.279C165.15 533.692 165.531 533.243 166.015 532.932C166.499 532.62 167.048 532.464 167.661 532.464C168.135 532.464 168.516 532.544 168.804 532.703C169.096 532.859 169.321 533.041 169.48 533.25C169.643 533.459 169.769 533.643 169.858 533.802H169.948V530.018H171.434V540.2H169.983V539.012H169.858C169.769 539.174 169.64 539.36 169.471 539.569C169.305 539.778 169.076 539.96 168.784 540.116C168.493 540.271 168.115 540.349 167.651 540.349ZM167.979 539.082C168.407 539.082 168.768 538.969 169.063 538.744C169.361 538.515 169.587 538.198 169.739 537.794C169.895 537.39 169.973 536.919 169.973 536.382C169.973 535.852 169.896 535.388 169.744 534.99C169.592 534.592 169.368 534.282 169.073 534.06C168.778 533.838 168.413 533.727 167.979 533.727C167.532 533.727 167.159 533.843 166.86 534.075C166.562 534.307 166.337 534.624 166.184 535.025C166.035 535.426 165.961 535.878 165.961 536.382C165.961 536.892 166.037 537.351 166.189 537.759C166.342 538.167 166.567 538.49 166.865 538.729C167.167 538.964 167.538 539.082 167.979 539.082ZM175.778 540.369C175.294 540.369 174.857 540.28 174.466 540.101C174.075 539.918 173.765 539.655 173.536 539.31C173.311 538.966 173.198 538.543 173.198 538.043C173.198 537.612 173.281 537.257 173.447 536.979C173.612 536.7 173.836 536.48 174.118 536.317C174.399 536.155 174.714 536.032 175.062 535.949C175.41 535.867 175.765 535.804 176.126 535.761C176.584 535.708 176.955 535.664 177.24 535.631C177.525 535.595 177.732 535.537 177.861 535.457C177.991 535.378 178.055 535.248 178.055 535.07V535.035C178.055 534.601 177.933 534.264 177.687 534.025C177.445 533.787 177.084 533.668 176.604 533.668C176.103 533.668 175.709 533.779 175.42 534.001C175.135 534.219 174.938 534.463 174.829 534.731L173.432 534.413C173.597 533.949 173.839 533.575 174.157 533.29C174.479 533.001 174.849 532.793 175.266 532.663C175.684 532.531 176.123 532.464 176.584 532.464C176.889 532.464 177.212 532.501 177.553 532.574C177.898 532.643 178.219 532.773 178.518 532.962C178.819 533.15 179.066 533.421 179.258 533.772C179.451 534.12 179.547 534.572 179.547 535.129V540.2H178.095V539.156H178.035C177.939 539.348 177.795 539.537 177.603 539.723C177.411 539.909 177.164 540.063 176.862 540.185C176.56 540.308 176.199 540.369 175.778 540.369ZM176.101 539.176C176.512 539.176 176.864 539.095 177.155 538.932C177.45 538.77 177.674 538.558 177.827 538.296C177.982 538.031 178.06 537.748 178.06 537.446V536.462C178.007 536.515 177.904 536.564 177.752 536.611C177.603 536.654 177.432 536.692 177.24 536.725C177.048 536.755 176.86 536.783 176.678 536.81C176.496 536.833 176.343 536.853 176.221 536.869C175.932 536.906 175.669 536.967 175.43 537.053C175.195 537.139 175.006 537.264 174.863 537.426C174.724 537.585 174.655 537.797 174.655 538.062C174.655 538.43 174.791 538.709 175.062 538.898C175.334 539.083 175.68 539.176 176.101 539.176ZM187.786 532.564L185.017 540.2H183.426L180.652 532.564H182.248L184.181 538.44H184.261L186.19 532.564H187.786ZM189.183 540.2V532.564H190.669V540.2H189.183ZM189.934 531.386C189.675 531.386 189.453 531.299 189.267 531.127C189.085 530.951 188.994 530.743 188.994 530.501C188.994 530.255 189.085 530.047 189.267 529.874C189.453 529.699 189.675 529.611 189.934 529.611C190.192 529.611 190.413 529.699 190.595 529.874C190.78 530.047 190.873 530.255 190.873 530.501C190.873 530.743 190.78 530.951 190.595 531.127C190.413 531.299 190.192 531.386 189.934 531.386ZM196.234 532.564V533.757H192.063V532.564H196.234ZM193.181 530.734H194.668V537.958C194.668 538.246 194.711 538.463 194.797 538.609C194.883 538.752 194.994 538.85 195.13 538.903C195.269 538.952 195.42 538.977 195.583 538.977C195.702 538.977 195.806 538.969 195.896 538.952C195.985 538.936 196.055 538.922 196.105 538.913L196.373 540.141C196.287 540.174 196.164 540.207 196.005 540.24C195.846 540.276 195.647 540.296 195.409 540.3C195.017 540.306 194.653 540.237 194.315 540.091C193.977 539.945 193.703 539.72 193.494 539.415C193.286 539.11 193.181 538.727 193.181 538.266V530.734ZM198.858 540.295C198.586 540.295 198.352 540.199 198.157 540.006C197.961 539.811 197.863 539.575 197.863 539.3C197.863 539.029 197.961 538.797 198.157 538.604C198.352 538.409 198.586 538.311 198.858 538.311C199.129 538.311 199.363 538.409 199.559 538.604C199.754 538.797 199.852 539.029 199.852 539.3C199.852 539.483 199.806 539.65 199.713 539.802C199.623 539.952 199.504 540.071 199.355 540.16C199.206 540.25 199.04 540.295 198.858 540.295ZM201.843 543.064V532.564H203.295V533.802H203.419C203.505 533.643 203.629 533.459 203.792 533.25C203.954 533.041 204.18 532.859 204.468 532.703C204.756 532.544 205.138 532.464 205.612 532.464C206.228 532.464 206.778 532.62 207.262 532.932C207.746 533.243 208.125 533.692 208.401 534.279C208.679 534.866 208.818 535.572 208.818 536.397C208.818 537.222 208.681 537.93 208.406 538.52C208.13 539.106 207.753 539.559 207.272 539.877C206.791 540.192 206.243 540.349 205.626 540.349C205.162 540.349 204.783 540.271 204.488 540.116C204.196 539.96 203.968 539.778 203.802 539.569C203.636 539.36 203.509 539.174 203.419 539.012H203.33V543.064H201.843ZM203.3 536.382C203.3 536.919 203.378 537.39 203.533 537.794C203.689 538.198 203.915 538.515 204.21 538.744C204.504 538.969 204.866 539.082 205.293 539.082C205.737 539.082 206.109 538.964 206.407 538.729C206.705 538.49 206.931 538.167 207.083 537.759C207.239 537.351 207.317 536.892 207.317 536.382C207.317 535.878 207.241 535.426 207.088 535.025C206.939 534.624 206.714 534.307 206.412 534.075C206.114 533.843 205.741 533.727 205.293 533.727C204.862 533.727 204.498 533.838 204.2 534.06C203.905 534.282 203.681 534.592 203.528 534.99C203.376 535.388 203.3 535.852 203.3 536.382ZM213.342 540.349C212.726 540.349 212.176 540.192 211.692 539.877C211.211 539.559 210.833 539.106 210.558 538.52C210.286 537.93 210.151 537.222 210.151 536.397C210.151 535.572 210.288 534.866 210.563 534.279C210.842 533.692 211.223 533.243 211.707 532.932C212.191 532.62 212.739 532.464 213.352 532.464C213.826 532.464 214.207 532.544 214.496 532.703C214.787 532.859 215.013 533.041 215.172 533.25C215.334 533.459 215.46 533.643 215.55 533.802H215.639V530.018H217.126V540.2H215.674V539.012H215.55C215.46 539.174 215.331 539.36 215.162 539.569C214.996 539.778 214.768 539.96 214.476 540.116C214.184 540.271 213.806 540.349 213.342 540.349ZM213.67 539.082C214.098 539.082 214.459 538.969 214.754 538.744C215.053 538.515 215.278 538.198 215.43 537.794C215.586 537.39 215.664 536.919 215.664 536.382C215.664 535.852 215.588 535.388 215.435 534.99C215.283 534.592 215.059 534.282 214.764 534.06C214.469 533.838 214.105 533.727 213.67 533.727C213.223 533.727 212.85 533.843 212.552 534.075C212.254 534.307 212.028 534.624 211.876 535.025C211.727 535.426 211.652 535.878 211.652 536.382C211.652 536.892 211.728 537.351 211.881 537.759C212.033 538.167 212.259 538.49 212.557 538.729C212.858 538.964 213.23 539.082 213.67 539.082ZM222.882 532.564V533.757H218.566V532.564H222.882ZM219.749 540.2V531.679C219.749 531.202 219.854 530.806 220.063 530.491C220.271 530.172 220.548 529.936 220.893 529.78C221.238 529.621 221.612 529.541 222.017 529.541C222.315 529.541 222.57 529.566 222.782 529.616C222.994 529.662 223.152 529.705 223.254 529.745L222.906 530.948C222.837 530.928 222.747 530.905 222.638 530.878C222.529 530.849 222.396 530.834 222.24 530.834C221.879 530.834 221.62 530.923 221.465 531.102C221.312 531.281 221.236 531.54 221.236 531.878V540.2H219.749Z" fill="black"/>
<path d="M128.25 533.643V541.25C128.25 541.747 128.052 542.224 127.701 542.576C127.349 542.927 126.872 543.125 126.375 543.125H117.625C117.128 543.125 116.651 542.927 116.299 542.576C115.948 542.224 115.75 541.747 115.75 541.25V528.75C115.75 528.253 115.948 527.776 116.299 527.424C116.651 527.073 117.128 526.875 117.625 526.875H121.482C121.814 526.875 122.132 527.007 122.366 527.241L127.884 532.759C128.118 532.993 128.25 533.311 128.25 533.643Z" stroke="black" stroke-width="1.25" stroke-linejoin="round"/>
<path d="M122 527.188V531.875C122 532.207 122.132 532.524 122.366 532.759C122.601 532.993 122.918 533.125 123.25 533.125H127.938M118.875 536.25H125.125M118.875 539.375H125.125" stroke="black" stroke-width="1.25" stroke-linecap="round" stroke-linejoin="round"/>
<path d="M665.985 528.812C662.636 528.812 659.201 530.751 656.497 534.627C656.419 534.739 656.377 534.872 656.375 535.007C656.373 535.143 656.411 535.277 656.485 535.391C658.563 538.644 661.952 541.188 665.985 541.188C669.975 541.188 673.434 538.636 675.515 535.376C675.588 535.264 675.626 535.134 675.626 535.001C675.626 534.868 675.588 534.737 675.515 534.625C673.429 531.403 669.945 528.812 665.985 528.812Z" stroke="black" stroke-width="1.375" stroke-linecap="round" stroke-linejoin="round"/>
<path d="M666 538.438C667.898 538.438 669.438 536.898 669.438 535C669.438 533.102 667.898 531.562 666 531.562C664.102 531.562 662.562 533.102 662.562 535C662.562 536.898 664.102 538.438 666 538.438Z" stroke="black" stroke-width="1.375" stroke-miterlimit="10"/>
<path d="M709.25 530.5H722.75M721.25 530.5V541C721.25 541.398 721.092 541.779 720.811 542.061C720.529 542.342 720.148 542.5 719.75 542.5H712.25C711.852 542.5 711.471 542.342 711.189 542.061C710.908 541.779 710.75 541.398 710.75 541V530.5M713 530.5V529C713 528.602 713.158 528.221 713.439 527.939C713.721 527.658 714.102 527.5 714.5 527.5H717.5C717.898 527.5 718.279 527.658 718.561 527.939C718.842 528.221 719 528.602 719 529V530.5M714.5 534.25V538.75M717.5 534.25V538.75" stroke="black" stroke-width="1.5" stroke-linecap="round" stroke-linejoin="round"/>
<rect x="95" y="575" width="672" height="64" rx="8" fill="#F9F9F9"/>
<rect x="95.5" y="575.5" width="671" height="63" rx="7.5" stroke="#040404" stroke-opacity="0.07"/>
<path d="M145.222 612.369C144.738 612.369 144.3 612.28 143.909 612.101C143.518 611.918 143.208 611.655 142.979 611.31C142.754 610.966 142.641 610.543 142.641 610.043C142.641 609.612 142.724 609.257 142.89 608.979C143.056 608.7 143.279 608.48 143.561 608.317C143.843 608.155 144.158 608.032 144.506 607.949C144.854 607.867 145.208 607.804 145.57 607.761C146.027 607.708 146.398 607.664 146.683 607.631C146.968 607.595 147.175 607.537 147.305 607.457C147.434 607.378 147.499 607.248 147.499 607.07V607.035C147.499 606.601 147.376 606.264 147.131 606.025C146.889 605.787 146.527 605.668 146.047 605.668C145.546 605.668 145.152 605.779 144.864 606.001C144.579 606.219 144.381 606.463 144.272 606.731L142.875 606.413C143.041 605.949 143.283 605.575 143.601 605.29C143.922 605.001 144.292 604.793 144.71 604.663C145.127 604.531 145.566 604.464 146.027 604.464C146.332 604.464 146.655 604.501 146.996 604.574C147.341 604.643 147.663 604.773 147.961 604.962C148.263 605.15 148.509 605.421 148.702 605.772C148.894 606.12 148.99 606.572 148.99 607.129V612.2H147.538V611.156H147.479C147.383 611.348 147.238 611.537 147.046 611.723C146.854 611.909 146.607 612.063 146.305 612.185C146.004 612.308 145.643 612.369 145.222 612.369ZM145.545 611.176C145.956 611.176 146.307 611.095 146.599 610.932C146.894 610.77 147.117 610.558 147.27 610.296C147.426 610.031 147.504 609.748 147.504 609.446V608.462C147.451 608.515 147.348 608.564 147.195 608.611C147.046 608.654 146.875 608.692 146.683 608.725C146.491 608.755 146.304 608.783 146.121 608.81C145.939 608.833 145.787 608.853 145.664 608.869C145.376 608.906 145.112 608.967 144.874 609.053C144.638 609.139 144.449 609.264 144.307 609.426C144.168 609.585 144.098 609.797 144.098 610.062C144.098 610.43 144.234 610.709 144.506 610.898C144.777 611.083 145.124 611.176 145.545 611.176ZM154.604 604.564V605.757H150.289V604.564H154.604ZM151.472 612.2V603.679C151.472 603.202 151.577 602.806 151.785 602.491C151.994 602.172 152.271 601.936 152.616 601.78C152.96 601.621 153.335 601.541 153.739 601.541C154.037 601.541 154.293 601.566 154.505 601.616C154.717 601.662 154.874 601.705 154.977 601.745L154.629 602.948C154.559 602.928 154.47 602.905 154.361 602.878C154.251 602.849 154.119 602.834 153.963 602.834C153.602 602.834 153.343 602.923 153.187 603.102C153.035 603.281 152.959 603.54 152.959 603.878V612.2H151.472ZM159.772 604.564V605.757H155.457V604.564H159.772ZM156.64 612.2V603.679C156.64 603.202 156.744 602.806 156.953 602.491C157.162 602.172 157.439 601.936 157.784 601.78C158.128 601.621 158.503 601.541 158.907 601.541C159.205 601.541 159.461 601.566 159.673 601.616C159.885 601.662 160.042 601.705 160.145 601.745L159.797 602.948C159.727 602.928 159.638 602.905 159.529 602.878C159.419 602.849 159.287 602.834 159.131 602.834C158.77 602.834 158.511 602.923 158.355 603.102C158.203 603.281 158.127 603.54 158.127 603.878V612.2H156.64ZM161.306 612.2V604.564H162.792V612.2H161.306ZM162.057 603.386C161.798 603.386 161.576 603.299 161.39 603.127C161.208 602.951 161.117 602.743 161.117 602.501C161.117 602.255 161.208 602.047 161.39 601.874C161.576 601.699 161.798 601.611 162.057 601.611C162.315 601.611 162.536 601.699 162.718 601.874C162.903 602.047 162.996 602.255 162.996 602.501C162.996 602.743 162.903 602.951 162.718 603.127C162.536 603.299 162.315 603.386 162.057 603.386ZM167.651 612.349C167.034 612.349 166.484 612.192 166 611.877C165.52 611.559 165.142 611.106 164.867 610.52C164.595 609.93 164.459 609.222 164.459 608.397C164.459 607.572 164.597 606.866 164.872 606.279C165.15 605.692 165.531 605.243 166.015 604.932C166.499 604.62 167.048 604.464 167.661 604.464C168.135 604.464 168.516 604.544 168.804 604.703C169.096 604.859 169.321 605.041 169.48 605.25C169.643 605.459 169.769 605.643 169.858 605.802H169.948V602.018H171.434V612.2H169.983V611.012H169.858C169.769 611.174 169.64 611.36 169.471 611.569C169.305 611.778 169.076 611.96 168.784 612.116C168.493 612.271 168.115 612.349 167.651 612.349ZM167.979 611.082C168.407 611.082 168.768 610.969 169.063 610.744C169.361 610.515 169.587 610.198 169.739 609.794C169.895 609.39 169.973 608.919 169.973 608.382C169.973 607.852 169.896 607.388 169.744 606.99C169.592 606.592 169.368 606.282 169.073 606.06C168.778 605.838 168.413 605.727 167.979 605.727C167.532 605.727 167.159 605.843 166.86 606.075C166.562 606.307 166.337 606.624 166.184 607.025C166.035 607.426 165.961 607.878 165.961 608.382C165.961 608.892 166.037 609.351 166.189 609.759C166.342 610.167 166.567 610.49 166.865 610.729C167.167 610.964 167.538 611.082 167.979 611.082ZM175.778 612.369C175.294 612.369 174.857 612.28 174.466 612.101C174.075 611.918 173.765 611.655 173.536 611.31C173.311 610.966 173.198 610.543 173.198 610.043C173.198 609.612 173.281 609.257 173.447 608.979C173.612 608.7 173.836 608.48 174.118 608.317C174.399 608.155 174.714 608.032 175.062 607.949C175.41 607.867 175.765 607.804 176.126 607.761C176.584 607.708 176.955 607.664 177.24 607.631C177.525 607.595 177.732 607.537 177.861 607.457C177.991 607.378 178.055 607.248 178.055 607.07V607.035C178.055 606.601 177.933 606.264 177.687 606.025C177.445 605.787 177.084 605.668 176.604 605.668C176.103 605.668 175.709 605.779 175.42 606.001C175.135 606.219 174.938 606.463 174.829 606.731L173.432 606.413C173.597 605.949 173.839 605.575 174.157 605.29C174.479 605.001 174.849 604.793 175.266 604.663C175.684 604.531 176.123 604.464 176.584 604.464C176.889 604.464 177.212 604.501 177.553 604.574C177.898 604.643 178.219 604.773 178.518 604.962C178.819 605.15 179.066 605.421 179.258 605.772C179.451 606.12 179.547 606.572 179.547 607.129V612.2H178.095V611.156H178.035C177.939 611.348 177.795 611.537 177.603 611.723C177.411 611.909 177.164 612.063 176.862 612.185C176.56 612.308 176.199 612.369 175.778 612.369ZM176.101 611.176C176.512 611.176 176.864 611.095 177.155 610.932C177.45 610.77 177.674 610.558 177.827 610.296C177.982 610.031 178.06 609.748 178.06 609.446V608.462C178.007 608.515 177.904 608.564 177.752 608.611C177.603 608.654 177.432 608.692 177.24 608.725C177.048 608.755 176.86 608.783 176.678 608.81C176.496 608.833 176.343 608.853 176.221 608.869C175.932 608.906 175.669 608.967 175.43 609.053C175.195 609.139 175.006 609.264 174.863 609.426C174.724 609.585 174.655 609.797 174.655 610.062C174.655 610.43 174.791 610.709 175.062 610.898C175.334 611.083 175.68 611.176 176.101 611.176ZM187.786 604.564L185.017 612.2H183.426L180.652 604.564H182.248L184.181 610.44H184.261L186.19 604.564H187.786ZM189.183 612.2V604.564H190.669V612.2H189.183ZM189.934 603.386C189.675 603.386 189.453 603.299 189.267 603.127C189.085 602.951 188.994 602.743 188.994 602.501C188.994 602.255 189.085 602.047 189.267 601.874C189.453 601.699 189.675 601.611 189.934 601.611C190.192 601.611 190.413 601.699 190.595 601.874C190.78 602.047 190.873 602.255 190.873 602.501C190.873 602.743 190.78 602.951 190.595 603.127C190.413 603.299 190.192 603.386 189.934 603.386ZM196.234 604.564V605.757H192.063V604.564H196.234ZM193.181 602.734H194.668V609.958C194.668 610.246 194.711 610.463 194.797 610.609C194.883 610.752 194.994 610.85 195.13 610.903C195.269 610.952 195.42 610.977 195.583 610.977C195.702 610.977 195.806 610.969 195.896 610.952C195.985 610.936 196.055 610.922 196.105 610.913L196.373 612.141C196.287 612.174 196.164 612.207 196.005 612.24C195.846 612.276 195.647 612.296 195.409 612.3C195.017 612.306 194.653 612.237 194.315 612.091C193.977 611.945 193.703 611.72 193.494 611.415C193.286 611.11 193.181 610.727 193.181 610.266V602.734ZM198.858 612.295C198.586 612.295 198.352 612.199 198.157 612.006C197.961 611.811 197.863 611.575 197.863 611.3C197.863 611.029 197.961 610.797 198.157 610.604C198.352 610.409 198.586 610.311 198.858 610.311C199.129 610.311 199.363 610.409 199.559 610.604C199.754 610.797 199.852 611.029 199.852 611.3C199.852 611.483 199.806 611.65 199.713 611.802C199.623 611.952 199.504 612.071 199.355 612.16C199.206 612.25 199.04 612.295 198.858 612.295ZM201.843 615.064V604.564H203.295V605.802H203.419C203.505 605.643 203.629 605.459 203.792 605.25C203.954 605.041 204.18 604.859 204.468 604.703C204.756 604.544 205.138 604.464 205.612 604.464C206.228 604.464 206.778 604.62 207.262 604.932C207.746 605.243 208.125 605.692 208.401 606.279C208.679 606.866 208.818 607.572 208.818 608.397C208.818 609.222 208.681 609.93 208.406 610.52C208.13 611.106 207.753 611.559 207.272 611.877C206.791 612.192 206.243 612.349 205.626 612.349C205.162 612.349 204.783 612.271 204.488 612.116C204.196 611.96 203.968 611.778 203.802 611.569C203.636 611.36 203.509 611.174 203.419 611.012H203.33V615.064H201.843ZM203.3 608.382C203.3 608.919 203.378 609.39 203.533 609.794C203.689 610.198 203.915 610.515 204.21 610.744C204.504 610.969 204.866 611.082 205.293 611.082C205.737 611.082 206.109 610.964 206.407 610.729C206.705 610.49 206.931 610.167 207.083 609.759C207.239 609.351 207.317 608.892 207.317 608.382C207.317 607.878 207.241 607.426 207.088 607.025C206.939 606.624 206.714 606.307 206.412 606.075C206.114 605.843 205.741 605.727 205.293 605.727C204.862 605.727 204.498 605.838 204.2 606.06C203.905 606.282 203.681 606.592 203.528 606.99C203.376 607.388 203.3 607.852 203.3 608.382ZM213.342 612.349C212.726 612.349 212.176 612.192 211.692 611.877C211.211 611.559 210.833 611.106 210.558 610.52C210.286 609.93 210.151 609.222 210.151 608.397C210.151 607.572 210.288 606.866 210.563 606.279C210.842 605.692 211.223 605.243 211.707 604.932C212.191 604.62 212.739 604.464 213.352 604.464C213.826 604.464 214.207 604.544 214.496 604.703C214.787 604.859 215.013 605.041 215.172 605.25C215.334 605.459 215.46 605.643 215.55 605.802H215.639V602.018H217.126V612.2H215.674V611.012H215.55C215.46 611.174 215.331 611.36 215.162 611.569C214.996 611.778 214.768 611.96 214.476 612.116C214.184 612.271 213.806 612.349 213.342 612.349ZM213.67 611.082C214.098 611.082 214.459 610.969 214.754 610.744C215.053 610.515 215.278 610.198 215.43 609.794C215.586 609.39 215.664 608.919 215.664 608.382C215.664 607.852 215.588 607.388 215.435 606.99C215.283 606.592 215.059 606.282 214.764 606.06C214.469 605.838 214.105 605.727 213.67 605.727C213.223 605.727 212.85 605.843 212.552 606.075C212.254 606.307 212.028 606.624 211.876 607.025C211.727 607.426 211.652 607.878 211.652 608.382C211.652 608.892 211.728 609.351 211.881 609.759C212.033 610.167 212.259 610.49 212.557 610.729C212.858 610.964 213.23 611.082 213.67 611.082ZM222.882 604.564V605.757H218.566V604.564H222.882ZM219.749 612.2V603.679C219.749 603.202 219.854 602.806 220.063 602.491C220.271 602.172 220.548 601.936 220.893 601.78C221.238 601.621 221.612 601.541 222.017 601.541C222.315 601.541 222.57 601.566 222.782 601.616C222.994 601.662 223.152 601.705 223.254 601.745L222.906 602.948C222.837 602.928 222.747 602.905 222.638 602.878C222.529 602.849 222.396 602.834 222.24 602.834C221.879 602.834 221.62 602.923 221.465 603.102C221.312 603.281 221.236 603.54 221.236 603.878V612.2H219.749Z" fill="black"/>
<path d="M128.25 605.643V613.25C128.25 613.747 128.052 614.224 127.701 614.576C127.349 614.927 126.872 615.125 126.375 615.125H117.625C117.128 615.125 116.651 614.927 116.299 614.576C115.948 614.224 115.75 613.747 115.75 613.25V600.75C115.75 600.253 115.948 599.776 116.299 599.424C116.651 599.073 117.128 598.875 117.625 598.875H121.482C121.814 598.875 122.132 599.007 122.366 599.241L127.884 604.759C128.118 604.993 128.25 605.311 128.25 605.643Z" stroke="black" stroke-width="1.25" stroke-linejoin="round"/>
<path d="M122 599.188V603.875C122 604.207 122.132 604.524 122.366 604.759C122.601 604.993 122.918 605.125 123.25 605.125H127.938M118.875 608.25H125.125M118.875 611.375H125.125" stroke="black" stroke-width="1.25" stroke-linecap="round" stroke-linejoin="round"/>
<path d="M665.985 600.812C662.636 600.812 659.201 602.751 656.497 606.627C656.419 606.739 656.377 606.872 656.375 607.007C656.373 607.143 656.411 607.277 656.485 607.391C658.563 610.644 661.952 613.188 665.985 613.188C669.975 613.188 673.434 610.636 675.515 607.376C675.588 607.264 675.626 607.134 675.626 607.001C675.626 606.868 675.588 606.737 675.515 606.625C673.429 603.403 669.945 600.812 665.985 600.812Z" stroke="black" stroke-width="1.375" stroke-linecap="round" stroke-linejoin="round"/>
<path d="M666 610.438C667.898 610.438 669.438 608.898 669.438 607C669.438 605.102 667.898 603.562 666 603.562C664.102 603.562 662.562 605.102 662.562 607C662.562 608.898 664.102 610.438 666 610.438Z" stroke="black" stroke-width="1.375" stroke-miterlimit="10"/>
<path d="M709.25 602.5H722.75M721.25 602.5V613C721.25 613.398 721.092 613.779 720.811 614.061C720.529 614.342 720.148 614.5 719.75 614.5H712.25C711.852 614.5 711.471 614.342 711.189 614.061C710.908 613.779 710.75 613.398 710.75 613V602.5M713 602.5V601C713 600.602 713.158 600.221 713.439 599.939C713.721 599.658 714.102 599.5 714.5 599.5H717.5C717.898 599.5 718.279 599.658 718.561 599.939C718.842 600.221 719 600.602 719 601V602.5M714.5 606.25V610.75M717.5 606.25V610.75" stroke="black" stroke-width="1.5" stroke-linecap="round" stroke-linejoin="round"/>
<rect x="95" y="191" width="336" height="15" rx="7.5" fill="#F4F4F4"/>
<rect x="95" y="191" width="336" height="15" rx="7.5" fill="#F4F4F4"/>
<rect x="95" y="191" width="336" height="15" rx="7.5" fill="#F4F4F4"/>
<rect x="95" y="191" width="336" height="15" rx="7.5" fill="#F4F4F4"/>
<rect x="95" y="191" width="336" height="15" rx="7.5" fill="#F4F4F4"/>
<rect x="95" y="218" width="194" height="15" rx="7.5" fill="#F4F4F4"/>
<rect x="95" y="218" width="194" height="15" rx="7.5" fill="#F4F4F4"/>
<rect x="95" y="218" width="194" height="15" rx="7.5" fill="#F4F4F4"/>
<rect x="95" y="218" width="194" height="15" rx="7.5" fill="#F4F4F4"/>
<rect x="95" y="218" width="194" height="15" rx="7.5" fill="#F4F4F4"/>
<rect x="112" y="715" width="194" height="15" rx="7.5" fill="#F4F4F4"/>
<rect x="112" y="715" width="194" height="15" rx="7.5" fill="#F4F4F4"/>
<rect x="112" y="715" width="194" height="15" rx="7.5" fill="#F4F4F4"/>
<rect x="112" y="715" width="194" height="15" rx="7.5" fill="#F4F4F4"/>
<rect x="112" y="715" width="194" height="15" rx="7.5" fill="#F4F4F4"/>
</svg>
