<svg width="802" height="802" viewBox="0 0 802 802" fill="none" xmlns="http://www.w3.org/2000/svg">
<rect x="0.5" y="0.5" width="801" height="801" rx="16.5" fill="white" stroke="#EDEDEE"/>
<rect x="60.3828" y="258.91" width="681.234" height="206.21" rx="15.5" fill="#FAFAFA"/>
<rect x="60.3828" y="258.91" width="681.234" height="206.21" rx="15.5" stroke="#9A9A9A" stroke-dasharray="2 2"/>
<path d="M317.023 395.41H313.079V384.283H317.056C318.175 384.283 319.139 384.506 319.946 384.951C320.754 385.393 321.375 386.029 321.81 386.858C322.248 387.688 322.467 388.68 322.467 389.836C322.467 390.995 322.248 391.991 321.81 392.824C321.375 393.657 320.75 394.296 319.935 394.742C319.124 395.187 318.153 395.41 317.023 395.41ZM315.431 393.394H316.925C317.621 393.394 318.206 393.271 318.68 393.025C319.158 392.775 319.517 392.389 319.756 391.868C319.999 391.342 320.12 390.665 320.12 389.836C320.12 389.013 319.999 388.342 319.756 387.82C319.517 387.298 319.16 386.914 318.686 386.668C318.211 386.422 317.626 386.299 316.931 386.299H315.431V393.394ZM324.167 395.41V387.065H326.41V388.521H326.497C326.65 388.003 326.905 387.612 327.264 387.347C327.622 387.079 328.035 386.945 328.502 386.945C328.618 386.945 328.743 386.952 328.877 386.967C329.011 386.981 329.129 387.001 329.23 387.027V389.08C329.122 389.048 328.971 389.019 328.779 388.994C328.587 388.968 328.412 388.955 328.252 388.955C327.912 388.955 327.608 389.03 327.34 389.178C327.075 389.323 326.865 389.526 326.709 389.787C326.557 390.048 326.481 390.348 326.481 390.689V395.41H324.167ZM332.568 395.568C332.035 395.568 331.561 395.475 331.144 395.291C330.728 395.102 330.398 394.825 330.155 394.459C329.916 394.09 329.797 393.63 329.797 393.079C329.797 392.616 329.882 392.226 330.052 391.911C330.222 391.596 330.454 391.342 330.748 391.15C331.041 390.959 331.374 390.814 331.747 390.716C332.124 390.618 332.519 390.549 332.932 390.509C333.417 390.459 333.808 390.412 334.105 390.368C334.402 390.321 334.618 390.252 334.752 390.162C334.886 390.071 334.953 389.937 334.953 389.76V389.727C334.953 389.383 334.844 389.117 334.627 388.928C334.413 388.74 334.109 388.646 333.714 388.646C333.298 388.646 332.966 388.738 332.72 388.923C332.474 389.104 332.311 389.332 332.231 389.607L330.09 389.434C330.199 388.926 330.413 388.488 330.731 388.119C331.05 387.746 331.461 387.46 331.965 387.26C332.472 387.057 333.059 386.956 333.725 386.956C334.189 386.956 334.632 387.01 335.056 387.119C335.484 387.228 335.862 387.396 336.192 387.624C336.525 387.853 336.788 388.146 336.979 388.505C337.171 388.859 337.267 389.285 337.267 389.781V395.41H335.072V394.253H335.007C334.873 394.514 334.694 394.744 334.469 394.943C334.245 395.138 333.975 395.292 333.66 395.405C333.345 395.513 332.981 395.568 332.568 395.568ZM333.231 393.97C333.571 393.97 333.872 393.903 334.132 393.769C334.393 393.632 334.598 393.447 334.746 393.215C334.895 392.983 334.969 392.721 334.969 392.427V391.542C334.897 391.589 334.797 391.632 334.67 391.672C334.547 391.708 334.408 391.743 334.252 391.775C334.096 391.804 333.941 391.831 333.785 391.857C333.629 391.879 333.488 391.898 333.361 391.917C333.089 391.956 332.852 392.02 332.649 392.107C332.446 392.194 332.289 392.311 332.177 392.46C332.064 392.605 332.008 392.786 332.008 393.003C332.008 393.318 332.122 393.559 332.35 393.726C332.582 393.889 332.876 393.97 333.231 393.97ZM342.823 398.714C342.073 398.714 341.43 398.61 340.894 398.404C340.362 398.201 339.938 397.924 339.623 397.573C339.308 397.221 339.103 396.826 339.009 396.388L341.15 396.1C341.215 396.267 341.318 396.423 341.459 396.567C341.6 396.712 341.787 396.828 342.019 396.915C342.254 397.006 342.54 397.051 342.877 397.051C343.381 397.051 343.795 396.928 344.121 396.682C344.451 396.439 344.616 396.031 344.616 395.459V393.932H344.518C344.417 394.164 344.265 394.383 344.062 394.59C343.859 394.796 343.598 394.965 343.279 395.095C342.961 395.225 342.58 395.291 342.138 395.291C341.512 395.291 340.941 395.146 340.427 394.856C339.916 394.563 339.509 394.115 339.204 393.514C338.904 392.909 338.753 392.145 338.753 391.221C338.753 390.276 338.907 389.486 339.215 388.852C339.523 388.218 339.932 387.744 340.443 387.429C340.958 387.114 341.521 386.956 342.133 386.956C342.6 386.956 342.991 387.036 343.307 387.195C343.622 387.351 343.875 387.546 344.067 387.782C344.263 388.014 344.413 388.242 344.518 388.466H344.605V387.065H346.903V395.492C346.903 396.202 346.729 396.796 346.382 397.274C346.034 397.752 345.552 398.11 344.936 398.35C344.324 398.592 343.62 398.714 342.823 398.714ZM342.872 393.552C343.245 393.552 343.56 393.46 343.817 393.275C344.078 393.087 344.277 392.819 344.415 392.471C344.556 392.119 344.627 391.699 344.627 391.21C344.627 390.721 344.558 390.297 344.42 389.939C344.283 389.577 344.083 389.296 343.823 389.097C343.562 388.898 343.245 388.798 342.872 388.798C342.492 388.798 342.171 388.901 341.91 389.108C341.649 389.31 341.452 389.593 341.318 389.955C341.184 390.317 341.117 390.736 341.117 391.21C341.117 391.692 341.184 392.109 341.318 392.46C341.456 392.808 341.653 393.077 341.91 393.269C342.171 393.458 342.492 393.552 342.872 393.552ZM355.698 395.573C354.93 395.573 354.268 395.436 353.71 395.16C353.152 394.885 352.723 394.512 352.422 394.041C352.125 393.566 351.977 393.038 351.977 392.454C351.977 392.02 352.064 391.634 352.237 391.297C352.411 390.96 352.654 390.651 352.965 390.368C353.277 390.082 353.639 389.798 354.052 389.515L356.209 388.097C356.488 387.92 356.693 387.733 356.823 387.537C356.953 387.338 357.019 387.123 357.019 386.891C357.019 386.67 356.93 386.465 356.752 386.277C356.575 386.089 356.323 385.996 355.997 386C355.78 386 355.592 386.049 355.432 386.146C355.273 386.241 355.148 386.366 355.057 386.521C354.97 386.674 354.927 386.844 354.927 387.032C354.927 387.264 354.992 387.499 355.122 387.738C355.253 387.977 355.427 388.231 355.644 388.499C355.861 388.763 356.099 389.05 356.356 389.358L361.631 395.41H359.219L354.818 390.509C354.528 390.18 354.239 389.836 353.949 389.477C353.663 389.115 353.424 388.731 353.232 388.325C353.04 387.916 352.944 387.472 352.944 386.994C352.944 386.454 353.069 385.969 353.319 385.538C353.572 385.107 353.927 384.766 354.384 384.517C354.84 384.263 355.372 384.136 355.981 384.136C356.575 384.136 357.087 384.258 357.518 384.5C357.953 384.739 358.286 385.058 358.518 385.456C358.754 385.851 358.871 386.286 358.871 386.76C358.871 387.286 358.741 387.762 358.48 388.189C358.223 388.613 357.861 388.994 357.394 389.33L355.122 390.966C354.815 391.19 354.586 391.42 354.438 391.656C354.293 391.888 354.221 392.11 354.221 392.324C354.221 392.588 354.286 392.826 354.416 393.036C354.547 393.246 354.731 393.413 354.97 393.536C355.209 393.655 355.49 393.715 355.812 393.715C356.204 393.715 356.589 393.626 356.97 393.449C357.354 393.268 357.701 393.012 358.013 392.683C358.328 392.349 358.58 391.955 358.768 391.498C358.956 391.042 359.051 390.537 359.051 389.982H360.969C360.969 390.663 360.894 391.277 360.746 391.824C360.597 392.368 360.391 392.842 360.126 393.248C359.862 393.65 359.56 393.979 359.219 394.237C359.11 394.305 359.005 394.371 358.904 394.432C358.803 394.494 358.698 394.559 358.589 394.628C358.176 394.961 357.714 395.202 357.203 395.35C356.696 395.499 356.195 395.573 355.698 395.573ZM369.212 395.546C368.578 395.546 368.004 395.383 367.49 395.057C366.979 394.727 366.573 394.244 366.273 393.606C365.976 392.965 365.827 392.179 365.827 391.248C365.827 390.292 365.981 389.497 366.289 388.863C366.597 388.226 367.006 387.749 367.517 387.434C368.031 387.115 368.595 386.956 369.207 386.956C369.674 386.956 370.063 387.036 370.375 387.195C370.69 387.351 370.944 387.546 371.136 387.782C371.331 388.014 371.48 388.242 371.581 388.466H371.652V384.283H373.961V395.41H371.679V394.074H371.581C371.472 394.305 371.318 394.535 371.119 394.764C370.924 394.988 370.668 395.175 370.353 395.323C370.042 395.472 369.661 395.546 369.212 395.546ZM369.946 393.704C370.319 393.704 370.634 393.603 370.891 393.4C371.152 393.193 371.351 392.905 371.489 392.536C371.63 392.167 371.701 391.734 371.701 391.237C371.701 390.741 371.632 390.31 371.494 389.944C371.356 389.578 371.157 389.296 370.896 389.097C370.636 388.898 370.319 388.798 369.946 388.798C369.565 388.798 369.245 388.901 368.984 389.108C368.723 389.314 368.526 389.6 368.392 389.966C368.258 390.332 368.191 390.756 368.191 391.237C368.191 391.723 368.258 392.152 368.392 392.525C368.529 392.895 368.727 393.184 368.984 393.394C369.245 393.601 369.565 393.704 369.946 393.704ZM375.864 395.41V387.065H378.108V388.521H378.195C378.347 388.003 378.602 387.612 378.961 387.347C379.319 387.079 379.732 386.945 380.2 386.945C380.315 386.945 380.44 386.952 380.574 386.967C380.708 386.981 380.826 387.001 380.928 387.027V389.08C380.819 389.048 380.669 389.019 380.477 388.994C380.285 388.968 380.109 388.955 379.95 388.955C379.609 388.955 379.305 389.03 379.037 389.178C378.772 389.323 378.562 389.526 378.407 389.787C378.254 390.048 378.178 390.348 378.178 390.689V395.41H375.864ZM385.506 395.573C384.663 395.573 383.933 395.394 383.317 395.035C382.705 394.673 382.232 394.17 381.899 393.525C381.566 392.876 381.399 392.125 381.399 391.27C381.399 390.408 381.566 389.655 381.899 389.01C382.232 388.361 382.705 387.858 383.317 387.499C383.933 387.137 384.663 386.956 385.506 386.956C386.35 386.956 387.078 387.137 387.691 387.499C388.306 387.858 388.781 388.361 389.114 389.01C389.447 389.655 389.614 390.408 389.614 391.27C389.614 392.125 389.447 392.876 389.114 393.525C388.781 394.17 388.306 394.673 387.691 395.035C387.078 395.394 386.35 395.573 385.506 395.573ZM385.517 393.78C385.901 393.78 386.222 393.672 386.479 393.454C386.736 393.233 386.93 392.933 387.06 392.552C387.194 392.172 387.261 391.739 387.261 391.254C387.261 390.768 387.194 390.336 387.06 389.955C386.93 389.575 386.736 389.274 386.479 389.053C386.222 388.832 385.901 388.722 385.517 388.722C385.13 388.722 384.804 388.832 384.539 389.053C384.279 389.274 384.081 389.575 383.947 389.955C383.817 390.336 383.752 390.768 383.752 391.254C383.752 391.739 383.817 392.172 383.947 392.552C384.081 392.933 384.279 393.233 384.539 393.454C384.804 393.672 385.13 393.78 385.517 393.78ZM391.119 398.54V387.065H393.401V388.466H393.504C393.606 388.242 393.752 388.014 393.944 387.782C394.14 387.546 394.393 387.351 394.705 387.195C395.02 387.036 395.411 386.956 395.879 386.956C396.487 386.956 397.048 387.115 397.563 387.434C398.077 387.749 398.488 388.226 398.796 388.863C399.104 389.497 399.258 390.292 399.258 391.248C399.258 392.179 399.108 392.965 398.807 393.606C398.51 394.244 398.104 394.727 397.59 395.057C397.079 395.383 396.507 395.546 395.873 395.546C395.424 395.546 395.042 395.472 394.727 395.323C394.415 395.175 394.16 394.988 393.961 394.764C393.761 394.535 393.609 394.305 393.504 394.074H393.434V398.54H391.119ZM393.385 391.237C393.385 391.734 393.453 392.167 393.591 392.536C393.729 392.905 393.928 393.193 394.189 393.4C394.45 393.603 394.767 393.704 395.14 393.704C395.516 393.704 395.835 393.601 396.096 393.394C396.357 393.184 396.554 392.895 396.688 392.525C396.826 392.152 396.895 391.723 396.895 391.237C396.895 390.756 396.828 390.332 396.694 389.966C396.559 389.6 396.362 389.314 396.101 389.108C395.84 388.901 395.52 388.798 395.14 388.798C394.763 388.798 394.444 388.898 394.183 389.097C393.926 389.296 393.729 389.578 393.591 389.944C393.453 390.31 393.385 390.741 393.385 391.237ZM405.491 390.792C405.491 389.43 405.671 388.177 406.029 387.032C406.388 385.887 406.911 384.832 407.599 383.865H409.088C408.82 384.223 408.57 384.663 408.338 385.185C408.106 385.706 407.904 386.279 407.73 386.902C407.556 387.521 407.42 388.164 407.322 388.831C407.224 389.493 407.176 390.147 407.176 390.792C407.176 391.654 407.261 392.527 407.431 393.411C407.601 394.295 407.831 395.115 408.121 395.872C408.411 396.629 408.733 397.247 409.088 397.725H407.599C406.911 396.758 406.388 395.702 406.029 394.557C405.671 393.413 405.491 392.157 405.491 390.792ZM414.167 395.579C413.384 395.579 412.702 395.399 412.118 395.041C411.535 394.682 411.083 394.18 410.76 393.536C410.438 392.891 410.277 392.138 410.277 391.275C410.277 390.41 410.438 389.653 410.76 389.004C411.083 388.356 411.535 387.853 412.118 387.494C412.702 387.135 413.384 386.956 414.167 386.956C414.949 386.956 415.632 387.135 416.215 387.494C416.798 387.853 417.251 388.356 417.573 389.004C417.896 389.653 418.057 390.41 418.057 391.275C418.057 392.138 417.896 392.891 417.573 393.536C417.251 394.18 416.798 394.682 416.215 395.041C415.632 395.399 414.949 395.579 414.167 395.579ZM414.172 394.215C414.679 394.215 415.1 394.081 415.433 393.813C415.766 393.545 416.012 393.188 416.172 392.742C416.335 392.297 416.416 391.806 416.416 391.27C416.416 390.738 416.335 390.249 416.172 389.803C416.012 389.354 415.766 388.994 415.433 388.722C415.1 388.45 414.679 388.314 414.172 388.314C413.662 388.314 413.238 388.45 412.901 388.722C412.568 388.994 412.32 389.354 412.157 389.803C411.997 390.249 411.917 390.738 411.917 391.27C411.917 391.806 411.997 392.297 412.157 392.742C412.32 393.188 412.568 393.545 412.901 393.813C413.238 394.081 413.662 394.215 414.172 394.215ZM425.157 391.949V387.065H426.787V395.41H425.189V393.965H425.103C424.911 394.41 424.603 394.782 424.179 395.079C423.759 395.372 423.235 395.519 422.609 395.519C422.073 395.519 421.598 395.401 421.185 395.166C420.776 394.927 420.454 394.573 420.218 394.106C419.986 393.639 419.87 393.061 419.87 392.373V387.065H421.495V392.177C421.495 392.746 421.652 393.199 421.968 393.536C422.283 393.873 422.692 394.041 423.195 394.041C423.5 394.041 423.802 393.965 424.103 393.813C424.407 393.661 424.659 393.431 424.858 393.123C425.061 392.815 425.161 392.424 425.157 391.949ZM436.534 395.579C435.726 395.579 435.031 395.396 434.448 395.03C433.868 394.66 433.423 394.151 433.111 393.503C432.8 392.855 432.644 392.112 432.644 391.275C432.644 390.428 432.803 389.68 433.122 389.032C433.441 388.38 433.89 387.871 434.469 387.505C435.049 387.139 435.732 386.956 436.518 386.956C437.152 386.956 437.717 387.074 438.213 387.309C438.709 387.541 439.109 387.867 439.414 388.287C439.722 388.707 439.905 389.198 439.962 389.76H438.381C438.294 389.368 438.095 389.032 437.784 388.749C437.476 388.466 437.063 388.325 436.545 388.325C436.092 388.325 435.696 388.445 435.355 388.684C435.018 388.919 434.756 389.256 434.567 389.694C434.379 390.129 434.285 390.643 434.285 391.237C434.285 391.846 434.377 392.371 434.562 392.813C434.747 393.255 435.007 393.597 435.344 393.84C435.685 394.083 436.085 394.204 436.545 394.204C436.853 394.204 437.132 394.148 437.382 394.036C437.635 393.92 437.847 393.755 438.017 393.541C438.191 393.327 438.313 393.07 438.381 392.77H439.962C439.905 393.309 439.729 393.791 439.435 394.215C439.142 394.639 438.749 394.972 438.256 395.215C437.767 395.457 437.193 395.579 436.534 395.579ZM443.324 384.283V395.41H441.7V384.283H443.324ZM445.51 395.41V387.065H447.134V395.41H445.51ZM446.33 385.777C446.048 385.777 445.805 385.683 445.602 385.494C445.403 385.303 445.303 385.074 445.303 384.81C445.303 384.542 445.403 384.314 445.602 384.125C445.805 383.933 446.048 383.837 446.33 383.837C446.613 383.837 446.854 383.933 447.053 384.125C447.256 384.314 447.357 384.542 447.357 384.81C447.357 385.074 447.256 385.303 447.053 385.494C446.854 385.683 446.613 385.777 446.33 385.777ZM454.954 398.54V394.112H454.856C454.759 394.289 454.617 394.492 454.433 394.72C454.251 394.948 454.002 395.148 453.683 395.318C453.364 395.488 452.951 395.573 452.444 395.573C451.77 395.573 451.169 395.401 450.64 395.057C450.115 394.709 449.702 394.215 449.401 393.574C449.104 392.929 448.956 392.156 448.956 391.254C448.956 390.352 449.106 389.58 449.407 388.939C449.711 388.298 450.128 387.807 450.656 387.467C451.185 387.126 451.785 386.956 452.455 386.956C452.973 386.956 453.389 387.043 453.704 387.217C454.023 387.387 454.27 387.586 454.443 387.814C454.621 388.043 454.759 388.244 454.856 388.418H454.992V387.065H456.579V398.54H454.954ZM452.803 394.188C453.27 394.188 453.665 394.065 453.987 393.818C454.313 393.568 454.559 393.222 454.726 392.78C454.896 392.339 454.981 391.824 454.981 391.237C454.981 390.658 454.898 390.151 454.731 389.716C454.565 389.281 454.32 388.943 453.998 388.7C453.676 388.457 453.277 388.336 452.803 388.336C452.314 388.336 451.906 388.463 451.58 388.716C451.254 388.97 451.008 389.316 450.841 389.754C450.678 390.192 450.597 390.687 450.597 391.237C450.597 391.795 450.68 392.297 450.847 392.742C451.013 393.188 451.26 393.541 451.586 393.802C451.915 394.059 452.321 394.188 452.803 394.188ZM464.049 391.949V387.065H465.679V395.41H464.082V393.965H463.995C463.803 394.41 463.495 394.782 463.071 395.079C462.651 395.372 462.128 395.519 461.501 395.519C460.965 395.519 460.491 395.401 460.078 395.166C459.668 394.927 459.346 394.573 459.111 394.106C458.879 393.639 458.763 393.061 458.763 392.373V387.065H460.387V392.177C460.387 392.746 460.545 393.199 460.86 393.536C461.175 393.873 461.584 394.041 462.088 394.041C462.392 394.041 462.695 393.965 462.995 393.813C463.3 393.661 463.551 393.431 463.751 393.123C463.953 392.815 464.053 392.424 464.049 391.949ZM471.459 395.579C470.637 395.579 469.929 395.403 469.335 395.052C468.744 394.697 468.288 394.199 467.965 393.557C467.647 392.913 467.487 392.157 467.487 391.292C467.487 390.437 467.647 389.684 467.965 389.032C468.288 388.38 468.737 387.871 469.313 387.505C469.892 387.139 470.57 386.956 471.345 386.956C471.816 386.956 472.272 387.034 472.714 387.19C473.156 387.345 473.553 387.59 473.904 387.923C474.255 388.256 474.532 388.689 474.735 389.222C474.938 389.751 475.039 390.393 475.039 391.15V391.726H468.405V390.509H473.448C473.448 390.082 473.361 389.703 473.187 389.374C473.013 389.041 472.768 388.778 472.453 388.586C472.142 388.394 471.776 388.298 471.356 388.298C470.899 388.298 470.501 388.41 470.16 388.635C469.824 388.856 469.563 389.146 469.378 389.504C469.197 389.859 469.106 390.245 469.106 390.662V391.612C469.106 392.17 469.204 392.645 469.4 393.036C469.599 393.427 469.876 393.726 470.231 393.932C470.586 394.135 471.001 394.237 471.475 394.237C471.783 394.237 472.064 394.193 472.317 394.106C472.571 394.016 472.79 393.882 472.975 393.704C473.16 393.527 473.301 393.307 473.399 393.047L474.936 393.324C474.813 393.777 474.592 394.173 474.273 394.514C473.958 394.851 473.562 395.113 473.083 395.301C472.609 395.486 472.067 395.579 471.459 395.579ZM476.668 395.41V394.296L481.189 388.553V388.477H476.815V387.065H483.215V388.249L478.869 393.921V393.998H483.367V395.41H476.668ZM488.408 390.792C488.408 392.157 488.229 393.413 487.87 394.557C487.511 395.702 486.988 396.758 486.3 397.725H484.811C485.079 397.366 485.329 396.926 485.561 396.404C485.793 395.883 485.996 395.312 486.169 394.693C486.343 394.07 486.479 393.425 486.577 392.759C486.675 392.092 486.724 391.437 486.724 390.792C486.724 389.933 486.639 389.062 486.468 388.179C486.298 387.295 486.068 386.474 485.778 385.717C485.488 384.96 485.166 384.343 484.811 383.865H486.3C486.988 384.832 487.511 385.887 487.87 387.032C488.229 388.177 488.408 389.43 488.408 390.792ZM277.265 417.41V406.283H281.232C282.097 406.283 282.815 406.44 283.383 406.756C283.952 407.071 284.378 407.502 284.66 408.049C284.943 408.592 285.084 409.204 285.084 409.885C285.084 410.57 284.941 411.185 284.655 411.732C284.372 412.276 283.945 412.707 283.372 413.026C282.804 413.341 282.088 413.498 281.226 413.498H278.499V412.075H281.074C281.621 412.075 282.065 411.981 282.405 411.792C282.746 411.6 282.996 411.339 283.155 411.01C283.314 410.68 283.394 410.305 283.394 409.885C283.394 409.465 283.314 409.092 283.155 408.766C282.996 408.44 282.744 408.185 282.4 408C282.059 407.815 281.61 407.723 281.052 407.723H278.944V417.41H277.265ZM290.654 417.41H287.052V406.283H290.768C291.859 406.283 292.795 406.506 293.577 406.951C294.36 407.393 294.959 408.029 295.376 408.858C295.796 409.684 296.006 410.675 296.006 411.83C296.006 412.989 295.794 413.985 295.37 414.819C294.95 415.652 294.342 416.293 293.545 416.742C292.748 417.187 291.784 417.41 290.654 417.41ZM288.731 415.943H290.562C291.41 415.943 292.114 415.784 292.676 415.465C293.237 415.143 293.657 414.677 293.936 414.069C294.215 413.457 294.354 412.71 294.354 411.83C294.354 410.957 294.215 410.217 293.936 409.608C293.661 409 293.25 408.538 292.703 408.223C292.156 407.907 291.477 407.75 290.665 407.75H288.731V415.943ZM298.094 417.41V406.283H304.994V407.728H299.773V411.118H304.5V412.558H299.773V417.41H298.094ZM308.429 415.889L308.348 416.481C308.293 416.916 308.201 417.369 308.071 417.839C307.944 418.314 307.812 418.754 307.674 419.16C307.54 419.565 307.429 419.888 307.343 420.127H306.191C306.238 419.902 306.303 419.598 306.386 419.214C306.47 418.834 306.551 418.408 306.631 417.937C306.71 417.466 306.77 416.986 306.81 416.497L306.864 415.889H308.429ZM314.724 417.41V406.283H318.69C319.556 406.283 320.273 406.44 320.841 406.756C321.41 407.071 321.836 407.502 322.118 408.049C322.401 408.592 322.542 409.204 322.542 409.885C322.542 410.57 322.399 411.185 322.113 411.732C321.83 412.276 321.403 412.707 320.831 413.026C320.262 413.341 319.546 413.498 318.684 413.498H315.957V412.075H318.532C319.079 412.075 319.523 411.981 319.863 411.792C320.204 411.6 320.454 411.339 320.613 411.01C320.773 410.68 320.852 410.305 320.852 409.885C320.852 409.465 320.773 409.092 320.613 408.766C320.454 408.44 320.202 408.185 319.858 408C319.518 407.815 319.068 407.723 318.511 407.723H316.402V417.41H314.724ZM333.491 406.283V417.41H331.948L326.292 409.249H326.189V417.41H324.51V406.283H326.064L331.726 414.454H331.829V406.283H333.491ZM343.471 409.798C343.366 409.469 343.225 409.173 343.047 408.913C342.873 408.648 342.665 408.424 342.422 408.239C342.18 408.05 341.902 407.907 341.591 407.81C341.283 407.712 340.944 407.663 340.575 407.663C339.948 407.663 339.383 407.824 338.88 408.146C338.376 408.469 337.978 408.942 337.684 409.565C337.395 410.184 337.25 410.943 337.25 411.841C337.25 412.743 337.396 413.505 337.69 414.128C337.983 414.751 338.385 415.224 338.896 415.547C339.407 415.869 339.988 416.03 340.64 416.03C341.245 416.03 341.772 415.907 342.221 415.661C342.674 415.414 343.024 415.067 343.27 414.617C343.52 414.165 343.645 413.632 343.645 413.02L344.079 413.102H340.896V411.716H345.269V412.982C345.269 413.917 345.07 414.728 344.672 415.416C344.277 416.101 343.73 416.63 343.031 417.003C342.335 417.376 341.538 417.562 340.64 417.562C339.633 417.562 338.749 417.33 337.989 416.867C337.232 416.403 336.641 415.746 336.217 414.895C335.794 414.04 335.582 413.026 335.582 411.852C335.582 410.965 335.705 410.168 335.951 409.461C336.198 408.755 336.543 408.156 336.989 407.663C337.438 407.167 337.965 406.788 338.57 406.527C339.179 406.263 339.843 406.131 340.564 406.131C341.165 406.131 341.725 406.219 342.243 406.397C342.765 406.574 343.228 406.826 343.634 407.152C344.043 407.478 344.382 407.866 344.65 408.315C344.918 408.76 345.099 409.255 345.193 409.798H343.471ZM349.384 415.889L349.302 416.481C349.248 416.916 349.155 417.369 349.025 417.839C348.898 418.314 348.766 418.754 348.628 419.16C348.494 419.565 348.384 419.888 348.297 420.127H347.145C347.192 419.902 347.257 419.598 347.341 419.214C347.424 418.834 347.505 418.408 347.585 417.937C347.665 417.466 347.725 416.986 347.764 416.497L347.819 415.889H349.384ZM360.003 406.283H361.676V414.172C361.676 414.886 361.535 415.496 361.252 416.003C360.974 416.51 360.581 416.898 360.073 417.166C359.566 417.43 358.972 417.562 358.291 417.562C357.665 417.562 357.101 417.448 356.602 417.22C356.105 416.992 355.712 416.66 355.423 416.226C355.136 415.787 354.993 415.255 354.993 414.628H356.661C356.661 414.936 356.732 415.202 356.873 415.427C357.018 415.652 357.216 415.827 357.466 415.954C357.719 416.077 358.009 416.139 358.335 416.139C358.69 416.139 358.99 416.065 359.237 415.916C359.487 415.764 359.677 415.541 359.807 415.248C359.938 414.954 360.003 414.596 360.003 414.172V406.283ZM364.12 417.41V406.283H368.086C368.952 406.283 369.669 406.44 370.238 406.756C370.806 407.071 371.232 407.502 371.515 408.049C371.797 408.592 371.938 409.204 371.938 409.885C371.938 410.57 371.795 411.185 371.509 411.732C371.227 412.276 370.799 412.707 370.227 413.026C369.658 413.341 368.943 413.498 368.081 413.498H365.353V412.075H367.929C368.476 412.075 368.919 411.981 369.26 411.792C369.6 411.6 369.85 411.339 370.01 411.01C370.169 410.68 370.249 410.305 370.249 409.885C370.249 409.465 370.169 409.092 370.01 408.766C369.85 408.44 369.598 408.185 369.254 408C368.914 407.815 368.465 407.723 367.907 407.723H365.799V417.41H364.12ZM373.906 417.41V406.283H380.883V407.728H375.585V411.118H380.519V412.558H375.585V415.965H380.948V417.41H373.906ZM390.656 409.798C390.551 409.469 390.41 409.173 390.232 408.913C390.058 408.648 389.85 408.424 389.607 408.239C389.365 408.05 389.087 407.907 388.776 407.81C388.468 407.712 388.129 407.663 387.76 407.663C387.133 407.663 386.568 407.824 386.065 408.146C385.561 408.469 385.163 408.942 384.869 409.565C384.58 410.184 384.435 410.943 384.435 411.841C384.435 412.743 384.581 413.505 384.875 414.128C385.168 414.751 385.57 415.224 386.081 415.547C386.592 415.869 387.173 416.03 387.825 416.03C388.43 416.03 388.957 415.907 389.406 415.661C389.859 415.414 390.208 415.067 390.455 414.617C390.705 414.165 390.83 413.632 390.83 413.02L391.264 413.102H388.08V411.716H392.454V412.982C392.454 413.917 392.255 414.728 391.857 415.416C391.462 416.101 390.915 416.63 390.216 417.003C389.52 417.376 388.723 417.562 387.825 417.562C386.818 417.562 385.934 417.33 385.174 416.867C384.417 416.403 383.826 415.746 383.402 414.895C382.979 414.04 382.767 413.026 382.767 411.852C382.767 410.965 382.89 410.168 383.136 409.461C383.383 408.755 383.728 408.156 384.174 407.663C384.623 407.167 385.15 406.788 385.755 406.527C386.364 406.263 387.028 406.131 387.749 406.131C388.35 406.131 388.91 406.219 389.428 406.397C389.949 406.574 390.413 406.826 390.819 407.152C391.228 407.478 391.567 407.866 391.835 408.315C392.103 408.76 392.284 409.255 392.378 409.798H390.656ZM396.569 415.889L396.487 416.481C396.433 416.916 396.34 417.369 396.21 417.839C396.083 418.314 395.951 418.754 395.813 419.16C395.679 419.565 395.569 419.888 395.482 420.127H394.33C394.377 419.902 394.442 419.598 394.526 419.214C394.609 418.834 394.69 418.408 394.77 417.937C394.85 417.466 394.91 416.986 394.949 416.497L395.004 415.889H396.569ZM407.188 406.283H408.861V414.172C408.861 414.886 408.72 415.496 408.437 416.003C408.159 416.51 407.766 416.898 407.258 417.166C406.751 417.43 406.157 417.562 405.476 417.562C404.85 417.562 404.286 417.448 403.787 417.22C403.29 416.992 402.897 416.66 402.608 416.226C402.321 415.787 402.178 415.255 402.178 414.628H403.846C403.846 414.936 403.917 415.202 404.058 415.427C404.203 415.652 404.401 415.827 404.65 415.954C404.904 416.077 405.194 416.139 405.52 416.139C405.875 416.139 406.175 416.065 406.422 415.916C406.672 415.764 406.862 415.541 406.992 415.248C407.123 414.954 407.188 414.596 407.188 414.172V406.283ZM411.305 417.41V406.283H415.271C416.137 406.283 416.854 406.44 417.423 406.756C417.991 407.071 418.417 407.502 418.699 408.049C418.982 408.592 419.123 409.204 419.123 409.885C419.123 410.57 418.98 411.185 418.694 411.732C418.412 412.276 417.984 412.707 417.412 413.026C416.843 413.341 416.128 413.498 415.266 413.498H412.538V412.075H415.114C415.66 412.075 416.104 411.981 416.445 411.792C416.785 411.6 417.035 411.339 417.194 411.01C417.354 410.68 417.434 410.305 417.434 409.885C417.434 409.465 417.354 409.092 417.194 408.766C417.035 408.44 416.783 408.185 416.439 408C416.099 407.815 415.65 407.723 415.092 407.723H412.984V417.41H411.305ZM428.622 409.798C428.517 409.469 428.376 409.173 428.198 408.913C428.024 408.648 427.816 408.424 427.573 408.239C427.331 408.05 427.054 407.907 426.742 407.81C426.434 407.712 426.095 407.663 425.726 407.663C425.099 407.663 424.534 407.824 424.031 408.146C423.527 408.469 423.129 408.942 422.836 409.565C422.546 410.184 422.401 410.943 422.401 411.841C422.401 412.743 422.548 413.505 422.841 414.128C423.134 414.751 423.536 415.224 424.047 415.547C424.558 415.869 425.139 416.03 425.791 416.03C426.396 416.03 426.923 415.907 427.372 415.661C427.825 415.414 428.175 415.067 428.421 414.617C428.671 414.165 428.796 413.632 428.796 413.02L429.23 413.102H426.047V411.716H430.42V412.982C430.42 413.917 430.221 414.728 429.823 415.416C429.428 416.101 428.881 416.63 428.182 417.003C427.486 417.376 426.69 417.562 425.791 417.562C424.784 417.562 423.9 417.33 423.14 416.867C422.383 416.403 421.792 415.746 421.369 414.895C420.945 414.04 420.733 413.026 420.733 411.852C420.733 410.965 420.856 410.168 421.102 409.461C421.349 408.755 421.695 408.156 422.14 407.663C422.589 407.167 423.116 406.788 423.721 406.527C424.33 406.263 424.994 406.131 425.715 406.131C426.316 406.131 426.876 406.219 427.394 406.397C427.916 406.574 428.379 406.826 428.785 407.152C429.194 407.478 429.533 407.866 429.801 408.315C430.069 408.76 430.25 409.255 430.344 409.798H428.622ZM434.535 415.889L434.453 416.481C434.399 416.916 434.306 417.369 434.176 417.839C434.049 418.314 433.917 418.754 433.779 419.16C433.645 419.565 433.535 419.888 433.448 420.127H432.296C432.343 419.902 432.408 419.598 432.492 419.214C432.575 418.834 432.657 418.408 432.736 417.937C432.816 417.466 432.876 416.986 432.916 416.497L432.97 415.889H434.535ZM444.431 417.41H440.829V406.283H444.545C445.636 406.283 446.572 406.506 447.354 406.951C448.137 407.393 448.736 408.029 449.153 408.858C449.573 409.684 449.783 410.675 449.783 411.83C449.783 412.989 449.571 413.985 449.147 414.819C448.727 415.652 448.119 416.293 447.322 416.742C446.525 417.187 445.561 417.41 444.431 417.41ZM442.508 415.943H444.339C445.187 415.943 445.891 415.784 446.452 415.465C447.014 415.143 447.434 414.677 447.713 414.069C447.992 413.457 448.131 412.71 448.131 411.83C448.131 410.957 447.992 410.217 447.713 409.608C447.438 409 447.027 408.538 446.48 408.223C445.933 407.907 445.254 407.75 444.442 407.75H442.508V415.943ZM461.536 411.847C461.536 413.035 461.319 414.056 460.885 414.911C460.45 415.762 459.854 416.418 459.097 416.878C458.344 417.334 457.487 417.562 456.527 417.562C455.564 417.562 454.703 417.334 453.946 416.878C453.193 416.418 452.599 415.76 452.164 414.905C451.729 414.051 451.512 413.031 451.512 411.847C451.512 410.658 451.729 409.639 452.164 408.788C452.599 407.933 453.193 407.277 453.946 406.821C454.703 406.361 455.564 406.131 456.527 406.131C457.487 406.131 458.344 406.361 459.097 406.821C459.854 407.277 460.45 407.933 460.885 408.788C461.319 409.639 461.536 410.658 461.536 411.847ZM459.874 411.847C459.874 410.941 459.727 410.179 459.434 409.559C459.144 408.936 458.746 408.465 458.239 408.146C457.735 407.824 457.165 407.663 456.527 407.663C455.886 407.663 455.314 407.824 454.81 408.146C454.307 408.465 453.908 408.936 453.615 409.559C453.325 410.179 453.18 410.941 453.18 411.847C453.18 412.752 453.325 413.516 453.615 414.139C453.908 414.759 454.307 415.23 454.81 415.552C455.314 415.871 455.886 416.03 456.527 416.03C457.165 416.03 457.735 415.871 458.239 415.552C458.746 415.23 459.144 414.759 459.434 414.139C459.727 413.516 459.874 412.752 459.874 411.847ZM472.872 409.901H471.176C471.111 409.539 470.99 409.22 470.812 408.945C470.635 408.67 470.418 408.436 470.16 408.244C469.903 408.052 469.615 407.907 469.297 407.81C468.981 407.712 468.646 407.663 468.291 407.663C467.65 407.663 467.076 407.824 466.569 408.146C466.066 408.469 465.667 408.942 465.374 409.565C465.084 410.188 464.939 410.948 464.939 411.847C464.939 412.752 465.084 413.516 465.374 414.139C465.667 414.762 466.067 415.233 466.574 415.552C467.082 415.871 467.652 416.03 468.286 416.03C468.637 416.03 468.971 415.983 469.286 415.889C469.604 415.791 469.892 415.648 470.15 415.46C470.407 415.271 470.624 415.041 470.802 414.77C470.983 414.494 471.108 414.179 471.176 413.824L472.872 413.83C472.781 414.377 472.605 414.88 472.345 415.34C472.087 415.796 471.756 416.191 471.35 416.525C470.948 416.854 470.488 417.11 469.97 417.291C469.452 417.472 468.887 417.562 468.275 417.562C467.312 417.562 466.453 417.334 465.7 416.878C464.946 416.418 464.352 415.76 463.918 414.905C463.487 414.051 463.271 413.031 463.271 411.847C463.271 410.658 463.488 409.639 463.923 408.788C464.358 407.933 464.952 407.277 465.705 406.821C466.459 406.361 467.315 406.131 468.275 406.131C468.865 406.131 469.416 406.216 469.927 406.386C470.441 406.553 470.903 406.799 471.312 407.125C471.722 407.447 472.06 407.842 472.328 408.309C472.596 408.773 472.777 409.304 472.872 409.901ZM475.914 406.283L478.577 410.635H478.663L481.326 406.283H483.271L479.804 411.847L483.293 417.41H481.337L478.663 413.118H478.577L475.903 417.41H473.947L477.495 411.847L473.969 406.283H475.914ZM486.919 415.889L486.838 416.481C486.783 416.916 486.691 417.369 486.561 417.839C486.434 418.314 486.302 418.754 486.164 419.16C486.03 419.565 485.92 419.888 485.833 420.127H484.681C484.728 419.902 484.793 419.598 484.876 419.214C484.96 418.834 485.041 418.408 485.121 417.937C485.201 417.466 485.26 416.986 485.3 416.497L485.354 415.889H486.919ZM496.816 417.41H493.214V406.283H496.93C498.02 406.283 498.957 406.506 499.739 406.951C500.521 407.393 501.121 408.029 501.537 408.858C501.958 409.684 502.168 410.675 502.168 411.83C502.168 412.989 501.956 413.985 501.532 414.819C501.112 415.652 500.503 416.293 499.706 416.742C498.909 417.187 497.946 417.41 496.816 417.41ZM494.892 415.943H496.724C497.571 415.943 498.276 415.784 498.837 415.465C499.398 415.143 499.819 414.677 500.098 414.069C500.376 413.457 500.516 412.71 500.516 411.83C500.516 410.957 500.376 410.217 500.098 409.608C499.822 409 499.411 408.538 498.864 408.223C498.317 407.907 497.638 407.75 496.827 407.75H494.892V415.943ZM513.921 411.847C513.921 413.035 513.704 414.056 513.269 414.911C512.834 415.762 512.239 416.418 511.482 416.878C510.728 417.334 509.872 417.562 508.912 417.562C507.948 417.562 507.088 417.334 506.331 416.878C505.577 416.418 504.983 415.76 504.549 414.905C504.114 414.051 503.897 413.031 503.897 411.847C503.897 410.658 504.114 409.639 504.549 408.788C504.983 407.933 505.577 407.277 506.331 406.821C507.088 406.361 507.948 406.131 508.912 406.131C509.872 406.131 510.728 406.361 511.482 406.821C512.239 407.277 512.834 407.933 513.269 408.788C513.704 409.639 513.921 410.658 513.921 411.847ZM512.259 411.847C512.259 410.941 512.112 410.179 511.818 409.559C511.529 408.936 511.13 408.465 510.623 408.146C510.12 407.824 509.549 407.663 508.912 407.663C508.271 407.663 507.698 407.824 507.195 408.146C506.691 408.465 506.293 408.936 505.999 409.559C505.71 410.179 505.565 410.941 505.565 411.847C505.565 412.752 505.71 413.516 505.999 414.139C506.293 414.759 506.691 415.23 507.195 415.552C507.698 415.871 508.271 416.03 508.912 416.03C509.549 416.03 510.12 415.871 510.623 415.552C511.13 415.23 511.529 414.759 511.818 414.139C512.112 413.516 512.259 412.752 512.259 411.847ZM525.256 409.901H523.561C523.496 409.539 523.374 409.22 523.197 408.945C523.019 408.67 522.802 408.436 522.545 408.244C522.288 408.052 522 407.907 521.681 407.81C521.366 407.712 521.031 407.663 520.676 407.663C520.035 407.663 519.461 407.824 518.954 408.146C518.45 408.469 518.052 408.942 517.758 409.565C517.469 410.188 517.324 410.948 517.324 411.847C517.324 412.752 517.469 413.516 517.758 414.139C518.052 414.762 518.452 415.233 518.959 415.552C519.466 415.871 520.037 416.03 520.671 416.03C521.022 416.03 521.355 415.983 521.67 415.889C521.989 415.791 522.277 415.648 522.534 415.46C522.791 415.271 523.009 415.041 523.186 414.77C523.367 414.494 523.492 414.179 523.561 413.824L525.256 413.83C525.166 414.377 524.99 414.88 524.729 415.34C524.472 415.796 524.141 416.191 523.735 416.525C523.333 416.854 522.873 417.11 522.355 417.291C521.837 417.472 521.272 417.562 520.66 417.562C519.696 417.562 518.838 417.334 518.084 416.878C517.331 416.418 516.737 415.76 516.302 414.905C515.871 414.051 515.656 413.031 515.656 411.847C515.656 410.658 515.873 409.639 516.308 408.788C516.742 407.933 517.336 407.277 518.09 406.821C518.843 406.361 519.7 406.131 520.66 406.131C521.25 406.131 521.801 406.216 522.311 406.386C522.826 406.553 523.288 406.799 523.697 407.125C524.106 407.447 524.445 407.842 524.713 408.309C524.981 408.773 525.162 409.304 525.256 409.901Z" fill="black" fill-opacity="0.5"/>
<rect x="361.883" y="286.41" width="68" height="68" rx="34" stroke="black" stroke-opacity="0.1" stroke-width="2"/>
<g clip-path="url(#clip0_116_150)">
<path d="M399.133 326.087H402.992C405.785 326.087 408.07 324.604 408.07 321.842C408.07 319.08 405.379 317.704 403.195 317.596C402.744 313.277 399.59 310.649 395.883 310.649C392.379 310.649 390.122 312.975 389.383 315.281C386.336 315.57 383.695 317.509 383.695 320.684C383.695 323.859 386.438 326.087 389.789 326.087H392.633" stroke="black" stroke-width="1.625" stroke-linecap="round" stroke-linejoin="round"/>
<path d="M399.133 320.399L395.883 317.149L392.633 320.399M395.883 330.171V317.962" stroke="black" stroke-width="1.625" stroke-linecap="round" stroke-linejoin="round"/>
</g>
<path d="M72.2028 110.19C70.1028 110.19 68.2828 109.805 66.7428 109.035C65.2261 108.265 64.0478 107.168 63.2078 105.745C62.3678 104.298 61.9478 102.607 61.9478 100.67V84.7449H67.2678V100.67C67.2678 102.28 67.6878 103.528 68.5278 104.415C69.3911 105.278 70.6161 105.71 72.2028 105.71C73.7895 105.71 75.0028 105.278 75.8428 104.415C76.6828 103.528 77.1028 102.28 77.1028 100.67V84.7449H82.4228V100.67C82.4228 102.607 82.0028 104.298 81.1628 105.745C80.3461 107.168 79.1678 108.265 77.6278 109.035C76.0878 109.805 74.2795 110.19 72.2028 110.19ZM87.8022 114.88V90.8699H92.8422L92.9472 94.8249L92.5272 94.6499C92.9939 93.2965 93.7522 92.2582 94.8022 91.5349C95.8522 90.8115 97.0772 90.4499 98.4772 90.4499C100.227 90.4499 101.686 90.8815 102.852 91.7449C104.019 92.6082 104.894 93.7865 105.477 95.2799C106.084 96.7499 106.387 98.4065 106.387 100.25C106.387 102.07 106.084 103.727 105.477 105.22C104.894 106.713 104.007 107.892 102.817 108.755C101.651 109.618 100.192 110.05 98.4422 110.05C97.5322 110.05 96.6805 109.887 95.8872 109.56C95.0939 109.21 94.4055 108.732 93.8222 108.125C93.2622 107.518 92.8539 106.795 92.5972 105.955L93.0522 105.675V114.88H87.8022ZM97.0072 106.025C98.2439 106.025 99.2122 105.512 99.9122 104.485C100.636 103.458 100.997 102.047 100.997 100.25C100.997 98.4532 100.636 97.0415 99.9122 96.0149C99.2122 94.9882 98.2439 94.4749 97.0072 94.4749C96.1905 94.4749 95.4789 94.6965 94.8722 95.1399C94.2889 95.5599 93.8339 96.2015 93.5072 97.0649C93.2039 97.9282 93.0522 98.9899 93.0522 100.25C93.0522 101.51 93.2039 102.572 93.5072 103.435C93.8339 104.298 94.2889 104.952 94.8722 105.395C95.4789 105.815 96.1905 106.025 97.0072 106.025ZM115.714 109.63C114.174 109.63 112.972 109.245 112.109 108.475C111.246 107.705 110.814 106.457 110.814 104.73V84.7799H116.064V104.17C116.064 104.73 116.192 105.127 116.449 105.36C116.706 105.593 117.079 105.71 117.569 105.71H118.829V109.63H115.714ZM130.949 110.05C129.035 110.05 127.367 109.653 125.944 108.86C124.52 108.043 123.412 106.9 122.619 105.43C121.825 103.96 121.429 102.233 121.429 100.25C121.429 98.2665 121.825 96.5515 122.619 95.1049C123.412 93.6349 124.52 92.4915 125.944 91.6749C127.367 90.8582 129.035 90.4499 130.949 90.4499C132.862 90.4499 134.53 90.8582 135.954 91.6749C137.377 92.4915 138.485 93.6349 139.279 95.1049C140.072 96.5515 140.469 98.2665 140.469 100.25C140.469 102.233 140.072 103.96 139.279 105.43C138.485 106.9 137.377 108.043 135.954 108.86C134.53 109.653 132.862 110.05 130.949 110.05ZM130.949 106.025C132.255 106.025 133.27 105.523 133.994 104.52C134.717 103.493 135.079 102.07 135.079 100.25C135.079 98.4299 134.717 97.0182 133.994 96.0149C133.27 94.9882 132.255 94.4749 130.949 94.4749C129.642 94.4749 128.627 94.9882 127.904 96.0149C127.18 97.0182 126.819 98.4299 126.819 100.25C126.819 102.07 127.18 103.493 127.904 104.52C128.627 105.523 129.642 106.025 130.949 106.025ZM150.474 110.05C148.537 110.05 146.95 109.607 145.714 108.72C144.5 107.81 143.894 106.55 143.894 104.94C143.894 103.283 144.407 102.012 145.434 101.125C146.484 100.215 148.024 99.5499 150.054 99.1299L156.109 97.9399C156.109 96.7265 155.829 95.8165 155.269 95.2099C154.732 94.5799 153.95 94.2649 152.924 94.2649C151.92 94.2649 151.139 94.4982 150.579 94.9649C150.019 95.4082 149.657 96.0732 149.494 96.9599L144.209 96.7149C144.559 94.6615 145.48 93.1099 146.974 92.0599C148.49 90.9865 150.474 90.4499 152.924 90.4499C155.724 90.4499 157.824 91.1149 159.224 92.4449C160.647 93.7749 161.359 95.7232 161.359 98.2899V104.695C161.359 105.232 161.44 105.593 161.604 105.78C161.79 105.943 162.059 106.025 162.409 106.025H162.934V109.63C162.77 109.677 162.502 109.723 162.129 109.77C161.779 109.817 161.429 109.84 161.079 109.84C160.332 109.84 159.632 109.712 158.979 109.455C158.349 109.198 157.835 108.767 157.439 108.16C157.042 107.53 156.844 106.643 156.844 105.5L157.299 105.85C157.065 106.69 156.645 107.425 156.039 108.055C155.455 108.685 154.685 109.175 153.729 109.525C152.795 109.875 151.71 110.05 150.474 110.05ZM151.734 106.445C152.597 106.445 153.355 106.282 154.009 105.955C154.662 105.605 155.175 105.103 155.549 104.45C155.922 103.797 156.109 103.027 156.109 102.14V101.23L151.839 102.14C150.999 102.303 150.357 102.583 149.914 102.98C149.494 103.353 149.284 103.843 149.284 104.45C149.284 105.08 149.494 105.57 149.914 105.92C150.334 106.27 150.94 106.445 151.734 106.445ZM173.033 110.05C171.446 110.05 170.07 109.653 168.903 108.86C167.76 108.043 166.873 106.912 166.243 105.465C165.636 103.995 165.333 102.257 165.333 100.25C165.333 98.2432 165.648 96.5165 166.278 95.0699C166.908 93.5999 167.795 92.4682 168.938 91.6749C170.105 90.8582 171.47 90.4499 173.033 90.4499C174.363 90.4499 175.506 90.7299 176.463 91.2899C177.443 91.8265 178.178 92.5732 178.668 93.5299V84.7799H183.918V109.63H178.913L178.808 106.865C178.295 107.868 177.525 108.65 176.498 109.21C175.495 109.77 174.34 110.05 173.033 110.05ZM174.748 106.025C175.588 106.025 176.3 105.803 176.883 105.36C177.466 104.917 177.91 104.275 178.213 103.435C178.516 102.572 178.668 101.51 178.668 100.25C178.668 98.9665 178.516 97.9049 178.213 97.0649C177.91 96.2015 177.466 95.5599 176.883 95.1399C176.3 94.6965 175.588 94.4749 174.748 94.4749C173.511 94.4749 172.531 94.9999 171.808 96.0499C171.085 97.0765 170.723 98.4765 170.723 100.25C170.723 102 171.085 103.4 171.808 104.45C172.555 105.5 173.535 106.025 174.748 106.025ZM200.035 114.88V110.96H202.52C203.126 110.96 203.57 110.867 203.85 110.68C204.153 110.517 204.386 110.213 204.55 109.77L204.935 108.685H203.5L196.92 90.8699H202.275L206.58 103.785L210.605 90.8699H215.96L208.75 111.415C208.33 112.652 207.723 113.538 206.93 114.075C206.136 114.612 205.028 114.88 203.605 114.88H200.035ZM227.516 110.05C225.603 110.05 223.935 109.653 222.511 108.86C221.088 108.043 219.98 106.9 219.186 105.43C218.393 103.96 217.996 102.233 217.996 100.25C217.996 98.2665 218.393 96.5515 219.186 95.1049C219.98 93.6349 221.088 92.4915 222.511 91.6749C223.935 90.8582 225.603 90.4499 227.516 90.4499C229.43 90.4499 231.098 90.8582 232.521 91.6749C233.945 92.4915 235.053 93.6349 235.846 95.1049C236.64 96.5515 237.036 98.2665 237.036 100.25C237.036 102.233 236.64 103.96 235.846 105.43C235.053 106.9 233.945 108.043 232.521 108.86C231.098 109.653 229.43 110.05 227.516 110.05ZM227.516 106.025C228.823 106.025 229.838 105.523 230.561 104.52C231.285 103.493 231.646 102.07 231.646 100.25C231.646 98.4299 231.285 97.0182 230.561 96.0149C229.838 94.9882 228.823 94.4749 227.516 94.4749C226.21 94.4749 225.195 94.9882 224.471 96.0149C223.748 97.0182 223.386 98.4299 223.386 100.25C223.386 102.07 223.748 103.493 224.471 104.52C225.195 105.523 226.21 106.025 227.516 106.025ZM247.465 110.05C245.528 110.05 244.012 109.432 242.915 108.195C241.842 106.935 241.305 105.185 241.305 102.945V90.8699H246.555V101.72C246.555 103.167 246.777 104.228 247.22 104.905C247.663 105.558 248.363 105.885 249.32 105.885C250.393 105.885 251.222 105.523 251.805 104.8C252.412 104.053 252.715 102.945 252.715 101.475V90.8699H257.965V109.63H253.17L253.03 104.24L253.695 104.38C253.415 106.247 252.75 107.658 251.7 108.615C250.65 109.572 249.238 110.05 247.465 110.05ZM263.565 109.63V90.8699H268.535L268.71 96.3299L268.325 96.2249C268.628 94.3349 269.165 92.9699 269.935 92.1299C270.705 91.2899 271.767 90.8699 273.12 90.8699H274.835V95.2099H273.12C272.14 95.2099 271.335 95.3382 270.705 95.5949C270.075 95.8515 269.597 96.2599 269.27 96.8199C268.967 97.3799 268.815 98.1382 268.815 99.0949V109.63H263.565ZM295.082 110.05C293.495 110.05 292.119 109.653 290.952 108.86C289.809 108.043 288.922 106.912 288.292 105.465C287.685 103.995 287.382 102.257 287.382 100.25C287.382 98.2432 287.697 96.5165 288.327 95.0699C288.957 93.5999 289.844 92.4682 290.987 91.6749C292.154 90.8582 293.519 90.4499 295.082 90.4499C296.412 90.4499 297.555 90.7299 298.512 91.2899C299.492 91.8265 300.227 92.5732 300.717 93.5299V84.7799H305.967V109.63H300.962L300.857 106.865C300.344 107.868 299.574 108.65 298.547 109.21C297.544 109.77 296.389 110.05 295.082 110.05ZM296.797 106.025C297.637 106.025 298.349 105.803 298.932 105.36C299.515 104.917 299.959 104.275 300.262 103.435C300.565 102.572 300.717 101.51 300.717 100.25C300.717 98.9665 300.565 97.9049 300.262 97.0649C299.959 96.2015 299.515 95.5599 298.932 95.1399C298.349 94.6965 297.637 94.4749 296.797 94.4749C295.56 94.4749 294.58 94.9999 293.857 96.0499C293.134 97.0765 292.772 98.4765 292.772 100.25C292.772 102 293.134 103.4 293.857 104.45C294.604 105.5 295.584 106.025 296.797 106.025ZM319.743 110.05C317.829 110.05 316.161 109.653 314.738 108.86C313.314 108.043 312.206 106.9 311.413 105.43C310.619 103.96 310.223 102.233 310.223 100.25C310.223 98.2665 310.619 96.5515 311.413 95.1049C312.206 93.6349 313.314 92.4915 314.738 91.6749C316.161 90.8582 317.829 90.4499 319.743 90.4499C321.656 90.4499 323.324 90.8582 324.748 91.6749C326.171 92.4915 327.279 93.6349 328.073 95.1049C328.866 96.5515 329.263 98.2665 329.263 100.25C329.263 102.233 328.866 103.96 328.073 105.43C327.279 106.9 326.171 108.043 324.748 108.86C323.324 109.653 321.656 110.05 319.743 110.05ZM319.743 106.025C321.049 106.025 322.064 105.523 322.788 104.52C323.511 103.493 323.873 102.07 323.873 100.25C323.873 98.4299 323.511 97.0182 322.788 96.0149C322.064 94.9882 321.049 94.4749 319.743 94.4749C318.436 94.4749 317.421 94.9882 316.698 96.0149C315.974 97.0182 315.613 98.4299 315.613 100.25C315.613 102.07 315.974 103.493 316.698 104.52C317.421 105.523 318.436 106.025 319.743 106.025ZM342.037 110.05C340.123 110.05 338.455 109.653 337.032 108.86C335.608 108.043 334.5 106.9 333.707 105.43C332.913 103.96 332.517 102.233 332.517 100.25C332.517 98.2665 332.913 96.5515 333.707 95.1049C334.5 93.6349 335.608 92.4915 337.032 91.6749C338.455 90.8582 340.123 90.4499 342.037 90.4499C343.693 90.4499 345.175 90.7415 346.482 91.3249C347.812 91.9082 348.885 92.7482 349.702 93.8449C350.518 94.9415 351.02 96.2599 351.207 97.7999L345.782 98.0449C345.618 96.8782 345.198 96.0032 344.522 95.4199C343.868 94.8132 343.04 94.5099 342.037 94.5099C340.73 94.5099 339.715 95.0115 338.992 96.0149C338.268 97.0182 337.907 98.4299 337.907 100.25C337.907 102.07 338.268 103.493 338.992 104.52C339.715 105.523 340.73 106.025 342.037 106.025C343.04 106.025 343.88 105.722 344.557 105.115C345.233 104.485 345.642 103.54 345.782 102.28L351.207 102.49C351.043 104.03 350.553 105.372 349.737 106.515C348.943 107.635 347.882 108.51 346.552 109.14C345.245 109.747 343.74 110.05 342.037 110.05ZM361.268 110.05C359.331 110.05 357.815 109.432 356.718 108.195C355.645 106.935 355.108 105.185 355.108 102.945V90.8699H360.358V101.72C360.358 103.167 360.58 104.228 361.023 104.905C361.466 105.558 362.166 105.885 363.123 105.885C364.196 105.885 365.025 105.523 365.608 104.8C366.215 104.053 366.518 102.945 366.518 101.475V90.8699H371.768V109.63H366.973L366.833 104.24L367.498 104.38C367.218 106.247 366.553 107.658 365.503 108.615C364.453 109.572 363.041 110.05 361.268 110.05ZM377.368 109.63V90.8699H382.093L382.268 95.3849L381.778 95.1749C382.034 94.1715 382.419 93.3199 382.933 92.6199C383.469 91.9199 384.111 91.3832 384.858 91.0099C385.604 90.6365 386.421 90.4499 387.308 90.4499C388.871 90.4499 390.131 90.9049 391.088 91.8149C392.068 92.7249 392.698 93.9499 392.978 95.4899L392.313 95.5249C392.523 94.4282 392.884 93.5065 393.398 92.7599C393.934 91.9899 394.588 91.4182 395.358 91.0449C396.128 90.6482 396.991 90.4499 397.948 90.4499C399.254 90.4499 400.374 90.7182 401.308 91.2549C402.241 91.7915 402.964 92.5965 403.478 93.6699C403.991 94.7199 404.248 96.0149 404.248 97.5549V109.63H398.998V99.0249C398.998 97.5549 398.776 96.4582 398.333 95.7349C397.889 94.9882 397.166 94.6149 396.163 94.6149C395.533 94.6149 394.996 94.7899 394.553 95.1399C394.109 95.4899 393.759 96.0032 393.503 96.6799C393.269 97.3332 393.153 98.1382 393.153 99.0949V109.63H388.428V99.0949C388.428 97.6482 388.218 96.5399 387.798 95.7699C387.378 94.9999 386.654 94.6149 385.628 94.6149C384.998 94.6149 384.449 94.7899 383.983 95.1399C383.539 95.4899 383.201 96.0032 382.968 96.6799C382.734 97.3565 382.618 98.1615 382.618 99.0949V109.63H377.368ZM417.872 110.05C415.959 110.05 414.29 109.653 412.867 108.86C411.467 108.043 410.37 106.9 409.577 105.43C408.807 103.96 408.422 102.233 408.422 100.25C408.422 98.2665 408.807 96.5515 409.577 95.1049C410.37 93.6349 411.467 92.4915 412.867 91.6749C414.267 90.8582 415.924 90.4499 417.837 90.4499C419.704 90.4499 421.325 90.8582 422.702 91.6749C424.079 92.4915 425.14 93.6582 425.887 95.1749C426.657 96.6915 427.042 98.4999 427.042 100.6V101.65H413.847C413.917 103.143 414.314 104.252 415.037 104.975C415.784 105.698 416.764 106.06 417.977 106.06C418.864 106.06 419.599 105.873 420.182 105.5C420.789 105.127 421.22 104.555 421.477 103.785L426.762 104.1C426.272 105.967 425.234 107.425 423.647 108.475C422.06 109.525 420.135 110.05 417.872 110.05ZM413.847 98.4299H421.652C421.582 97.0532 421.197 96.0265 420.497 95.3499C419.82 94.6732 418.934 94.3349 417.837 94.3349C416.74 94.3349 415.83 94.6965 415.107 95.4199C414.407 96.1199 413.987 97.1232 413.847 98.4299ZM431.287 109.63V90.8699H436.012L436.222 96.3649L435.557 96.1899C435.743 94.7899 436.117 93.6699 436.677 92.8299C437.26 91.9899 437.983 91.3832 438.847 91.0099C439.71 90.6365 440.655 90.4499 441.682 90.4499C443.035 90.4499 444.178 90.7415 445.112 91.3249C446.068 91.9082 446.792 92.7365 447.282 93.8099C447.795 94.8599 448.052 96.1082 448.052 97.5549V109.63H442.802V99.3049C442.802 98.3015 442.72 97.4499 442.557 96.7499C442.393 96.0499 442.102 95.5249 441.682 95.1749C441.262 94.8015 440.678 94.6149 439.932 94.6149C438.835 94.6149 437.995 95.0232 437.412 95.8399C436.828 96.6332 436.537 97.7882 436.537 99.3049V109.63H431.287ZM460.223 109.63C458.286 109.63 456.863 109.187 455.953 108.3C455.043 107.39 454.588 105.955 454.588 103.995V86.4599H459.838V103.365C459.838 104.275 460.024 104.893 460.398 105.22C460.794 105.547 461.378 105.71 462.148 105.71H464.773V109.63H460.223ZM451.578 94.7899V90.8699H464.773V94.7899H451.578ZM476.575 110.05C474.638 110.05 473.017 109.782 471.71 109.245C470.403 108.685 469.4 107.938 468.7 107.005C468.023 106.048 467.638 104.952 467.545 103.715L472.865 103.54C473.028 104.427 473.402 105.115 473.985 105.605C474.568 106.095 475.432 106.34 476.575 106.34C477.508 106.34 478.232 106.188 478.745 105.885C479.282 105.582 479.55 105.115 479.55 104.485C479.55 104.088 479.457 103.762 479.27 103.505C479.083 103.225 478.71 102.992 478.15 102.805C477.613 102.595 476.808 102.408 475.735 102.245C473.752 101.895 472.2 101.487 471.08 101.02C469.96 100.553 469.167 99.9465 468.7 99.1999C468.233 98.4532 468 97.5432 468 96.4699C468 94.6732 468.688 93.2265 470.065 92.1299C471.465 91.0099 473.553 90.4499 476.33 90.4499C478.103 90.4499 479.585 90.7299 480.775 91.2899C481.988 91.8499 482.922 92.6199 483.575 93.5999C484.252 94.5565 484.672 95.6532 484.835 96.8899L479.55 97.0999C479.48 96.4932 479.293 95.9799 478.99 95.5599C478.71 95.1165 478.348 94.7782 477.905 94.5449C477.462 94.2882 476.925 94.1599 476.295 94.1599C475.362 94.1599 474.638 94.3582 474.125 94.7549C473.635 95.1282 473.39 95.6299 473.39 96.2599C473.39 96.7265 473.495 97.1115 473.705 97.4149C473.938 97.6949 474.312 97.9282 474.825 98.1149C475.338 98.3015 476.027 98.4532 476.89 98.5699C478.897 98.8499 480.483 99.2465 481.65 99.7599C482.84 100.25 483.692 100.868 484.205 101.615C484.718 102.362 484.975 103.283 484.975 104.38C484.975 105.593 484.625 106.62 483.925 107.46C483.225 108.3 482.245 108.942 480.985 109.385C479.748 109.828 478.278 110.05 476.575 110.05Z" fill="black"/>
<rect x="577.648" y="698.463" width="174.619" height="59.8131" rx="29.9065" fill="black"/>
<path d="M619.575 727.959C619.575 726.599 619.888 725.379 620.515 724.299C621.155 723.219 622.015 722.379 623.095 721.779C624.188 721.166 625.382 720.859 626.675 720.859C628.155 720.859 629.468 721.226 630.615 721.959C631.775 722.679 632.615 723.706 633.135 725.039H630.395C630.035 724.306 629.535 723.759 628.895 723.399C628.255 723.039 627.515 722.859 626.675 722.859C625.755 722.859 624.935 723.066 624.215 723.479C623.495 723.893 622.928 724.486 622.515 725.259C622.115 726.033 621.915 726.933 621.915 727.959C621.915 728.986 622.115 729.886 622.515 730.659C622.928 731.433 623.495 732.033 624.215 732.459C624.935 732.873 625.755 733.079 626.675 733.079C627.515 733.079 628.255 732.899 628.895 732.539C629.535 732.179 630.035 731.633 630.395 730.899H633.135C632.615 732.233 631.775 733.259 630.615 733.979C629.468 734.699 628.155 735.059 626.675 735.059C625.368 735.059 624.175 734.759 623.095 734.159C622.015 733.546 621.155 732.699 620.515 731.619C619.888 730.539 619.575 729.319 619.575 727.959ZM640.584 735.119C639.544 735.119 638.604 734.886 637.764 734.419C636.924 733.939 636.264 733.273 635.784 732.419C635.304 731.553 635.064 730.553 635.064 729.419C635.064 728.299 635.31 727.306 635.804 726.439C636.297 725.573 636.97 724.906 637.824 724.439C638.677 723.973 639.63 723.739 640.684 723.739C641.737 723.739 642.69 723.973 643.544 724.439C644.397 724.906 645.07 725.573 645.564 726.439C646.057 727.306 646.304 728.299 646.304 729.419C646.304 730.539 646.05 731.533 645.544 732.399C645.037 733.266 644.344 733.939 643.464 734.419C642.597 734.886 641.637 735.119 640.584 735.119ZM640.584 733.139C641.17 733.139 641.717 732.999 642.224 732.719C642.744 732.439 643.164 732.019 643.484 731.459C643.804 730.899 643.964 730.219 643.964 729.419C643.964 728.619 643.81 727.946 643.504 727.399C643.197 726.839 642.79 726.419 642.284 726.139C641.777 725.859 641.23 725.719 640.644 725.719C640.057 725.719 639.51 725.859 639.004 726.139C638.51 726.419 638.117 726.839 637.824 727.399C637.53 727.946 637.384 728.619 637.384 729.419C637.384 730.606 637.684 731.526 638.284 732.179C638.897 732.819 639.664 733.139 640.584 733.139ZM654.118 723.739C654.984 723.739 655.758 723.919 656.438 724.279C657.131 724.639 657.671 725.173 658.058 725.879C658.444 726.586 658.638 727.439 658.638 728.439V734.939H656.378V728.779C656.378 727.793 656.131 727.039 655.638 726.519C655.144 725.986 654.471 725.719 653.618 725.719C652.764 725.719 652.084 725.986 651.578 726.519C651.084 727.039 650.838 727.793 650.838 728.779V734.939H648.558V723.919H650.838V725.179C651.211 724.726 651.684 724.373 652.258 724.119C652.844 723.866 653.464 723.739 654.118 723.739ZM664.206 725.779V731.879C664.206 732.293 664.299 732.593 664.486 732.779C664.686 732.953 665.019 733.039 665.486 733.039H666.886V734.939H665.086C664.059 734.939 663.273 734.699 662.726 734.219C662.179 733.739 661.906 732.959 661.906 731.879V725.779H660.606V723.919H661.906V721.179H664.206V723.919H666.886V725.779H664.206ZM670.147 722.459C669.734 722.459 669.387 722.319 669.107 722.039C668.827 721.759 668.687 721.413 668.687 720.999C668.687 720.586 668.827 720.239 669.107 719.959C669.387 719.679 669.734 719.539 670.147 719.539C670.547 719.539 670.887 719.679 671.167 719.959C671.447 720.239 671.587 720.586 671.587 720.999C671.587 721.413 671.447 721.759 671.167 722.039C670.887 722.319 670.547 722.459 670.147 722.459ZM671.267 723.919V734.939H668.987V723.919H671.267ZM679.821 723.739C680.687 723.739 681.461 723.919 682.141 724.279C682.834 724.639 683.374 725.173 683.761 725.879C684.147 726.586 684.341 727.439 684.341 728.439V734.939H682.081V728.779C682.081 727.793 681.834 727.039 681.341 726.519C680.847 725.986 680.174 725.719 679.321 725.719C678.467 725.719 677.787 725.986 677.281 726.519C676.787 727.039 676.541 727.793 676.541 728.779V734.939H674.261V723.919H676.541V725.179C676.914 724.726 677.387 724.373 677.961 724.119C678.547 723.866 679.167 723.739 679.821 723.739ZM697.229 723.919V734.939H694.949V733.639C694.589 734.093 694.116 734.453 693.529 734.719C692.956 734.973 692.342 735.099 691.689 735.099C690.822 735.099 690.042 734.919 689.349 734.559C688.669 734.199 688.129 733.666 687.729 732.959C687.342 732.253 687.149 731.399 687.149 730.399V723.919H689.409V730.059C689.409 731.046 689.656 731.806 690.149 732.339C690.642 732.859 691.316 733.119 692.169 733.119C693.022 733.119 693.696 732.859 694.189 732.339C694.696 731.806 694.949 731.046 694.949 730.059V723.919H697.229ZM710.337 729.159C710.337 729.573 710.311 729.946 710.257 730.279H701.837C701.904 731.159 702.231 731.866 702.817 732.399C703.404 732.933 704.124 733.199 704.977 733.199C706.204 733.199 707.071 732.686 707.577 731.659H710.037C709.704 732.673 709.097 733.506 708.217 734.159C707.351 734.799 706.271 735.119 704.977 735.119C703.924 735.119 702.977 734.886 702.137 734.419C701.311 733.939 700.657 733.273 700.177 732.419C699.711 731.553 699.477 730.553 699.477 729.419C699.477 728.286 699.704 727.293 700.157 726.439C700.624 725.573 701.271 724.906 702.097 724.439C702.937 723.973 703.897 723.739 704.977 723.739C706.017 723.739 706.944 723.966 707.757 724.419C708.571 724.873 709.204 725.513 709.657 726.339C710.111 727.153 710.337 728.093 710.337 729.159ZM707.957 728.439C707.944 727.599 707.644 726.926 707.057 726.419C706.471 725.913 705.744 725.659 704.877 725.659C704.091 725.659 703.417 725.913 702.857 726.419C702.297 726.913 701.964 727.586 701.857 728.439H707.957Z" fill="white"/>
<rect x="59.8828" y="500.866" width="682.234" height="68.3578" rx="16" fill="#F9F9F9"/>
<rect x="60.3828" y="501.366" width="681.234" height="67.3578" rx="15.5" stroke="#040404" stroke-opacity="0.07"/>
<path d="M111.814 539.587C111.074 539.587 110.438 539.419 109.904 539.085C109.374 538.747 108.967 538.281 108.681 537.688C108.396 537.094 108.254 536.415 108.254 535.649C108.254 534.874 108.4 534.189 108.691 533.596C108.983 532.999 109.394 532.534 109.924 532.199C110.455 531.864 111.079 531.697 111.799 531.697C112.379 531.697 112.896 531.805 113.35 532.02C113.804 532.232 114.17 532.53 114.449 532.915C114.73 533.299 114.898 533.748 114.951 534.262H113.504C113.424 533.904 113.242 533.596 112.957 533.337C112.675 533.079 112.297 532.95 111.824 532.95C111.409 532.95 111.046 533.059 110.735 533.278C110.426 533.493 110.186 533.801 110.014 534.203C109.842 534.6 109.755 535.071 109.755 535.614C109.755 536.171 109.84 536.652 110.009 537.056C110.178 537.461 110.417 537.774 110.725 537.996C111.036 538.218 111.403 538.329 111.824 538.329C112.105 538.329 112.36 538.278 112.589 538.175C112.821 538.069 113.015 537.918 113.171 537.722C113.33 537.527 113.441 537.292 113.504 537.016H114.951C114.898 537.51 114.737 537.951 114.468 538.339C114.2 538.727 113.84 539.032 113.39 539.254C112.942 539.476 112.417 539.587 111.814 539.587ZM119.757 539.587C119.041 539.587 118.416 539.423 117.883 539.095C117.349 538.766 116.935 538.307 116.64 537.717C116.345 537.127 116.197 536.438 116.197 535.649C116.197 534.857 116.345 534.164 116.64 533.571C116.935 532.978 117.349 532.517 117.883 532.189C118.416 531.861 119.041 531.697 119.757 531.697C120.473 531.697 121.098 531.861 121.631 532.189C122.165 532.517 122.579 532.978 122.874 533.571C123.169 534.164 123.317 534.857 123.317 535.649C123.317 536.438 123.169 537.127 122.874 537.717C122.579 538.307 122.165 538.766 121.631 539.095C121.098 539.423 120.473 539.587 119.757 539.587ZM119.762 538.339C120.226 538.339 120.61 538.216 120.915 537.971C121.22 537.726 121.446 537.399 121.591 536.992C121.741 536.584 121.815 536.135 121.815 535.644C121.815 535.157 121.741 534.71 121.591 534.302C121.446 533.891 121.22 533.561 120.915 533.313C120.61 533.064 120.226 532.94 119.762 532.94C119.295 532.94 118.907 533.064 118.599 533.313C118.294 533.561 118.067 533.891 117.917 534.302C117.772 534.71 117.699 535.157 117.699 535.644C117.699 536.135 117.772 536.584 117.917 536.992C118.067 537.399 118.294 537.726 118.599 537.971C118.907 538.216 119.295 538.339 119.762 538.339ZM124.976 542.296V531.796H126.428V533.034H126.552C126.638 532.875 126.762 532.691 126.925 532.482C127.087 532.274 127.313 532.091 127.601 531.935C127.889 531.776 128.27 531.697 128.744 531.697C129.361 531.697 129.911 531.853 130.395 532.164C130.879 532.476 131.258 532.925 131.533 533.511C131.812 534.098 131.951 534.804 131.951 535.629C131.951 536.455 131.813 537.162 131.538 537.752C131.263 538.339 130.885 538.791 130.405 539.109C129.924 539.424 129.376 539.582 128.759 539.582C128.295 539.582 127.916 539.504 127.621 539.348C127.329 539.192 127.1 539.01 126.935 538.801C126.769 538.592 126.641 538.407 126.552 538.244H126.462V542.296H124.976ZM126.433 535.614C126.433 536.151 126.51 536.622 126.666 537.026C126.822 537.431 127.047 537.747 127.342 537.976C127.637 538.201 127.999 538.314 128.426 538.314C128.87 538.314 129.241 538.196 129.54 537.961C129.838 537.722 130.063 537.399 130.216 536.992C130.372 536.584 130.45 536.125 130.45 535.614C130.45 535.111 130.373 534.658 130.221 534.257C130.072 533.856 129.846 533.54 129.545 533.308C129.246 533.076 128.874 532.96 128.426 532.96C127.995 532.96 127.631 533.071 127.332 533.293C127.037 533.515 126.814 533.825 126.661 534.222C126.509 534.62 126.433 535.084 126.433 535.614ZM134.296 542.296C134.074 542.296 133.872 542.278 133.69 542.242C133.508 542.208 133.372 542.172 133.282 542.132L133.64 540.914C133.912 540.987 134.154 541.019 134.366 541.009C134.578 540.999 134.765 540.919 134.928 540.77C135.093 540.621 135.239 540.377 135.365 540.039L135.549 539.532L132.755 531.796H134.346L136.28 537.722H136.36L138.294 531.796H139.889L136.742 540.452C136.597 540.85 136.411 541.186 136.186 541.461C135.96 541.739 135.692 541.948 135.38 542.087C135.069 542.227 134.707 542.296 134.296 542.296ZM145.786 534.486V535.774H141.271V534.486H145.786ZM150.983 539.587C150.268 539.587 149.643 539.423 149.109 539.095C148.576 538.766 148.161 538.307 147.866 537.717C147.571 537.127 147.424 536.438 147.424 535.649C147.424 534.857 147.571 534.164 147.866 533.571C148.161 532.978 148.576 532.517 149.109 532.189C149.643 531.861 150.268 531.697 150.983 531.697C151.699 531.697 152.324 531.861 152.858 532.189C153.391 532.517 153.806 532.978 154.101 533.571C154.396 534.164 154.543 534.857 154.543 535.649C154.543 536.438 154.396 537.127 154.101 537.717C153.806 538.307 153.391 538.766 152.858 539.095C152.324 539.423 151.699 539.587 150.983 539.587ZM150.988 538.339C151.452 538.339 151.837 538.216 152.142 537.971C152.447 537.726 152.672 537.399 152.818 536.992C152.967 536.584 153.042 536.135 153.042 535.644C153.042 535.157 152.967 534.71 152.818 534.302C152.672 533.891 152.447 533.561 152.142 533.313C151.837 533.064 151.452 532.94 150.988 532.94C150.521 532.94 150.133 533.064 149.825 533.313C149.52 533.561 149.293 533.891 149.144 534.302C148.998 534.71 148.925 535.157 148.925 535.644C148.925 536.135 148.998 536.584 149.144 536.992C149.293 537.399 149.52 537.726 149.825 537.971C150.133 538.216 150.521 538.339 150.988 538.339ZM159.837 531.796V532.989H155.521V531.796H159.837ZM156.705 539.433V530.911C156.705 530.434 156.809 530.038 157.018 529.723C157.227 529.405 157.503 529.168 157.848 529.012C158.193 528.853 158.567 528.774 158.972 528.774C159.27 528.774 159.525 528.798 159.737 528.848C159.949 528.895 160.107 528.938 160.21 528.977L159.862 530.18C159.792 530.161 159.702 530.137 159.593 530.111C159.484 530.081 159.351 530.066 159.195 530.066C158.834 530.066 158.576 530.156 158.42 530.335C158.267 530.514 158.191 530.772 158.191 531.11V539.433H156.705ZM165.514 534.486V535.774H161V534.486H165.514ZM167.495 539.433V531.796H168.922V533.039H169.017C169.176 532.618 169.436 532.29 169.797 532.055C170.158 531.816 170.591 531.697 171.095 531.697C171.605 531.697 172.033 531.816 172.377 532.055C172.725 532.293 172.982 532.622 173.148 533.039H173.228C173.41 532.631 173.7 532.307 174.098 532.065C174.495 531.819 174.969 531.697 175.52 531.697C176.212 531.697 176.777 531.914 177.215 532.348C177.656 532.782 177.876 533.437 177.876 534.312V539.433H176.39V534.451C176.39 533.934 176.249 533.56 175.967 533.328C175.685 533.095 175.349 532.979 174.958 532.979C174.474 532.979 174.098 533.129 173.829 533.427C173.561 533.722 173.426 534.101 173.426 534.565V539.433H171.945V534.357C171.945 533.942 171.816 533.609 171.557 533.357C171.299 533.105 170.962 532.979 170.548 532.979C170.266 532.979 170.006 533.054 169.767 533.203C169.532 533.349 169.342 533.553 169.196 533.815C169.053 534.077 168.982 534.38 168.982 534.725V539.433H167.495ZM180.535 542.296C180.313 542.296 180.11 542.278 179.928 542.242C179.746 542.208 179.61 542.172 179.52 542.132L179.878 540.914C180.15 540.987 180.392 541.019 180.604 541.009C180.816 540.999 181.004 540.919 181.166 540.77C181.332 540.621 181.478 540.377 181.604 540.039L181.787 539.532L178.993 531.796H180.584L182.518 537.722H182.598L184.532 531.796H186.128L182.981 540.452C182.835 540.85 182.649 541.186 182.424 541.461C182.198 541.739 181.93 541.948 181.618 542.087C181.307 542.227 180.946 542.296 180.535 542.296ZM192.024 534.486V535.774H187.51V534.486H192.024ZM194.005 542.296V531.796H195.457V533.034H195.581C195.667 532.875 195.792 532.691 195.954 532.482C196.116 532.274 196.342 532.091 196.63 531.935C196.919 531.776 197.3 531.697 197.774 531.697C198.39 531.697 198.94 531.853 199.424 532.164C199.908 532.476 200.288 532.925 200.563 533.511C200.841 534.098 200.98 534.804 200.98 535.629C200.98 536.455 200.843 537.162 200.568 537.752C200.293 538.339 199.915 538.791 199.434 539.109C198.954 539.424 198.405 539.582 197.789 539.582C197.325 539.582 196.945 539.504 196.65 539.348C196.358 539.192 196.13 539.01 195.964 538.801C195.798 538.592 195.671 538.407 195.581 538.244H195.492V542.296H194.005ZM195.462 535.614C195.462 536.151 195.54 536.622 195.695 537.026C195.851 537.431 196.077 537.747 196.372 537.976C196.667 538.201 197.028 538.314 197.455 538.314C197.9 538.314 198.271 538.196 198.569 537.961C198.867 537.722 199.093 537.399 199.245 536.992C199.401 536.584 199.479 536.125 199.479 535.614C199.479 535.111 199.403 534.658 199.25 534.257C199.101 533.856 198.876 533.54 198.574 533.308C198.276 533.076 197.903 532.96 197.455 532.96C197.025 532.96 196.66 533.071 196.362 533.293C196.067 533.515 195.843 533.825 195.691 534.222C195.538 534.62 195.462 535.084 195.462 535.614ZM204.868 539.602C204.384 539.602 203.947 539.512 203.556 539.333C203.164 539.151 202.855 538.887 202.626 538.543C202.401 538.198 202.288 537.775 202.288 537.275C202.288 536.844 202.371 536.489 202.536 536.211C202.702 535.933 202.926 535.712 203.208 535.55C203.489 535.387 203.804 535.265 204.152 535.182C204.5 535.099 204.855 535.036 205.216 534.993C205.673 534.94 206.045 534.897 206.33 534.864C206.615 534.827 206.822 534.769 206.951 534.69C207.08 534.61 207.145 534.481 207.145 534.302V534.267C207.145 533.833 207.022 533.497 206.777 533.258C206.535 533.019 206.174 532.9 205.693 532.9C205.193 532.9 204.798 533.011 204.51 533.233C204.225 533.452 204.028 533.695 203.919 533.964L202.521 533.646C202.687 533.182 202.929 532.807 203.247 532.522C203.569 532.234 203.938 532.025 204.356 531.896C204.774 531.763 205.213 531.697 205.673 531.697C205.978 531.697 206.302 531.733 206.643 531.806C206.988 531.876 207.309 532.005 207.607 532.194C207.909 532.383 208.156 532.653 208.348 533.004C208.54 533.352 208.637 533.805 208.637 534.362V539.433H207.185V538.389H207.125C207.029 538.581 206.885 538.77 206.693 538.955C206.5 539.141 206.253 539.295 205.952 539.418C205.65 539.54 205.289 539.602 204.868 539.602ZM205.191 538.408C205.602 538.408 205.954 538.327 206.245 538.165C206.54 538.002 206.764 537.79 206.916 537.528C207.072 537.263 207.15 536.98 207.15 536.678V535.694C207.097 535.747 206.994 535.797 206.842 535.843C206.693 535.886 206.522 535.924 206.33 535.957C206.137 535.987 205.95 536.015 205.768 536.042C205.586 536.065 205.433 536.085 205.311 536.102C205.022 536.138 204.759 536.199 204.52 536.286C204.285 536.372 204.096 536.496 203.953 536.658C203.814 536.818 203.744 537.03 203.744 537.295C203.744 537.663 203.88 537.941 204.152 538.13C204.424 538.316 204.77 538.408 205.191 538.408ZM216.339 533.661L214.991 533.899C214.935 533.727 214.846 533.563 214.723 533.407C214.604 533.251 214.441 533.124 214.236 533.024C214.03 532.925 213.773 532.875 213.465 532.875C213.044 532.875 212.693 532.97 212.411 533.158C212.129 533.344 211.989 533.584 211.989 533.879C211.989 534.135 212.083 534.34 212.272 534.496C212.461 534.652 212.766 534.779 213.187 534.879L214.4 535.157C215.103 535.319 215.626 535.57 215.971 535.908C216.316 536.246 216.488 536.685 216.488 537.225C216.488 537.683 216.355 538.09 216.09 538.448C215.828 538.803 215.462 539.081 214.991 539.283C214.524 539.486 213.982 539.587 213.366 539.587C212.511 539.587 211.813 539.404 211.273 539.04C210.732 538.672 210.401 538.15 210.278 537.474L211.715 537.255C211.805 537.63 211.989 537.913 212.267 538.105C212.545 538.294 212.908 538.389 213.356 538.389C213.843 538.389 214.232 538.287 214.524 538.085C214.816 537.88 214.962 537.63 214.962 537.335C214.962 537.096 214.872 536.895 214.693 536.733C214.518 536.571 214.247 536.448 213.883 536.365L212.59 536.082C211.878 535.919 211.351 535.661 211.009 535.306C210.671 534.952 210.502 534.502 210.502 533.959C210.502 533.508 210.628 533.114 210.88 532.776C211.132 532.438 211.48 532.174 211.924 531.985C212.368 531.793 212.877 531.697 213.45 531.697C214.276 531.697 214.925 531.876 215.399 532.234C215.873 532.588 216.186 533.064 216.339 533.661ZM223.845 533.661L222.497 533.899C222.441 533.727 222.352 533.563 222.229 533.407C222.11 533.251 221.947 533.124 221.742 533.024C221.536 532.925 221.279 532.875 220.971 532.875C220.55 532.875 220.199 532.97 219.917 533.158C219.635 533.344 219.494 533.584 219.494 533.879C219.494 534.135 219.589 534.34 219.778 534.496C219.967 534.652 220.272 534.779 220.693 534.879L221.906 535.157C222.608 535.319 223.132 535.57 223.477 535.908C223.821 536.246 223.994 536.685 223.994 537.225C223.994 537.683 223.861 538.09 223.596 538.448C223.334 538.803 222.968 539.081 222.497 539.283C222.03 539.486 221.488 539.587 220.872 539.587C220.017 539.587 219.319 539.404 218.779 539.04C218.238 538.672 217.907 538.15 217.784 537.474L219.221 537.255C219.311 537.63 219.494 537.913 219.773 538.105C220.051 538.294 220.414 538.389 220.862 538.389C221.349 538.389 221.738 538.287 222.03 538.085C222.322 537.88 222.468 537.63 222.468 537.335C222.468 537.096 222.378 536.895 222.199 536.733C222.023 536.571 221.753 536.448 221.389 536.365L220.096 536.082C219.383 535.919 218.856 535.661 218.515 535.306C218.177 534.952 218.008 534.502 218.008 533.959C218.008 533.508 218.134 533.114 218.386 532.776C218.638 532.438 218.986 532.174 219.43 531.985C219.874 531.793 220.383 531.697 220.956 531.697C221.781 531.697 222.431 531.876 222.905 532.234C223.379 532.588 223.692 533.064 223.845 533.661ZM225.628 542.296V531.796H227.08V533.034H227.204C227.29 532.875 227.415 532.691 227.577 532.482C227.739 532.274 227.965 532.091 228.253 531.935C228.542 531.776 228.923 531.697 229.397 531.697C230.013 531.697 230.563 531.853 231.047 532.164C231.531 532.476 231.911 532.925 232.186 533.511C232.464 534.098 232.603 534.804 232.603 535.629C232.603 536.455 232.466 537.162 232.191 537.752C231.916 538.339 231.538 538.791 231.057 539.109C230.577 539.424 230.028 539.582 229.412 539.582C228.948 539.582 228.568 539.504 228.273 539.348C227.981 539.192 227.753 539.01 227.587 538.801C227.421 538.592 227.294 538.407 227.204 538.244H227.115V542.296H225.628ZM227.085 535.614C227.085 536.151 227.163 536.622 227.319 537.026C227.474 537.431 227.7 537.747 227.995 537.976C228.29 538.201 228.651 538.314 229.078 538.314C229.523 538.314 229.894 538.196 230.192 537.961C230.49 537.722 230.716 537.399 230.868 536.992C231.024 536.584 231.102 536.125 231.102 535.614C231.102 535.111 231.026 534.658 230.873 534.257C230.724 533.856 230.499 533.54 230.197 533.308C229.899 533.076 229.526 532.96 229.078 532.96C228.648 532.96 228.283 533.071 227.985 533.293C227.69 533.515 227.466 533.825 227.314 534.222C227.161 534.62 227.085 535.084 227.085 535.614ZM237.485 539.587C236.77 539.587 236.145 539.423 235.611 539.095C235.078 538.766 234.663 538.307 234.368 537.717C234.073 537.127 233.926 536.438 233.926 535.649C233.926 534.857 234.073 534.164 234.368 533.571C234.663 532.978 235.078 532.517 235.611 532.189C236.145 531.861 236.77 531.697 237.485 531.697C238.201 531.697 238.826 531.861 239.36 532.189C239.893 532.517 240.308 532.978 240.603 533.571C240.898 534.164 241.045 534.857 241.045 535.649C241.045 536.438 240.898 537.127 240.603 537.717C240.308 538.307 239.893 538.766 239.36 539.095C238.826 539.423 238.201 539.587 237.485 539.587ZM237.49 538.339C237.954 538.339 238.339 538.216 238.644 537.971C238.949 537.726 239.174 537.399 239.32 536.992C239.469 536.584 239.544 536.135 239.544 535.644C239.544 535.157 239.469 534.71 239.32 534.302C239.174 533.891 238.949 533.561 238.644 533.313C238.339 533.064 237.954 532.94 237.49 532.94C237.023 532.94 236.635 533.064 236.327 533.313C236.022 533.561 235.795 533.891 235.646 534.302C235.5 534.71 235.427 535.157 235.427 535.644C235.427 536.135 235.5 536.584 235.646 536.992C235.795 537.399 236.022 537.726 236.327 537.971C236.635 538.216 237.023 538.339 237.49 538.339ZM242.704 539.433V531.796H244.141V533.009H244.221C244.36 532.598 244.605 532.275 244.956 532.04C245.311 531.801 245.712 531.682 246.16 531.682C246.252 531.682 246.362 531.685 246.488 531.692C246.617 531.698 246.718 531.707 246.791 531.717V533.139C246.731 533.122 246.625 533.104 246.473 533.084C246.32 533.061 246.168 533.049 246.015 533.049C245.664 533.049 245.351 533.124 245.076 533.273C244.804 533.419 244.589 533.622 244.43 533.884C244.27 534.143 244.191 534.438 244.191 534.769V539.433H242.704ZM252.093 531.796V532.989H247.922V531.796H252.093ZM249.041 529.967H250.527V537.19C250.527 537.479 250.57 537.696 250.656 537.842C250.743 537.984 250.854 538.082 250.99 538.135C251.129 538.185 251.28 538.21 251.442 538.21C251.561 538.21 251.666 538.201 251.755 538.185C251.845 538.168 251.914 538.155 251.964 538.145L252.232 539.373C252.146 539.406 252.024 539.439 251.865 539.472C251.705 539.509 251.507 539.529 251.268 539.532C250.877 539.539 250.512 539.469 250.174 539.323C249.836 539.177 249.563 538.952 249.354 538.647C249.145 538.342 249.041 537.959 249.041 537.499V529.967ZM254.717 539.527C254.445 539.527 254.212 539.431 254.016 539.239C253.82 539.043 253.723 538.808 253.723 538.533C253.723 538.261 253.82 538.029 254.016 537.837C254.212 537.641 254.445 537.543 254.717 537.543C254.989 537.543 255.222 537.641 255.418 537.837C255.614 538.029 255.711 538.261 255.711 538.533C255.711 538.715 255.665 538.882 255.572 539.035C255.483 539.184 255.363 539.303 255.214 539.393C255.065 539.482 254.899 539.527 254.717 539.527ZM257.702 542.296V531.796H259.154V533.034H259.278C259.365 532.875 259.489 532.691 259.651 532.482C259.814 532.274 260.039 532.091 260.327 531.935C260.616 531.776 260.997 531.697 261.471 531.697C262.087 531.697 262.638 531.853 263.121 532.164C263.605 532.476 263.985 532.925 264.26 533.511C264.538 534.098 264.678 534.804 264.678 535.629C264.678 536.455 264.54 537.162 264.265 537.752C263.99 538.339 263.612 538.791 263.131 539.109C262.651 539.424 262.102 539.582 261.486 539.582C261.022 539.582 260.642 539.504 260.347 539.348C260.056 539.192 259.827 539.01 259.661 538.801C259.496 538.592 259.368 538.407 259.278 538.244H259.189V542.296H257.702ZM259.159 535.614C259.159 536.151 259.237 536.622 259.393 537.026C259.549 537.431 259.774 537.747 260.069 537.976C260.364 538.201 260.725 538.314 261.153 538.314C261.597 538.314 261.968 538.196 262.266 537.961C262.565 537.722 262.79 537.399 262.942 536.992C263.098 536.584 263.176 536.125 263.176 535.614C263.176 535.111 263.1 534.658 262.947 534.257C262.798 533.856 262.573 533.54 262.271 533.308C261.973 533.076 261.6 532.96 261.153 532.96C260.722 532.96 260.357 533.071 260.059 533.293C259.764 533.515 259.54 533.825 259.388 534.222C259.235 534.62 259.159 535.084 259.159 535.614ZM269.202 539.582C268.585 539.582 268.035 539.424 267.551 539.109C267.071 538.791 266.693 538.339 266.418 537.752C266.146 537.162 266.01 536.455 266.01 535.629C266.01 534.804 266.147 534.098 266.423 533.511C266.701 532.925 267.082 532.476 267.566 532.164C268.05 531.853 268.598 531.697 269.212 531.697C269.686 531.697 270.067 531.776 270.355 531.935C270.647 532.091 270.872 532.274 271.031 532.482C271.194 532.691 271.32 532.875 271.409 533.034H271.499V529.251H272.985V539.433H271.533V538.244H271.409C271.32 538.407 271.19 538.592 271.021 538.801C270.856 539.01 270.627 539.192 270.335 539.348C270.044 539.504 269.666 539.582 269.202 539.582ZM269.53 538.314C269.957 538.314 270.319 538.201 270.614 537.976C270.912 537.747 271.137 537.431 271.29 537.026C271.446 536.622 271.523 536.151 271.523 535.614C271.523 535.084 271.447 534.62 271.295 534.222C271.142 533.825 270.919 533.515 270.624 533.293C270.329 533.071 269.964 532.96 269.53 532.96C269.082 532.96 268.71 533.076 268.411 533.308C268.113 533.54 267.888 533.856 267.735 534.257C267.586 534.658 267.511 535.111 267.511 535.614C267.511 536.125 267.588 536.584 267.74 536.992C267.893 537.399 268.118 537.722 268.416 537.961C268.718 538.196 269.089 538.314 269.53 538.314ZM278.741 531.796V532.989H274.426V531.796H278.741ZM275.609 539.433V530.911C275.609 530.434 275.713 530.038 275.922 529.723C276.131 529.405 276.408 529.168 276.752 529.012C277.097 528.853 277.472 528.774 277.876 528.774C278.174 528.774 278.429 528.798 278.642 528.848C278.854 528.895 279.011 528.938 279.114 528.977L278.766 530.18C278.696 530.161 278.607 530.137 278.497 530.111C278.388 530.081 278.255 530.066 278.1 530.066C277.738 530.066 277.48 530.156 277.324 530.335C277.172 530.514 277.095 530.772 277.095 531.11V539.433H275.609Z" fill="black"/>
<path d="M93.6396 533.596V541.721C93.6396 542.252 93.439 542.762 93.082 543.137C92.7251 543.513 92.2409 543.724 91.736 543.724H82.8528C82.3479 543.724 81.8637 543.513 81.5068 543.137C81.1498 542.762 80.9492 542.252 80.9492 541.721V528.37C80.9492 527.839 81.1498 527.329 81.5068 526.954C81.8637 526.578 82.3479 526.367 82.8528 526.367H86.7689C87.1054 526.367 87.4281 526.508 87.666 526.758L93.268 532.652C93.5059 532.902 93.6395 533.242 93.6396 533.596Z" stroke="black" stroke-width="1.25" stroke-linejoin="round"/>
<path d="M87.2937 526.701V531.708C87.2937 532.062 87.4274 532.402 87.6654 532.652C87.9034 532.902 88.2261 533.043 88.5627 533.043H93.3216M84.1211 536.381H90.4663M84.1211 539.719H90.4663" stroke="black" stroke-width="1.25" stroke-linecap="round" stroke-linejoin="round"/>
<g clip-path="url(#clip1_116_150)">
<path d="M639.561 528.438C636.161 528.438 632.674 530.508 629.928 534.648C629.85 534.768 629.807 534.909 629.805 535.054C629.803 535.199 629.842 535.342 629.916 535.464C632.026 538.938 635.467 541.655 639.561 541.655C643.611 541.655 647.123 538.93 649.237 535.448C649.31 535.328 649.349 535.189 649.349 535.047C649.349 534.905 649.31 534.766 649.237 534.646C647.118 531.204 643.581 528.438 639.561 528.438Z" stroke="black" stroke-width="1.375" stroke-linecap="round" stroke-linejoin="round"/>
<path d="M639.576 538.718C641.503 538.718 643.066 537.074 643.066 535.047C643.066 533.019 641.503 531.375 639.576 531.375C637.648 531.375 636.086 533.019 636.086 535.047C636.086 537.074 637.648 538.718 639.576 538.718Z" stroke="black" stroke-width="1.375" stroke-miterlimit="10"/>
</g>
<path d="M683.488 530.239H697.194M695.671 530.239V541.454C695.671 541.879 695.511 542.287 695.225 542.587C694.939 542.888 694.552 543.057 694.148 543.057H686.534C686.13 543.057 685.743 542.888 685.457 542.587C685.172 542.287 685.011 541.879 685.011 541.454V530.239M687.295 530.239V528.637C687.295 528.212 687.456 527.805 687.741 527.504C688.027 527.204 688.414 527.035 688.818 527.035H691.864C692.268 527.035 692.655 527.204 692.941 527.504C693.226 527.805 693.387 528.212 693.387 528.637V530.239M688.818 534.245V539.051M691.864 534.245V539.051" stroke="#EF2626" stroke-width="1.5" stroke-linecap="round" stroke-linejoin="round"/>
<rect x="59.8828" y="577.77" width="682.234" height="68.3578" rx="16" fill="#F9F9F9"/>
<rect x="60.3828" y="578.27" width="681.234" height="67.3578" rx="15.5" stroke="#040404" stroke-opacity="0.07"/>
<path d="M110.819 616.718C110.335 616.718 109.898 616.628 109.507 616.449C109.116 616.267 108.806 616.004 108.577 615.659C108.352 615.314 108.239 614.892 108.239 614.391C108.239 613.96 108.322 613.606 108.488 613.327C108.653 613.049 108.877 612.828 109.159 612.666C109.44 612.504 109.755 612.381 110.103 612.298C110.451 612.215 110.806 612.152 111.167 612.109C111.625 612.056 111.996 612.013 112.281 611.98C112.566 611.943 112.773 611.885 112.902 611.806C113.032 611.726 113.096 611.597 113.096 611.418V611.383C113.096 610.949 112.974 610.613 112.728 610.374C112.486 610.135 112.125 610.016 111.645 610.016C111.144 610.016 110.75 610.127 110.461 610.349C110.176 610.568 109.979 610.812 109.87 611.08L108.473 610.762C108.638 610.298 108.88 609.923 109.199 609.638C109.52 609.35 109.89 609.141 110.307 609.012C110.725 608.879 111.164 608.813 111.625 608.813C111.93 608.813 112.253 608.849 112.594 608.922C112.939 608.992 113.26 609.121 113.559 609.31C113.86 609.499 114.107 609.769 114.299 610.121C114.492 610.469 114.588 610.921 114.588 611.478V616.549H113.136V615.505H113.076C112.98 615.697 112.836 615.886 112.644 616.072C112.452 616.257 112.205 616.411 111.903 616.534C111.601 616.657 111.24 616.718 110.819 616.718ZM111.142 615.525C111.553 615.525 111.905 615.443 112.196 615.281C112.491 615.119 112.715 614.907 112.868 614.645C113.023 614.38 113.101 614.096 113.101 613.795V612.81C113.048 612.863 112.945 612.913 112.793 612.959C112.644 613.002 112.473 613.041 112.281 613.074C112.089 613.104 111.901 613.132 111.719 613.158C111.537 613.181 111.384 613.201 111.262 613.218C110.973 613.254 110.71 613.316 110.471 613.402C110.236 613.488 110.047 613.612 109.904 613.775C109.765 613.934 109.696 614.146 109.696 614.411C109.696 614.779 109.832 615.057 110.103 615.246C110.375 615.432 110.721 615.525 111.142 615.525ZM120.202 608.912V610.106H115.887V608.912H120.202ZM117.07 616.549V608.028C117.07 607.55 117.174 607.154 117.383 606.839C117.592 606.521 117.869 606.284 118.213 606.128C118.558 605.969 118.932 605.89 119.337 605.89C119.635 605.89 119.89 605.915 120.102 605.964C120.315 606.011 120.472 606.054 120.575 606.094L120.227 607.297C120.157 607.277 120.068 607.254 119.958 607.227C119.849 607.197 119.716 607.182 119.561 607.182C119.199 607.182 118.941 607.272 118.785 607.451C118.633 607.63 118.556 607.888 118.556 608.226V616.549H117.07ZM125.37 608.912V610.106H121.055V608.912H125.37ZM122.238 616.549V608.028C122.238 607.55 122.342 607.154 122.551 606.839C122.76 606.521 123.037 606.284 123.381 606.128C123.726 605.969 124.1 605.89 124.505 605.89C124.803 605.89 125.058 605.915 125.27 605.964C125.483 606.011 125.64 606.054 125.743 606.094L125.395 607.297C125.325 607.277 125.236 607.254 125.126 607.227C125.017 607.197 124.884 607.182 124.729 607.182C124.367 607.182 124.109 607.272 123.953 607.451C123.8 607.63 123.724 607.888 123.724 608.226V616.549H122.238ZM126.904 616.549V608.912H128.39V616.549H126.904ZM127.654 607.734C127.396 607.734 127.174 607.648 126.988 607.476C126.806 607.3 126.715 607.091 126.715 606.849C126.715 606.604 126.806 606.395 126.988 606.223C127.174 606.047 127.396 605.959 127.654 605.959C127.913 605.959 128.133 606.047 128.316 606.223C128.501 606.395 128.594 606.604 128.594 606.849C128.594 607.091 128.501 607.3 128.316 607.476C128.133 607.648 127.913 607.734 127.654 607.734ZM133.249 616.698C132.632 616.698 132.082 616.541 131.598 616.226C131.117 615.907 130.74 615.455 130.464 614.868C130.193 614.278 130.057 613.571 130.057 612.746C130.057 611.92 130.194 611.214 130.469 610.628C130.748 610.041 131.129 609.592 131.613 609.28C132.097 608.969 132.645 608.813 133.259 608.813C133.732 608.813 134.114 608.893 134.402 609.052C134.694 609.207 134.919 609.39 135.078 609.599C135.241 609.807 135.366 609.991 135.456 610.15H135.545V606.367H137.032V616.549H135.58V615.361H135.456C135.366 615.523 135.237 615.709 135.068 615.917C134.902 616.126 134.674 616.309 134.382 616.464C134.09 616.62 133.713 616.698 133.249 616.698ZM133.577 615.43C134.004 615.43 134.366 615.318 134.661 615.092C134.959 614.863 135.184 614.547 135.337 614.143C135.492 613.738 135.57 613.268 135.57 612.731C135.57 612.2 135.494 611.736 135.342 611.339C135.189 610.941 134.965 610.631 134.67 610.409C134.375 610.187 134.011 610.076 133.577 610.076C133.129 610.076 132.756 610.192 132.458 610.424C132.16 610.656 131.934 610.972 131.782 611.373C131.633 611.774 131.558 612.227 131.558 612.731C131.558 613.241 131.634 613.7 131.787 614.108C131.939 614.515 132.165 614.839 132.463 615.077C132.765 615.313 133.136 615.43 133.577 615.43ZM141.376 616.718C140.892 616.718 140.454 616.628 140.063 616.449C139.672 616.267 139.362 616.004 139.134 615.659C138.908 615.314 138.796 614.892 138.796 614.391C138.796 613.96 138.878 613.606 139.044 613.327C139.21 613.049 139.434 612.828 139.715 612.666C139.997 612.504 140.312 612.381 140.66 612.298C141.008 612.215 141.363 612.152 141.724 612.109C142.181 612.056 142.552 612.013 142.838 611.98C143.123 611.943 143.33 611.885 143.459 611.806C143.588 611.726 143.653 611.597 143.653 611.418V611.383C143.653 610.949 143.53 610.613 143.285 610.374C143.043 610.135 142.682 610.016 142.201 610.016C141.701 610.016 141.306 610.127 141.018 610.349C140.733 610.568 140.536 610.812 140.426 611.08L139.029 610.762C139.195 610.298 139.437 609.923 139.755 609.638C140.077 609.35 140.446 609.141 140.864 609.012C141.281 608.879 141.721 608.813 142.181 608.813C142.486 608.813 142.809 608.849 143.151 608.922C143.495 608.992 143.817 609.121 144.115 609.31C144.417 609.499 144.664 609.769 144.856 610.121C145.048 610.469 145.144 610.921 145.144 611.478V616.549H143.693V615.505H143.633C143.537 615.697 143.393 615.886 143.2 616.072C143.008 616.257 142.761 616.411 142.46 616.534C142.158 616.657 141.797 616.718 141.376 616.718ZM141.699 615.525C142.11 615.525 142.461 615.443 142.753 615.281C143.048 615.119 143.272 614.907 143.424 614.645C143.58 614.38 143.658 614.096 143.658 613.795V612.81C143.605 612.863 143.502 612.913 143.35 612.959C143.2 613.002 143.03 613.041 142.838 613.074C142.645 613.104 142.458 613.132 142.276 613.158C142.093 613.181 141.941 613.201 141.818 613.218C141.53 613.254 141.267 613.316 141.028 613.402C140.793 613.488 140.604 613.612 140.461 613.775C140.322 613.934 140.252 614.146 140.252 614.411C140.252 614.779 140.388 615.057 140.66 615.246C140.932 615.432 141.278 615.525 141.699 615.525ZM153.384 608.912L150.614 616.549H149.023L146.249 608.912H147.845L149.779 614.789H149.859L151.788 608.912H153.384ZM154.781 616.549V608.912H156.267V616.549H154.781ZM155.531 607.734C155.273 607.734 155.051 607.648 154.865 607.476C154.683 607.3 154.592 607.091 154.592 606.849C154.592 606.604 154.683 606.395 154.865 606.223C155.051 606.047 155.273 605.959 155.531 605.959C155.79 605.959 156.01 606.047 156.192 606.223C156.378 606.395 156.471 606.604 156.471 606.849C156.471 607.091 156.378 607.3 156.192 607.476C156.01 607.648 155.79 607.734 155.531 607.734ZM161.831 608.912V610.106H157.66V608.912H161.831ZM158.779 607.083H160.265V614.307C160.265 614.595 160.309 614.812 160.395 614.958C160.481 615.1 160.592 615.198 160.728 615.251C160.867 615.301 161.018 615.326 161.18 615.326C161.3 615.326 161.404 615.318 161.493 615.301C161.583 615.284 161.653 615.271 161.702 615.261L161.971 616.489C161.885 616.522 161.762 616.555 161.603 616.589C161.444 616.625 161.245 616.645 161.006 616.648C160.615 616.655 160.251 616.585 159.912 616.439C159.574 616.294 159.301 616.068 159.092 615.763C158.883 615.458 158.779 615.076 158.779 614.615V607.083ZM164.455 616.643C164.183 616.643 163.95 616.547 163.754 616.355C163.559 616.159 163.461 615.924 163.461 615.649C163.461 615.377 163.559 615.145 163.754 614.953C163.95 614.757 164.183 614.66 164.455 614.66C164.727 614.66 164.961 614.757 165.156 614.953C165.352 615.145 165.45 615.377 165.45 615.649C165.45 615.831 165.403 615.999 165.31 616.151C165.221 616.3 165.102 616.42 164.952 616.509C164.803 616.599 164.638 616.643 164.455 616.643ZM167.441 619.412V608.912H168.892V610.15H169.017C169.103 609.991 169.227 609.807 169.39 609.599C169.552 609.39 169.777 609.207 170.066 609.052C170.354 608.893 170.735 608.813 171.209 608.813C171.826 608.813 172.376 608.969 172.86 609.28C173.344 609.592 173.723 610.041 173.998 610.628C174.277 611.214 174.416 611.92 174.416 612.746C174.416 613.571 174.278 614.278 174.003 614.868C173.728 615.455 173.35 615.907 172.87 616.226C172.389 616.541 171.841 616.698 171.224 616.698C170.76 616.698 170.381 616.62 170.086 616.464C169.794 616.309 169.565 616.126 169.4 615.917C169.234 615.709 169.106 615.523 169.017 615.361H168.927V619.412H167.441ZM168.897 612.731C168.897 613.268 168.975 613.738 169.131 614.143C169.287 614.547 169.512 614.863 169.807 615.092C170.102 615.318 170.463 615.43 170.891 615.43C171.335 615.43 171.706 615.313 172.005 615.077C172.303 614.839 172.528 614.515 172.681 614.108C172.837 613.7 172.914 613.241 172.914 612.731C172.914 612.227 172.838 611.774 172.686 611.373C172.537 610.972 172.311 610.656 172.01 610.424C171.711 610.192 171.338 610.076 170.891 610.076C170.46 610.076 170.096 610.187 169.797 610.409C169.502 610.631 169.279 610.941 169.126 611.339C168.974 611.736 168.897 612.2 168.897 612.731ZM178.94 616.698C178.324 616.698 177.773 616.541 177.289 616.226C176.809 615.907 176.431 615.455 176.156 614.868C175.884 614.278 175.748 613.571 175.748 612.746C175.748 611.92 175.886 611.214 176.161 610.628C176.439 610.041 176.82 609.592 177.304 609.28C177.788 608.969 178.337 608.813 178.95 608.813C179.424 608.813 179.805 608.893 180.093 609.052C180.385 609.207 180.61 609.39 180.77 609.599C180.932 609.807 181.058 609.991 181.147 610.15H181.237V606.367H182.723V616.549H181.272V615.361H181.147C181.058 615.523 180.929 615.709 180.76 615.917C180.594 616.126 180.365 616.309 180.074 616.464C179.782 616.62 179.404 616.698 178.94 616.698ZM179.268 615.43C179.696 615.43 180.057 615.318 180.352 615.092C180.65 614.863 180.876 614.547 181.028 614.143C181.184 613.738 181.262 613.268 181.262 612.731C181.262 612.2 181.185 611.736 181.033 611.339C180.881 610.941 180.657 610.631 180.362 610.409C180.067 610.187 179.702 610.076 179.268 610.076C178.821 610.076 178.448 610.192 178.15 610.424C177.851 610.656 177.626 610.972 177.473 611.373C177.324 611.774 177.25 612.227 177.25 612.731C177.25 613.241 177.326 613.7 177.478 614.108C177.631 614.515 177.856 614.839 178.154 615.077C178.456 615.313 178.827 615.43 179.268 615.43ZM188.479 608.912V610.106H184.164V608.912H188.479ZM185.347 616.549V608.028C185.347 607.55 185.452 607.154 185.66 606.839C185.869 606.521 186.146 606.284 186.491 606.128C186.835 605.969 187.21 605.89 187.614 605.89C187.912 605.89 188.168 605.915 188.38 605.964C188.592 606.011 188.749 606.054 188.852 606.094L188.504 607.297C188.434 607.277 188.345 607.254 188.236 607.227C188.126 607.197 187.994 607.182 187.838 607.182C187.477 607.182 187.218 607.272 187.062 607.451C186.91 607.63 186.834 607.888 186.834 608.226V616.549H185.347Z" fill="black"/>
<path d="M93.6396 610.498V618.623C93.6396 619.154 93.439 619.664 93.082 620.039C92.7251 620.415 92.2409 620.626 91.736 620.626H82.8528C82.3479 620.626 81.8637 620.415 81.5068 620.039C81.1498 619.664 80.9492 619.154 80.9492 618.623V605.272C80.9492 604.741 81.1498 604.232 81.5068 603.856C81.8637 603.481 82.3479 603.27 82.8528 603.27H86.7689C87.1054 603.27 87.4281 603.41 87.666 603.66L93.268 609.554C93.5059 609.804 93.6395 610.144 93.6396 610.498Z" stroke="black" stroke-width="1.25" stroke-linejoin="round"/>
<path d="M87.2937 603.604V608.61C87.2937 608.964 87.4274 609.304 87.6654 609.554C87.9034 609.805 88.2261 609.945 88.5627 609.945H93.3216M84.1211 613.283H90.4663M84.1211 616.621H90.4663" stroke="black" stroke-width="1.25" stroke-linecap="round" stroke-linejoin="round"/>
<g clip-path="url(#clip2_116_150)">
<path d="M639.561 605.34C636.161 605.34 632.674 607.41 629.928 611.551C629.85 611.67 629.807 611.811 629.805 611.957C629.803 612.102 629.842 612.244 629.916 612.366C632.026 615.841 635.467 618.557 639.561 618.557C643.611 618.557 647.123 615.832 649.237 612.35C649.31 612.231 649.349 612.092 649.349 611.949C649.349 611.807 649.31 611.668 649.237 611.548C647.118 608.106 643.581 605.34 639.561 605.34Z" stroke="black" stroke-width="1.375" stroke-linecap="round" stroke-linejoin="round"/>
<path d="M639.576 615.62C641.503 615.62 643.066 613.977 643.066 611.949C643.066 609.921 641.503 608.277 639.576 608.277C637.648 608.277 636.086 609.921 636.086 611.949C636.086 613.977 637.648 615.62 639.576 615.62Z" stroke="black" stroke-width="1.375" stroke-miterlimit="10"/>
</g>
<path d="M683.488 607.142H697.194M695.671 607.142V618.357C695.671 618.782 695.511 619.189 695.225 619.49C694.939 619.79 694.552 619.959 694.148 619.959H686.534C686.13 619.959 685.743 619.79 685.457 619.49C685.172 619.189 685.011 618.782 685.011 618.357V607.142M687.295 607.142V605.54C687.295 605.115 687.456 604.707 687.741 604.407C688.027 604.106 688.414 603.938 688.818 603.938H691.864C692.268 603.938 692.655 604.106 692.941 604.407C693.226 604.707 693.387 605.115 693.387 605.54V607.142M688.818 611.147V615.954M691.864 611.147V615.954" stroke="#EF2626" stroke-width="1.5" stroke-linecap="round" stroke-linejoin="round"/>
<rect x="59.8828" y="167.622" width="341.117" height="16.0214" rx="8.01068" fill="#F4F4F4"/>
<rect x="59.8828" y="167.622" width="341.117" height="16.0214" rx="8.01068" fill="#F4F4F4"/>
<rect x="59.8828" y="167.622" width="341.117" height="16.0214" rx="8.01068" fill="#F4F4F4"/>
<rect x="59.8828" y="167.622" width="341.117" height="16.0214" rx="8.01068" fill="#F4F4F4"/>
<rect x="59.8828" y="167.622" width="341.117" height="16.0214" rx="8.01068" fill="#F4F4F4"/>
<rect x="59.8828" y="196.461" width="196.954" height="16.0214" rx="8.01068" fill="#F4F4F4"/>
<rect x="59.8828" y="196.461" width="196.954" height="16.0214" rx="8.01068" fill="#F4F4F4"/>
<rect x="59.8828" y="196.461" width="196.954" height="16.0214" rx="8.01068" fill="#F4F4F4"/>
<rect x="59.8828" y="196.461" width="196.954" height="16.0214" rx="8.01068" fill="#F4F4F4"/>
<rect x="59.8828" y="196.461" width="196.954" height="16.0214" rx="8.01068" fill="#F4F4F4"/>
<rect x="77.1406" y="727.302" width="196.954" height="16.0214" rx="8.01068" fill="#F4F4F4"/>
<rect x="77.1406" y="727.302" width="196.954" height="16.0214" rx="8.01068" fill="#F4F4F4"/>
<rect x="77.1406" y="727.302" width="196.954" height="16.0214" rx="8.01068" fill="#F4F4F4"/>
<rect x="77.1406" y="727.302" width="196.954" height="16.0214" rx="8.01068" fill="#F4F4F4"/>
<rect x="77.1406" y="727.302" width="196.954" height="16.0214" rx="8.01068" fill="#F4F4F4"/>
<defs>
<clipPath id="clip0_116_150">
<rect width="26" height="26" fill="white" transform="translate(382.883 307.41)"/>
</clipPath>
<clipPath id="clip1_116_150">
<rect width="22.335" height="23.498" fill="white" transform="translate(628.41 523.297)"/>
</clipPath>
<clipPath id="clip2_116_150">
<rect width="22.335" height="23.498" fill="white" transform="translate(628.41 600.199)"/>
</clipPath>
</defs>
</svg>
